<svg xmlns="http://www.w3.org/2000/svg" width="116.825" height="99.992" viewBox="0 0 116.825 99.992">
  <g id="Group_216" data-name="Group 216" transform="translate(-1016 -1232)">
    <path id="Path_685" data-name="Path 685" d="M99.165,83.507c-21.656,7.143-39.54-.794-72.739-12.21S-6.5,26.957,15.088,7.8s64.122.645,81.146,19.78S120.821,76.364,99.165,83.507Z" transform="translate(1128.312 1331.992) rotate(-177)" fill="#deeee8" opacity="0.77"/>
    <g id="gardening" transform="translate(1032 1232)">
      <path id="Path_633" data-name="Path 633" d="M95.727,238.934v41.872a1.468,1.468,0,0,1-1.4,1.527h-58.8a1.468,1.468,0,0,1-1.4-1.527V238.934Zm0,0" transform="translate(-28.526 -199.734)" fill="#88c0a8"/>
      <path id="Path_634" data-name="Path 634" d="M91.514,238.934v41.872a1.429,1.429,0,0,1-1.3,1.527H35.418a1.429,1.429,0,0,1-1.3-1.527V238.934Zm0,0" transform="translate(-28.514 -199.734)" fill="#e3f0eb"/>
      <path id="Path_635" data-name="Path 635" d="M55.234,128H63.8a2.841,2.841,0,0,1,2.073.91l6.832,7.532,5.493,6.04a2.683,2.683,0,0,1,.7,2.306,7,7,0,0,1-12.666,2.524,1.423,1.423,0,0,0-2.392,0,7,7,0,0,1-11.608,0,1.424,1.424,0,0,0-2.392,0,7,7,0,0,1-11.608,0,1.423,1.423,0,0,0-2.392,0,7,7,0,0,1-11.608,0,1.423,1.423,0,0,0-2.392,0,7,7,0,0,1-12.666-2.524,2.683,2.683,0,0,1,.7-2.306l5.493-6.04,6.832-7.532a2.84,2.84,0,0,1,2.072-.91h8.568" transform="translate(-7.634 -107)" fill="#955ba5"/>
      <path id="Path_636" data-name="Path 636" d="M55.234,128H63.8a2.841,2.841,0,0,1,2.073.91l6.832,7.532,5.493,6.04a2.683,2.683,0,0,1,.7,2.306,7,7,0,0,1-12.666,2.524,1.423,1.423,0,0,0-2.392,0,7,7,0,0,1-11.608,0,1.424,1.424,0,0,0-2.392,0,7,7,0,0,1-11.608,0,1.423,1.423,0,0,0-2.392,0,7,7,0,0,1-11.608,0,1.423,1.423,0,0,0-2.392,0,7,7,0,0,1-12.666-2.524,2.683,2.683,0,0,1,.7-2.306l5.493-6.04,6.832-7.532a2.84,2.84,0,0,1,2.072-.91h8.568" transform="translate(-7.634 -107)" fill="#e3f0eb"/>
      <path id="Path_637" data-name="Path 637" d="M341.542,144.786a7,7,0,0,1-6.86,5.614,6.709,6.709,0,0,1-2.38-.435,6.8,6.8,0,0,0,3.738-5.18,3.059,3.059,0,0,0-.588-2.31l-4.62-6.034-5.754-7.532a2.252,2.252,0,0,0-1.75-.91h3.122a2.841,2.841,0,0,1,2.073.91l6.832,7.532,5.488,6.034A2.676,2.676,0,0,1,341.542,144.786Zm0,0" transform="translate(-270.282 -107)" fill="#cee3db"/>
      <path id="Path_638" data-name="Path 638" d="M93.6,300.068v14H76.8v-14a1.4,1.4,0,0,1,1.4-1.4h14A1.4,1.4,0,0,1,93.6,300.068Zm0,0" transform="translate(-64.201 -249.668)" fill="#cee3db"/>
      <path id="Path_639" data-name="Path 639" d="M247.067,300.068v7l-9.8,5.6h-14a1.4,1.4,0,0,1-1.4-1.4v-11.2a1.4,1.4,0,0,1,1.4-1.4h22.4A1.4,1.4,0,0,1,247.067,300.068Zm0,0" transform="translate(-185.467 -249.668)" fill="#cee3db"/>
      <path id="Path_640" data-name="Path 640" d="M89.4,300.068v14H76.8v-14a1.4,1.4,0,0,1,1.4-1.4H88A1.4,1.4,0,0,1,89.4,300.068Zm0,0" transform="translate(-64.201 -249.668)" fill="#e3f0eb"/>
      <path id="Path_641" data-name="Path 641" d="M242.867,300.068v7l-9.8,5.6h-9.8a1.4,1.4,0,0,1-1.4-1.4v-11.2a1.4,1.4,0,0,1,1.4-1.4h18.2A1.4,1.4,0,0,1,242.867,300.068Zm0,0" transform="translate(-185.467 -249.668)" fill="#e3f0eb"/>
      <path id="Path_642" data-name="Path 642" d="M187.468,128l-1.4,14h-14l-1.4-14Zm0,0" transform="translate(-142.668 -107)" fill="#cee0d9"/>
      <path id="Path_643" data-name="Path 643" d="M183.267,128l-1.05,14h-10.5l-1.05-14Zm0,0" transform="translate(-142.668 -107)" fill="#e3f0eb"/>
      <path id="Path_644" data-name="Path 644" d="M155,102.4h19.6a1.4,1.4,0,0,1,1.4,1.4v2.8a1.4,1.4,0,0,1-1.4,1.4H155a1.4,1.4,0,0,1-1.4-1.4v-2.8A1.4,1.4,0,0,1,155,102.4Zm0,0" transform="translate(-128.401 -85.599)" fill="#cee0d9"/>
      <path id="Path_645" data-name="Path 645" d="M155,102.4h15.4a1.4,1.4,0,0,1,1.4,1.4v2.8a1.4,1.4,0,0,1-1.4,1.4H155a1.4,1.4,0,0,1-1.4-1.4v-2.8A1.4,1.4,0,0,1,155,102.4Zm0,0" transform="translate(-128.401 -85.599)" fill="#e3f0eb"/>
      <path id="Path_646" data-name="Path 646" d="M97.932,12.735c0,2.32-2.634,4.2-5.883,4.2-2.2,0-4.792-1.926-6.237-3.17a1.345,1.345,0,0,1,0-2.061c1.445-1.243,4.037-3.169,6.237-3.169C95.3,8.535,97.932,10.415,97.932,12.735Zm0,0" transform="translate(-71.332 -7.135)" fill="#e3f0eb"/>
      <path id="Path_647" data-name="Path 647" d="M281.6,12.735c0,2.32,2.633,4.2,5.883,4.2,2.2,0,4.792-1.926,6.237-3.17a1.346,1.346,0,0,0,0-2.061c-1.445-1.243-4.037-3.169-6.237-3.169C284.235,8.535,281.6,10.415,281.6,12.735Zm0,0" transform="translate(-235.401 -7.135)" fill="#e3f0eb"/>
      <path id="Path_648" data-name="Path 648" d="M346.534,438a2.82,2.82,0,0,1-2.8,2.8h-25.2a2.8,2.8,0,1,1,0-5.6h25.2A2.808,2.808,0,0,1,346.534,438Zm0,0" transform="translate(-263.934 -363.799)" fill="#cee3db"/>
      <path id="Path_649" data-name="Path 649" d="M318.534,349.867h25.2a2.8,2.8,0,0,1,2.8,2.8v2.8a2.8,2.8,0,0,1-2.8,2.8h-25.2a2.8,2.8,0,0,1-2.8-2.8v-2.8A2.8,2.8,0,0,1,318.534,349.867Zm0,0" transform="translate(-263.934 -292.467)" fill="#cee3db"/>
      <path id="Path_650" data-name="Path 650" d="M342.334,438a2.821,2.821,0,0,1-2.8,2.8h-21a2.8,2.8,0,1,1,0-5.6h21A2.808,2.808,0,0,1,342.334,438Zm0,0" transform="translate(-263.934 -363.799)" fill="#e3f0eb"/>
      <path id="Path_651" data-name="Path 651" d="M318.534,349.867h21a2.8,2.8,0,0,1,2.8,2.8v2.8a2.8,2.8,0,0,1-2.8,2.8h-21a2.8,2.8,0,0,1-2.8-2.8v-2.8A2.8,2.8,0,0,1,318.534,349.867Zm0,0" transform="translate(-263.934 -292.467)" fill="#e3f0eb"/>
      <path id="Path_652" data-name="Path 652" d="M76.8,392.535H93.6v18.2H76.8Zm0,0" transform="translate(-64.201 -328.135)" fill="#cee3db"/>
      <path id="Path_653" data-name="Path 653" d="M76.8,392.535H89.4v18.2H76.8Zm0,0" transform="translate(-64.201 -328.135)" fill="#e3f0eb"/>
      <path id="Path_654" data-name="Path 654" d="M24.266,131.711a2.842,2.842,0,0,0-2.072.91l-6.832,7.532L9.87,146.192a2.683,2.683,0,0,0-.7,2.307,7,7,0,0,0,4.062,5v37.672a1.429,1.429,0,0,0,1.3,1.527h4.2a1.428,1.428,0,0,1-1.3-1.527V153.5a7,7,0,0,1-4.062-5,2.685,2.685,0,0,1,.7-2.307l5.492-6.039,6.832-7.532" transform="translate(-7.634 -110.102)" fill="#fff"/>
      <path id="Path_655" data-name="Path 655" d="M64.4,144.665a8.4,8.4,0,0,1-6.965-3.7,8.617,8.617,0,0,1-7.035,3.7,8.4,8.4,0,0,1-6.964-3.7,8.618,8.618,0,0,1-7.035,3.7,8.4,8.4,0,0,1-6.964-3.7,8.618,8.618,0,0,1-7.035,3.7,8.4,8.4,0,0,1-6.965-3.7,8.617,8.617,0,0,1-7.035,3.7,8.41,8.41,0,0,1-8.4-8.4,1.4,1.4,0,0,1,.364-.942l13.16-14.489a4.246,4.246,0,0,1,3.108-1.37H25.2a1.4,1.4,0,0,1,0,2.8H16.632a1.429,1.429,0,0,0-1.045.461L2.823,136.78a5.6,5.6,0,0,0,10.22,2.614,2.823,2.823,0,0,1,4.713,0,5.6,5.6,0,0,0,9.287,0,2.823,2.823,0,0,1,4.712,0,5.6,5.6,0,0,0,9.287,0,2.823,2.823,0,0,1,4.713,0,5.6,5.6,0,0,0,9.287,0,2.823,2.823,0,0,1,4.713,0,5.6,5.6,0,0,0,10.221-2.613L57.2,122.717a1.422,1.422,0,0,0-1.036-.451H47.6a1.4,1.4,0,0,1,0-2.8h8.568a4.244,4.244,0,0,1,3.1,1.358l13.17,14.5a1.4,1.4,0,0,1,.364.942A8.41,8.41,0,0,1,64.4,144.665Zm0,0" transform="translate(0 -99.865)" fill="#384f45"/>
      <path id="Path_656" data-name="Path 656" d="M28.4,261.035v38.374H25.6V261.035Zm0,0" transform="translate(-21.401 -218.209)" fill="#fff"/>
      <g id="Group_212" data-name="Group 212" transform="translate(4.183)">
        <path id="Path_657" data-name="Path 657" d="M27,268.035a1.405,1.405,0,0,0,1.4-1.4v-5.6H25.6v5.6A1.4,1.4,0,0,0,27,268.035Zm0,0" transform="translate(-25.584 -218.209)" fill="#384f45"/>
        <path id="Path_658" data-name="Path 658" d="M25.6,377.876h2.8V356.3a1.4,1.4,0,0,0-2.8,0Zm0,0" transform="translate(-25.584 -296.676)" fill="#384f45"/>
        <path id="Path_659" data-name="Path 659" d="M28.314,322.169a1.475,1.475,0,0,0-.406-.994l-.21-.168a1.053,1.053,0,0,0-.252-.126.9.9,0,0,0-.252-.084,2.042,2.042,0,0,0-.28-.028,1.471,1.471,0,0,0-.994.406,1.38,1.38,0,0,0,.462,2.282,1.408,1.408,0,0,0,.532.112,1.387,1.387,0,0,0,1.4-1.4Zm0,0" transform="translate(-25.497 -268.143)" fill="#384f45"/>
        <path id="Path_660" data-name="Path 660" d="M87.2,469.2H28.4a2.8,2.8,0,0,1-2.8-2.8,1.4,1.4,0,1,1,2.8,0H87.2v-4.2a1.4,1.4,0,0,1,2.8,0v4.2A2.8,2.8,0,0,1,87.2,469.2Zm0,0" transform="translate(-25.584 -385.201)" fill="#384f45"/>
        <path id="Path_661" data-name="Path 661" d="M402.467,269.874a1.4,1.4,0,0,1-1.4-1.4V253.9a1.4,1.4,0,1,1,2.8,0v14.574A1.4,1.4,0,0,1,402.467,269.874Zm0,0" transform="translate(-339.45 -211.074)" fill="#384f45"/>
        <path id="Path_662" data-name="Path 662" d="M402.467,400.935a1.4,1.4,0,0,1-1.4-1.4v-5.6a1.4,1.4,0,0,1,2.8,0v5.6A1.4,1.4,0,0,1,402.467,400.935Zm0,0" transform="translate(-339.45 -328.135)" fill="#384f45"/>
        <path id="Path_663" data-name="Path 663" d="M336.6,435.068H311.4a4.2,4.2,0,1,1,0-8.4h25.2a4.2,4.2,0,1,1,0,8.4Zm-25.2-5.6a1.4,1.4,0,1,0,0,2.8h25.2a1.4,1.4,0,1,0,0-2.8Zm0,0" transform="translate(-260.982 -356.668)" fill="#384f45"/>
        <path id="Path_664" data-name="Path 664" d="M336.6,352.533H311.4a4.2,4.2,0,0,1-4.2-4.2v-2.8a4.2,4.2,0,0,1,4.2-4.2h25.2a4.2,4.2,0,0,1,4.2,4.2v2.8A4.2,4.2,0,0,1,336.6,352.533Zm-25.2-8.4a1.4,1.4,0,0,0-1.4,1.4v2.8a1.4,1.4,0,0,0,1.4,1.4h25.2a1.4,1.4,0,0,0,1.4-1.4v-2.8a1.4,1.4,0,0,0-1.4-1.4Zm0,0" transform="translate(-260.982 -285.332)" fill="#384f45"/>
        <path id="Path_665" data-name="Path 665" d="M342.732,400.935a1.4,1.4,0,0,1-1.4-1.4v-5.6a1.4,1.4,0,0,1,2.8,0v5.6A1.4,1.4,0,0,1,342.732,400.935Zm0,0" transform="translate(-289.515 -328.135)" fill="#384f45"/>
        <path id="Path_666" data-name="Path 666" d="M470.732,400.935a1.4,1.4,0,0,1-1.4-1.4v-5.6a1.4,1.4,0,0,1,2.8,0v5.6A1.4,1.4,0,0,1,470.732,400.935Zm0,0" transform="translate(-396.515 -328.135)" fill="#384f45"/>
        <path id="Path_667" data-name="Path 667" d="M334.2,469.2a1.4,1.4,0,0,1-1.4-1.4v-5.6a1.4,1.4,0,0,1,2.8,0v5.6A1.4,1.4,0,0,1,334.2,469.2Zm0,0" transform="translate(-282.384 -385.201)" fill="#384f45"/>
        <path id="Path_668" data-name="Path 668" d="M479.232,469.2a1.4,1.4,0,0,1-1.4-1.4v-5.6a1.4,1.4,0,0,1,2.8,0v5.6A1.4,1.4,0,0,1,479.232,469.2Zm0,0" transform="translate(-403.621 -385.201)" fill="#384f45"/>
        <path id="Path_669" data-name="Path 669" d="M86.466,326.533h-16.8a1.4,1.4,0,0,1-1.4-1.4v-32.2a2.8,2.8,0,0,1,2.8-2.8h14a2.8,2.8,0,0,1,2.8,2.8v32.2A1.4,1.4,0,0,1,86.466,326.533Zm-15.4-2.8h14v-30.8h-14Zm0,0" transform="translate(-61.249 -242.533)" fill="#384f45"/>
        <path id="Path_670" data-name="Path 670" d="M86.466,386.8h-16.8a1.4,1.4,0,1,1,0-2.8h16.8a1.4,1.4,0,1,1,0,2.8Zm0,0" transform="translate(-61.249 -321)" fill="#384f45"/>
        <path id="Path_671" data-name="Path 671" d="M69.668,304.22a1.4,1.4,0,0,1-.99-2.39l11.2-11.2a1.4,1.4,0,0,1,1.98,1.98l-11.2,11.2A1.393,1.393,0,0,1,69.668,304.22Zm0,0" transform="translate(-61.251 -242.62)" fill="#384f45"/>
        <path id="Path_672" data-name="Path 672" d="M103.8,329.821a1.4,1.4,0,0,1-.99-2.39l11.2-11.2a1.4,1.4,0,0,1,1.98,1.98l-11.2,11.2A1.4,1.4,0,0,1,103.8,329.821Zm0,0" transform="translate(-89.784 -264.021)" fill="#384f45"/>
        <path id="Path_673" data-name="Path 673" d="M105.2,420.933h-1.4a1.4,1.4,0,1,1,0-2.8h1.4a1.4,1.4,0,1,1,0,2.8Zm0,0" transform="translate(-89.782 -349.533)" fill="#384f45"/>
        <path id="Path_674" data-name="Path 674" d="M230.132,306.933h-14a2.8,2.8,0,0,1-2.8-2.8v-11.2a2.8,2.8,0,0,1,2.8-2.8h22.4a2.8,2.8,0,0,1,2.8,2.8v7a1.4,1.4,0,0,1-2.8,0v-7h-22.4v11.2h14a1.4,1.4,0,0,1,0,2.8Zm0,0" transform="translate(-182.515 -242.533)" fill="#384f45"/>
        <path id="Path_675" data-name="Path 675" d="M248.868,300.02a1.4,1.4,0,0,1-.99-2.39l7-7a1.4,1.4,0,0,1,1.98,1.98l-7,7A1.4,1.4,0,0,1,248.868,300.02Zm0,0" transform="translate(-211.051 -242.62)" fill="#384f45"/>
        <path id="Path_676" data-name="Path 676" d="M325.668,295.82a1.4,1.4,0,0,1-.99-2.39l2.8-2.8a1.4,1.4,0,0,1,1.98,1.98l-2.8,2.8A1.393,1.393,0,0,1,325.668,295.82Zm0,0" transform="translate(-275.251 -242.62)" fill="#384f45"/>
        <path id="Path_677" data-name="Path 677" d="M174.6,199.069H155a1.4,1.4,0,0,1,0-2.8h19.6a1.4,1.4,0,0,1,0,2.8Zm0,0" transform="translate(-132.584 -164.069)" fill="#384f45"/>
        <path id="Path_678" data-name="Path 678" d="M167.467,102.267h-19.6a2.8,2.8,0,0,1-2.8-2.8v-2.8a2.8,2.8,0,0,1,2.8-2.8h19.6a2.8,2.8,0,0,1,2.8,2.8v2.8A2.8,2.8,0,0,1,167.467,102.267Zm-19.6-5.6v2.8h19.6v-2.8Zm0,0" transform="translate(-125.45 -78.467)" fill="#384f45"/>
        <path id="Path_679" data-name="Path 679" d="M164.942,142.09a1.4,1.4,0,0,1-1.387-1.226l-1.4-11.2a1.4,1.4,0,0,1,2.778-.347l1.4,11.2a1.4,1.4,0,0,1-1.216,1.562A1.329,1.329,0,0,1,164.942,142.09Zm0,0" transform="translate(-139.727 -107.091)" fill="#384f45"/>
        <path id="Path_680" data-name="Path 680" d="M257.4,141.91a1.323,1.323,0,0,1-.175-.011,1.4,1.4,0,0,1-1.216-1.562l1.4-11.2a1.4,1.4,0,1,1,2.778.347l-1.4,11.2A1.4,1.4,0,0,1,257.4,141.91Zm0,0" transform="translate(-218.183 -106.91)" fill="#384f45"/>
        <path id="Path_681" data-name="Path 681" d="M84.918,11.2c-2.54,0-5.292-1.908-7.151-3.508a2.748,2.748,0,0,1,0-4.183C79.626,1.908,82.378,0,84.918,0,89,0,92.2,2.46,92.2,5.6S89,11.2,84.918,11.2Zm0-8.4c-1.294,0-3.234,1.032-5.324,2.83A10.091,10.091,0,0,0,84.918,8.4c2.429,0,4.483-1.282,4.483-2.8S87.347,2.8,84.918,2.8Zm0,0" transform="translate(-68.384)" fill="#384f45"/>
        <path id="Path_682" data-name="Path 682" d="M164.8,39.6a1.4,1.4,0,0,1-1.4-1.4V36.8a8.409,8.409,0,0,0-8.4-8.4,1.4,1.4,0,0,1,0-2.8,11.213,11.213,0,0,1,11.2,11.2v1.4A1.4,1.4,0,0,1,164.8,39.6Zm0,0" transform="translate(-132.584 -21.401)" fill="#384f45"/>
        <path id="Path_683" data-name="Path 683" d="M280.349,11.2c-4.084,0-7.283-2.46-7.283-5.6s3.2-5.6,7.283-5.6c2.54,0,5.291,1.908,7.151,3.508a2.748,2.748,0,0,1,0,4.183C285.64,9.292,282.89,11.2,280.349,11.2Zm0-8.4c-2.43,0-4.483,1.282-4.483,2.8s2.053,2.8,4.483,2.8c1.294,0,3.234-1.031,5.324-2.83A10.1,10.1,0,0,0,280.349,2.8Zm0,0" transform="translate(-232.45)" fill="#384f45"/>
        <path id="Path_684" data-name="Path 684" d="M214.732,39.6a1.4,1.4,0,0,1-1.4-1.4V36.8a11.213,11.213,0,0,1,11.2-11.2,1.4,1.4,0,0,1,0,2.8,8.409,8.409,0,0,0-8.4,8.4v1.4A1.4,1.4,0,0,1,214.732,39.6Zm0,0" transform="translate(-182.515 -21.401)" fill="#384f45"/>
      </g>
    </g>
  </g>
</svg>
