<svg xmlns="http://www.w3.org/2000/svg" width="113.301" height="113.514" viewBox="0 0 113.301 113.514">
  <g id="Group_221" data-name="Group 221" transform="translate(-502 -1490)">
    <path id="Path_701" data-name="Path 701" d="M84.848,36.641C63.257,17.488,37.592-13.08,16.141,6.074s-21.591,72.548,0,91.7S74.846,106.742,96.3,87.587,106.441,55.8,84.848,36.641Z" transform="translate(615.301 1597.872) rotate(177)" fill="#deeee8" opacity="0.77"/>
    <g id="tools" transform="translate(518.699 1502.715)">
      <path id="Path_686" data-name="Path 686" d="M223.972,13.516,190.6,46.363l-4.166,4.122-9.991,9.829-4.152-4.152,9.976-9.829,4.18-4.108L218.1,11.066l1.716-1.7a2.936,2.936,0,0,1,4.152,4.152Zm0,0" transform="translate(-142.67 -7.016)" fill="#88c0a8"/>
      <g id="Group_217" data-name="Group 217" transform="translate(23.962 4.051)">
        <path id="Path_687" data-name="Path 687" d="M219.571,28.335,186.2,61.182,182.03,65.3,175.5,71.715,172.289,68.5l9.976-9.829,4.18-4.108L218.1,23.406a2.81,2.81,0,0,1,1.467.778A2.965,2.965,0,0,1,219.571,28.335Zm0,0" transform="translate(-166.631 -23.406)" fill="#deeee8"/>
        <path id="Path_688" data-name="Path 688" d="M147.678,294.533l-8.3-8.3a5.868,5.868,0,1,1,8.3,8.3Zm0,0" transform="translate(-139.379 -239.627)" fill="#deeee8"/>
        <path id="Path_689" data-name="Path 689" d="M171.123,149.618l-30.069-29.96,4.15-4.15,30.067,29.962Zm0,0" transform="translate(-140.767 -99.674)" fill="#deeee8"/>
        <path id="Path_690" data-name="Path 690" d="M316.461,290.3a5.868,5.868,0,0,1,8.3,0l-8.3,8.3A5.868,5.868,0,0,1,316.461,290.3Zm0,0" transform="translate(-284.594 -242.992)" fill="#deeee8"/>
        <path id="Path_691" data-name="Path 691" d="M339.283,308.082l-5.032,5.032a7.988,7.988,0,0,1-7.8,1.966,9.036,9.036,0,0,1-4.2-2.406L308.842,299.28a2.848,2.848,0,0,1-.146-4.005l12.749-12.748a2.848,2.848,0,0,1,4,.146l13.394,13.409A8.5,8.5,0,0,1,339.283,308.082Zm0,0" transform="translate(-278.964 -237.357)" fill="#deeee8"/>
      </g>
      <path id="Path_692" data-name="Path 692" d="M334.882,313.046l-5.032,5.032a7.585,7.585,0,0,1-3.4,1.966,9.036,9.036,0,0,1-4.2-2.406l-13.409-13.394a2.848,2.848,0,0,1-.146-4.005l12.469-12.469,13.276,13.277A8.5,8.5,0,0,1,334.882,313.046Zm0,0" transform="translate(-255.003 -238.271)" fill="#deeee8"/>
      <path id="Path_693" data-name="Path 693" d="M324.762,306.9l7.95,3.208a2.733,2.733,0,0,0,3.554-3.557l-3.208-7.95Zm0,0" transform="translate(-268.93 -247.237)" fill="#88c0a8"/>
      <path id="Path_694" data-name="Path 694" d="M39.133,26.017a2.934,2.934,0,1,1-4.149-4.149l4.149-4.155,4.15-4.148,4.149-4.151a2.946,2.946,0,0,1,4.15,0,2.96,2.96,0,0,1,0,4.154" transform="translate(-28.266 -7.061)" fill="#deeee8"/>
      <path id="Path_695" data-name="Path 695" d="M139.375,146.265l8.3,8.3a5.83,5.83,0,0,0,1.557-2.844l-5.454-5.454a5.84,5.84,0,0,1,5.68-1.489l-.022-.021,9.976-9.829-15.345-15.283,1.953-1.953-2.2-2.2-4.154,4.154,15.342,15.286-9.976,9.829.022.022A5.839,5.839,0,0,0,139.375,146.265Zm0,0" transform="translate(-115.414 -95.607)" fill="#fff"/>
      <path id="Path_696" data-name="Path 696" d="M38.535,23.938a2.866,2.866,0,0,1,.851-2.074l4.149-4.15,4.15-4.148L51.7,9.554c-.04-.046-.071-.1-.113-.14a2.946,2.946,0,0,0-4.15,0l-4.149,4.151-4.15,4.148-4.149,4.15a2.934,2.934,0,1,0,4.149,4.149l.135-.142A2.86,2.86,0,0,1,38.535,23.938Zm0,0" transform="translate(-28.266 -7.061)" fill="#fff"/>
      <path id="Path_697" data-name="Path 697" d="M76.954,281.837a1.467,1.467,0,0,0,1.037-2.5L48.944,250.286a1.467,1.467,0,0,0-2.074,2.074l29.047,29.047A1.466,1.466,0,0,0,76.954,281.837Zm0,0" transform="translate(-38.471 -206.89)" fill="#384f45"/>
      <path id="Path_698" data-name="Path 698" d="M2.934,274.922a15.106,15.106,0,0,1,1.793-6.4l2.23,2.23A18.822,18.822,0,0,0,4.4,279.323a1.467,1.467,0,1,0,2.934,0,15.115,15.115,0,0,1,1.792-6.4l2.23,2.23A18.831,18.831,0,0,0,8.8,283.724a1.467,1.467,0,0,0,2.934,0,15.1,15.1,0,0,1,1.793-6.4l2.23,2.23a18.83,18.83,0,0,0-2.555,8.573,1.467,1.467,0,1,0,2.934,0,15.115,15.115,0,0,1,1.792-6.4l2.23,2.23a18.831,18.831,0,0,0-2.556,8.573,1.467,1.467,0,1,0,2.934,0,15.113,15.113,0,0,1,1.793-6.4l2.23,2.23a18.839,18.839,0,0,0-2.555,8.574,1.467,1.467,0,0,0,2.934,0,15.106,15.106,0,0,1,1.793-6.4l2.23,2.23a18.822,18.822,0,0,0-2.555,8.573,1.467,1.467,0,1,0,2.934,0,15.115,15.115,0,0,1,1.792-6.4l2.23,2.23a18.831,18.831,0,0,0-2.556,8.574,1.467,1.467,0,0,0,2.934,0,17.2,17.2,0,0,1,2.69-7.989c.028-.044.032-.094.056-.138a1.51,1.51,0,0,0,.111-.273,1.481,1.481,0,0,0,.051-.265,1.44,1.44,0,0,0,0-.285,1.371,1.371,0,0,0-.158-.524,1.392,1.392,0,0,0-.158-.24c-.026-.043-.054-.085-.083-.125L5.441,265.083A1.28,1.28,0,0,0,5.317,265c-.037-.031-.059-.074-.1-.1a1.236,1.236,0,0,0-.134-.054,1.355,1.355,0,0,0-.28-.114,1.439,1.439,0,0,0-.261-.052,1.515,1.515,0,0,0-.281,0,1.361,1.361,0,0,0-.522.156,1.3,1.3,0,0,0-.25.167,1.2,1.2,0,0,0-.12.079,1.2,1.2,0,0,0-.079.12c-.033.038-.077.06-.1.1A19.952,19.952,0,0,0,0,274.922a1.467,1.467,0,0,0,2.934,0Zm0,0" transform="translate(0 -219.145)" fill="#384f45"/>
      <path id="Path_699" data-name="Path 699" d="M92.677,48.332A4.5,4.5,0,0,0,89.662,47,4.06,4.06,0,0,0,86.6,48.184l-1.283,1.283a7.311,7.311,0,0,0-5.149-1.191l-8.956-8.928,32.333-31.82a4.441,4.441,0,0,0-.015-6.227,4.436,4.436,0,0,0-6.21,0L64.984,33.134,51.408,19.608a8.813,8.813,0,0,0-1.706-10L46.4,6.316a4.2,4.2,0,0,0,.432-1.868,4.326,4.326,0,0,0-1.283-3.132,4.52,4.52,0,0,0-6.225,0L26.881,13.765a4.42,4.42,0,0,0,0,6.223,4.364,4.364,0,0,0,5,.847l3.3,3.3A8.8,8.8,0,0,0,45.2,25.855l13.508,13.46-8.378,8.258a6.936,6.936,0,0,0-6.2,2.054,1.467,1.467,0,0,0,0,2.074l8.3,8.3a1.467,1.467,0,0,0,2.074,0,6.924,6.924,0,0,0,2.054-6.191l8.4-8.267,9,8.965a7.319,7.319,0,0,0,1.191,5.145L73.86,60.934a4.307,4.307,0,0,0,.146,6.077l13.4,13.4a10.562,10.562,0,0,0,7.448,3.138,9.3,9.3,0,0,0,6.631-2.694l5.038-5.039a9.285,9.285,0,0,0,2.7-7.006,10.548,10.548,0,0,0-3.138-7.077Zm-7.83,5.754,2.33,5.773a1.266,1.266,0,0,1-1.647,1.647l-5.773-2.328Zm-1.769-2.549L77.21,57.406a4.4,4.4,0,0,1,5.869-5.868ZM99.38,3.393a1.47,1.47,0,0,1,2.093,2.066L69.136,37.28l-2.074-2.066ZM28.963,17.917a1.428,1.428,0,0,1-.428-1.059,1.4,1.4,0,0,1,.421-1.018L41.4,3.392a1.513,1.513,0,0,1,2.076,0,1.429,1.429,0,0,1,.42,1.056,1.406,1.406,0,0,1-.42,1.018L31.028,17.914a1.509,1.509,0,0,1-2.072,0Zm8.3,4.15-3.12-3.111L44.516,8.582,47.628,11.7a5.884,5.884,0,0,1,.734,7.4,5.484,5.484,0,0,1-.734.895l-2.076,2.072a5.659,5.659,0,0,1-.915.748,5.878,5.878,0,0,1-7.382-.748Zm16.02,34.639-5.869-5.868a4.5,4.5,0,0,1,5.01.862,4.408,4.408,0,0,1,.861,5.011Zm2.155-5.925a7.3,7.3,0,0,0-2.07-2.084l7.419-7.308,2.086,2.078ZM66.02,42.46l-.013-.019a.235.235,0,0,1-.022-.015L61.85,38.307l-.011-.019-.021-.013L47.63,24.135l2.071-2.07,14.22,14.168v.011h.01l4.144,4.129v.009h.011l9.041,9.011a7.346,7.346,0,0,0-2.073,2.074Zm38.427,31.277-5.038,5.039a7.053,7.053,0,0,1-9.93-.441l-13.4-13.4A1.377,1.377,0,0,1,75.933,63L77.5,61.432l6.924,2.8a4.2,4.2,0,0,0,5.466-5.466L87.1,51.831l1.58-1.573a1.157,1.157,0,0,1,.827-.326h.051a1.574,1.574,0,0,1,1.049.473l13.4,13.4a7.643,7.643,0,0,1,2.279,5.112A6.383,6.383,0,0,1,104.447,73.737Zm0,0" transform="translate(-21.199)" fill="#384f45"/>
      <path id="Path_700" data-name="Path 700" d="M109.219,77.255a1.467,1.467,0,0,0-2.074,0l-4.4,4.4a1.467,1.467,0,1,0,2.074,2.074l4.4-4.4A1.467,1.467,0,0,0,109.219,77.255Zm0,0" transform="translate(-84.709 -63.591)" fill="#88c0a8"/>
    </g>
  </g>
</svg>
