<svg xmlns="http://www.w3.org/2000/svg" width="116.825" height="96" viewBox="0 0 116.825 96">
  <g id="Group_220" data-name="Group 220" transform="translate(-784 -1504)">
    <path id="Path_702" data-name="Path 702" d="M99.165,2.718c-21.656-7.143-39.54.794-72.739,12.21S-6.5,59.268,15.088,78.421s64.122-.645,81.146-19.78S120.821,9.861,99.165,2.718Z" transform="translate(900.825 1594.114) rotate(177)" fill="#deeee8" opacity="0.77"/>
    <g id="_033---Cutting-Branch" data-name="033---Cutting-Branch" transform="translate(804.827 1504.021)">
      <g id="Layer_3" transform="translate(1.336 1.271)">
        <path id="Shape" d="M51.168,10.054c-.107,0-10.783,5.145-10.076,12.236.293.973.56,1.933.8,2.892s.6,2.239.84,3.345c.293,1.333.52,2.666.746,3.919a87.076,87.076,0,0,1,.48,26.724l-1.333,7.224a59.872,59.872,0,0,1-3.092,9.89,3.319,3.319,0,0,1-3.026,2.039,3.172,3.172,0,0,1-1.333-.267A3.332,3.332,0,0,1,33.4,73.7a57.953,57.953,0,0,0,2.866-9.863L37.6,55.478a81.4,81.4,0,0,0-.333-19.42c-.2-1.479-.466-2.986-.76-4.518-.24-1.226-.493-2.479-.8-3.732a68.329,68.329,0,0,0-2.333-7.851A86.09,86.09,0,0,0,26.95,6,3.332,3.332,0,1,1,32.734,2.7a91.968,91.968,0,0,1,4.878,9.823A31.1,31.1,0,0,1,48.5,3.976a3.332,3.332,0,1,1,2.666,6.078Z" transform="translate(8.808 -0.949)" fill="#88c0a8"/>
        <path id="Shape-2" data-name="Shape" d="M62.7,59.444a27.616,27.616,0,0,1-5.172.28,43.838,43.838,0,0,1-20.753-6.051,55.541,55.541,0,0,1-9.837-6.811,20.7,20.7,0,0,1-2.972-3.505L20.4,37.012a35.508,35.508,0,0,0-3.665-5.918,1.679,1.679,0,0,0,1.333-.906c2.4-4.225,1.773-3.092,1.786-3.106a36.76,36.76,0,0,1,4.145,3.545l5.478,6.384c.813,1.12,1.613,2.319,2.386,3.612a6.771,6.771,0,0,0,2.333,2.386Z" transform="translate(5.566 7.707)" fill="#cfe6dd"/>
        <path id="Shape-3" data-name="Shape" d="M57.529,59.043a43.838,43.838,0,0,1-20.753-6.051,55.541,55.541,0,0,1-9.837-6.811,20.7,20.7,0,0,1-2.972-3.505L20.4,36.331a35.508,35.508,0,0,0-3.665-5.918,1.679,1.679,0,0,0,1.333-.906l.36-.506c.866.693,2.026,1.679,3.306,2.919L27.14,38.33c.813,1.12,1.613,2.319,2.386,3.612A6.771,6.771,0,0,0,31.885,44.3Z" transform="translate(5.566 8.389)" fill="#deeee8"/>
        <path id="Shape-4" data-name="Shape" d="M55.62,17.746l-15.994,9.21q-.28-1.613-.64-3.279a2.178,2.178,0,0,0-.107-.493c-.253-1.146-.533-2.319-.84-3.492a42.518,42.518,0,0,1,11.663-2.2,28.643,28.643,0,0,1,5.918.253Z" transform="translate(12.659 4.541)" fill="#cfe6dd"/>
        <path id="Shape-5" data-name="Shape" d="M49.719,17.48,39.056,23.664a2.178,2.178,0,0,0-.107-.493c-.253-1.146-.533-2.319-.84-3.492a42.518,42.518,0,0,1,11.609-2.2Z" transform="translate(12.683 4.554)" fill="#deeee8"/>
        <path id="Shape-6" data-name="Shape" d="M40.515,29.33l-6.3,3.612A6.558,6.558,0,0,0,31.851,35.3a41.708,41.708,0,0,1-2.4,3.625A48.422,48.422,0,0,1,23.974,45.3a35.521,35.521,0,0,1-4.132,3.639c0-.093-.147-.213-1.8-3.106a1.679,1.679,0,0,0-1.333-.906,37.32,37.32,0,0,0,4-6.664,45.864,45.864,0,0,1,3.212-5.691,20.779,20.779,0,0,1,2.986-3.505A55.061,55.061,0,0,1,36.8,22.28a20.832,20.832,0,0,1,2.093-1.12,78.958,78.958,0,0,1,1.626,8.17Z" transform="translate(5.559 5.779)" fill="#cfe6dd"/>
        <path id="Shape-7" data-name="Shape" d="M39.735,26.278,32.578,30.41a7.451,7.451,0,0,0-2.666,2.666c-.866,1.466-1.8,2.839-2.666,4.119a55.793,55.793,0,0,1-6.224,7.237c-.853.853-1.679,1.573-2.386,2.173l-.533-.92a1.679,1.679,0,0,0-1.333-.906,37.32,37.32,0,0,0,4-6.664,45.864,45.864,0,0,1,3.212-5.691,20.779,20.779,0,0,1,2.986-3.505,55.061,55.061,0,0,1,9.81-6.638,20.831,20.831,0,0,1,2.093-1.12c.347,1.733.64,3.465.866,5.118Z" transform="translate(5.579 5.779)" fill="#deeee8"/>
        <path id="Shape-8" data-name="Shape" d="M19.672,27.329l-2,3.465a2.648,2.648,0,0,1-3.639,1l-12.7-7.357A2.666,2.666,0,0,1,.359,20.8l2-3.465A2.666,2.666,0,0,1,6,16.359L18.659,23.69a2.666,2.666,0,0,1,1.013,3.639Z" transform="translate(-0.002 4.062)" fill="#cfe6dd"/>
        <path id="Shape-9" data-name="Shape" d="M17.007,29.228l-1.333,2.239a2.666,2.666,0,0,1-1.679-.333L1.332,23.8a2.666,2.666,0,0,1-.973-3.639l1.333-2.239a2.666,2.666,0,0,1,1.679.333L15.994,25.59a2.666,2.666,0,0,1,1.013,3.639Z" transform="translate(-0.002 4.695)" fill="#deeee8"/>
        <path id="Shape-10" data-name="Shape" d="M12.52,29.271l4.932,2.892a1.519,1.519,0,0,0,1.986-.773l1.719-2.932a1.533,1.533,0,0,0-.32-2.119L15.826,23.5Z" transform="translate(4.165 6.558)" fill="#cfe6dd"/>
        <path id="Shape-11" data-name="Shape" d="M18.655,49.336,5.993,56.667a2.666,2.666,0,0,1-3.639-.973l-2-3.465a2.239,2.239,0,0,1-.293-.8A2.666,2.666,0,0,1,1.395,48.59l12.7-7.331a2.666,2.666,0,0,1,3.639.973l2,3.465a2.666,2.666,0,0,1-1.08,3.639Z" transform="translate(0.002 12.35)" fill="#cfe6dd"/>
        <path id="Shape-12" data-name="Shape" d="M17.323,46.671,4.62,54a2.666,2.666,0,0,1-3.639-.973l-.92-1.6A2.666,2.666,0,0,1,1.395,48.59l12.7-7.331a2.666,2.666,0,0,1,3.639.973l.92,1.6a2.666,2.666,0,0,1-1.333,2.839Z" transform="translate(0.002 12.35)" fill="#e3f0eb"/>
        <path id="Shape-13" data-name="Shape" d="M15.826,47.7l4.932-2.839a1.533,1.533,0,0,0,.4-2.119L19.491,39.86a1.519,1.519,0,0,0-2.039-.826L12.52,41.873Z" transform="translate(4.165 11.684)" fill="#cfe6dd"/>
        <path id="Shape-14" data-name="Shape" d="M30.431,19.084a11.809,11.809,0,0,1-4.958.227,19.66,19.66,0,0,1-6-1.906c-5.145-2.586-8.517-6.784-8.344-10.143a6.664,6.664,0,0,1,3.132-1.333A16.914,16.914,0,0,1,24.287,7.861c4,2,6.891,4.972,7.917,7.771a2.666,2.666,0,0,1-1.773,3.452Z" transform="translate(3.7 0.671)" fill="#cfe6dd"/>
        <path id="Shape-15" data-name="Shape" d="M26.433,19.055a9.221,9.221,0,0,1-.96.227,19.66,19.66,0,0,1-6-1.906c-5.145-2.586-8.517-6.784-8.344-10.143A6.664,6.664,0,0,1,14.264,5.9a19.993,19.993,0,0,1,6.025,1.933c4,2,6.891,4.972,7.917,7.771a2.666,2.666,0,0,1-1.773,3.452Z" transform="translate(3.7 0.699)" fill="#deeee8"/>
      </g>
      <path id="Shape-16" data-name="Shape" d="M7.37,47.982C5.184,44.2,5.144,44.224,5.077,43.717A2.666,2.666,0,0,1,6.41,40.878l12.7-7.331a2.666,2.666,0,0,1,2.666,0l4.852-2.892a1.213,1.213,0,0,1,1.04,0,1.866,1.866,0,0,0-.373-.08,35.508,35.508,0,0,0,3.665-5.918A37.854,37.854,0,0,0,27.3,18.739a1.866,1.866,0,0,0,.373-.08,1.213,1.213,0,0,1-1.053,0L21.685,15.82a2.666,2.666,0,0,1-2.666,0L6.343,8.436A2.666,2.666,0,0,1,5.37,4.8C7.5,1.092,7.41,1.186,7.783.8L7.01.359a2.666,2.666,0,0,0-3.639.973l-2,3.465a2.666,2.666,0,0,0,.973,3.639l12.7,7.331a2.666,2.666,0,0,0,2.666,0l4.918,2.892a1.213,1.213,0,0,0,1.04,0,1.866,1.866,0,0,1-.373.08,37.853,37.853,0,0,1,3.665,5.918A35.508,35.508,0,0,1,23.3,30.575a1.866,1.866,0,0,1,.373.08,1.213,1.213,0,0,0-1.053,0l-4.932,2.839a2.666,2.666,0,0,0-2.666,0L2.345,40.878a2.666,2.666,0,0,0-1.333,2.839c0,.506.107.48,2.293,4.265a2.666,2.666,0,0,0,3.639.973l.773-.44a2.666,2.666,0,0,1-.347-.533Z" transform="translate(0.322 21.334)" fill="#fff"/>
      <g id="Layer_2" transform="translate(-0.002 -0.021)">
        <path id="Rectangle-path" d="M0,0H2.666V10.663H0Z" transform="matrix(0.5, -0.866, 0.866, 0.5, 1.995, 30.957)" fill="#fff"/>
        <g id="Group_219" data-name="Group 219">
          <path id="Shape-17" data-name="Shape" d="M8.146,25.663A1.333,1.333,0,1,0,6.813,27,1.333,1.333,0,0,0,8.146,25.663Z" transform="translate(0.494 6.794)" fill="#384f45"/>
          <path id="Shape-18" data-name="Shape" d="M33.949,36.128a21.325,21.325,0,0,0-2.293,2.492c-1.04-.96-1.906-1.666-2.506-2.133a3.332,3.332,0,0,0,0-.626,2.546,2.546,0,0,0-1.226-1.839L23.659,31.5a4,4,0,0,0-1.893-2.666L9,21.533A4,4,0,0,0,3.533,23l-2,3.465A4,4,0,0,0,3,31.929,1.337,1.337,0,0,0,4.333,29.61,1.333,1.333,0,0,1,3.84,27.8l2-3.465a1.333,1.333,0,0,1,1.826-.493l12.7,7.331A1.333,1.333,0,0,1,20.847,33l-2,3.465A1.333,1.333,0,0,1,17,36.994L13.53,35A1.337,1.337,0,0,0,12.2,37.314l3.465,1.946a4,4,0,0,0,1.986.533,4.225,4.225,0,0,0,1.226-.213L23.246,42.1a2.213,2.213,0,0,0,.64.253,32.8,32.8,0,0,1,2.866,4.638,33.935,33.935,0,0,1-2.839,4.665,2.253,2.253,0,0,0-.626.24l-4.358,2.519a4,4,0,0,0-3.266.307L3,62.052a4,4,0,0,0-1.466,5.465l2,3.465A4,4,0,0,0,9,72.449l12.7-7.331a4,4,0,0,0,1.893-2.666l4.358-2.519a2.546,2.546,0,0,0,1.226-1.839,3.292,3.292,0,0,0,0-.626c.613-.48,1.479-1.186,2.492-2.119a20.325,20.325,0,0,0,2.253,2.492,57.313,57.313,0,0,0,10.063,6.984l1.906,1.04a58.366,58.366,0,0,1-2.559,8.61,4.652,4.652,0,0,0,2.466,6.1,4.478,4.478,0,0,0,1.853.4,4.625,4.625,0,0,0,4.292-2.852,58.112,58.112,0,0,0,2.826-8.717,42.545,42.545,0,0,0,11.543,1.653,25.925,25.925,0,0,0,4.558-.333,1.3,1.3,0,0,0,.427-2.412l-14.662-8.49A88.1,88.1,0,0,0,56.181,34.5l15.168-8.744a1.295,1.295,0,0,0-.427-2.412,38.52,38.52,0,0,0-16.861,1.573c-.133-.493-.253-.973-.4-1.466-.467-5.985,9.2-10.663,9.33-10.77a4.665,4.665,0,0,0-3.839-8.5,33.828,33.828,0,0,0-10.036,7.144c-1.226-2.666-2.666-5.331-4.079-8a4.653,4.653,0,1,0-8.05,4.665,83.97,83.97,0,0,1,5.691,12,15.648,15.648,0,0,1-2.906-.28c-.493-3.705-4-7.691-9.01-10.223-5.6-2.8-11.449-2.972-14.555-.44a1.333,1.333,0,0,0-.546,1.026c-.16,4,3.492,8.584,9.09,11.383a19.753,19.753,0,0,0,8.637,2.213,9.637,9.637,0,0,0,5.331-1.439,16.967,16.967,0,0,0,3.919.467h.88c.653,1.906,1.226,3.839,1.719,5.771l-1.253.693a57.007,57.007,0,0,0-10.036,6.971Zm-8-17.061c-4.732-2.359-7.291-5.8-7.624-8.264,2.159-1.226,6.451-1.24,11.156,1.12s7.277,5.8,7.584,8.25c-2.119,1.24-6.411,1.253-11.129-1.106Zm.52,17.554L24.806,39.5c-.093.16-.187.227-.187.267l-3.452-1.973,2-3.465,3.372,1.919a.533.533,0,0,1-.08.373Zm.147,4.865a3.106,3.106,0,0,0,.493-.653l1.04-1.786c.546.44,1.226,1.026,2.013,1.759-.693,1.106-1.333,2.226-1.893,3.319-.546-.946-1.106-1.8-1.666-2.639ZM20.381,62.812,7.665,70.143a1.333,1.333,0,0,1-1.826-.493l-2-3.465a1.333,1.333,0,0,1,.493-1.813L17,56.987a1.333,1.333,0,0,1,1.813.48l2,3.465a1.333,1.333,0,0,1-.44,1.879Zm2.772-3.159-2-3.465,3.359-1.959s.16,0,.28.253l1.666,2.879c.093.173.08.32.147.307ZM49.49,77.1a2,2,0,0,1-3.692,0,2.066,2.066,0,0,1,0-1.613A56.526,56.526,0,0,0,48.344,67.1c1.333.586,2.586,1.106,3.839,1.533A59.125,59.125,0,0,1,49.49,77.1Zm16.634-8.73a42.358,42.358,0,0,1-20.766-5.838,54.075,54.075,0,0,1-9.6-6.664,17.927,17.927,0,0,1-2.146-2.4,50.649,50.649,0,0,0,3.692-4.239c.453.666.88,1.333,1.333,2.026a8.3,8.3,0,0,0,2.826,2.826ZM38.974,47.044c.68-.973,1.333-1.959,1.919-2.932a5.185,5.185,0,0,1,1.879-1.879L47.3,39.567a79.679,79.679,0,0,1,.267,15.021l-4.812-2.772a5.331,5.331,0,0,1-1.879-1.879c-.586-.946-1.226-1.986-1.906-2.946ZM66.138,25.718l-10.49,5.945c-.28-1.439-.6-2.866-.946-4.265a40.932,40.932,0,0,1,11.436-1.8ZM39.254,6.658a1.946,1.946,0,0,1-.2-1.493A1.986,1.986,0,0,1,40,3.939a1.946,1.946,0,0,1,1.493-.2,1.986,1.986,0,0,1,1.226.946,89.515,89.515,0,0,1,4.812,9.65,1.336,1.336,0,0,0,2.293.28,29.456,29.456,0,0,1,10.33-8.13,2.013,2.013,0,0,1,2.666,2.532,2.053,2.053,0,0,1-.986,1.093c-.107,0-11.729,5.465-10.916,13.609a.839.839,0,0,0,0,.253c.293.946.546,1.893.786,2.839.613,2.333,1.146,4.745,1.559,7.157a86.143,86.143,0,0,1,.8,24.351l-4-2.253a82.518,82.518,0,0,0-.4-18.847,82.878,82.878,0,0,0-1.586-8.41c-.427-2.146-1.106-4.305-1.759-6.478h.307a1.357,1.357,0,1,0-.506-2.666l-.68.107A89.529,89.529,0,0,0,39.254,6.658Zm6.1,24.791.56-.32c.413,1.826.76,3.679,1.026,5.558L41.453,39.86A7.864,7.864,0,0,0,38.6,42.7c-.693,1.173-1.479,2.359-2.333,3.532a48.1,48.1,0,0,1-5.331,6.2c-1.12,1.093-2.079,1.933-2.8,2.506L27.1,53.149a3.159,3.159,0,0,0-.506-.653,43.278,43.278,0,0,0,3.266-5.611,45,45,0,0,1,3.132-5.531,19.286,19.286,0,0,1,2.786-3.266,53.035,53.035,0,0,1,9.583-6.638Z" transform="translate(-0.998 -0.979)" fill="#384f45"/>
          <circle id="Oval" cx="1.333" cy="1.333" r="1.333" transform="translate(31.472 42.68)" fill="#384f45"/>
        </g>
      </g>
    </g>
  </g>
</svg>
