<svg xmlns="http://www.w3.org/2000/svg" width="116.825" height="98.958" viewBox="0 0 116.825 98.958">
  <g id="Group_214" data-name="Group 214" transform="translate(-499 -1233.034)">
    <path id="Path_631" data-name="Path 631" d="M229.411,393.042c-21.656-7.143-39.54.794-72.739,12.21s-32.929,44.34-11.339,63.494,64.122-.645,81.146-19.78S251.067,400.185,229.411,393.042Z" transform="translate(348.505 862.913) rotate(-3)" fill="#deeee8" opacity="0.77"/>
    <g id="Page-1" transform="translate(512.003 1233.034)">
      <g id="_015---Hedge-Trimming" data-name="015---Hedge-Trimming" transform="translate(-0.002)">
        <path id="Shape" d="M51.455,15.969A5.307,5.307,0,0,1,49.9,19.724l-23.6,23.6a3.98,3.98,0,0,0-.783-1.088L19,35.672l22.557-22.65.809-.809a5.307,5.307,0,0,1,9.062,3.755Z" transform="translate(4.887 3.483)" fill="#cfe6dd"/>
        <path id="Shape-2" data-name="Shape" d="M48.559,12.2a5.307,5.307,0,0,0-5.692-1.1,5.307,5.307,0,0,1,1.765,8.678L23.11,41.163l1.061,1.061a3.981,3.981,0,0,1,.783,1.088l23.6-23.6a5.307,5.307,0,0,0,0-7.51Z" transform="translate(6.23 3.499)" fill="#88c0a8"/>
        <path id="Shape-3" data-name="Shape" d="M30.479,42.726,18.271,54.919a1.327,1.327,0,0,1-1.871,0L4.207,42.726a1.327,1.327,0,0,1,0-1.884L18.271,26.777a1.327,1.327,0,0,1,1.884,0L30.479,37.1a3.942,3.942,0,0,1,0,5.626Z" transform="translate(-0.077 8.624)" fill="#deeee8"/>
        <path id="Shape-4" data-name="Shape" d="M28.416,38.188a3.981,3.981,0,0,0-.783-1.088L17.31,26.777a1.327,1.327,0,0,0-1.884,0l-1.048,1.048,9.288,9.288a3.942,3.942,0,0,1,0,5.626L12.52,53.885l1.048,1.048a1.327,1.327,0,0,0,1.871,0L27.646,42.739a3.981,3.981,0,0,0,.77-4.551Z" transform="translate(2.769 8.624)" fill="#cfe6dd"/>
        <path id="Shape-5" data-name="Shape" d="M69.71,43.075c0,11-6.409,20.129-14.98,22.4a15.989,15.989,0,0,1-7.961.08c-8.731-2.123-15.3-11.385-15.3-22.477a46.772,46.772,0,0,1,.5-6.342L45.827,22.88a5.31,5.31,0,1,0-7.51-7.51l-.809.809C40.931,7.754,45.522,1,50.59,1,61.152,1,69.71,30.39,69.71,43.075Z" transform="translate(8.963 0.327)" fill="#deeee8"/>
        <path id="Shape-6" data-name="Shape" d="M36.816,12.186a5.453,5.453,0,0,1,1.818-1.1,5.307,5.307,0,0,0-1.579-.345c-.332.756-.677,1.526-1,2.322Z" transform="translate(10.463 3.511)" fill="#cad9fc"/>
        <path id="Shape-7" data-name="Shape" d="M46.374,1a6.1,6.1,0,0,0-1.99.345c9.633,3.344,17.13,29.854,17.13,41.73,0,11-6.409,20.129-14.98,22.4a16.811,16.811,0,0,1-2.163.411,14.383,14.383,0,0,0,2,.133,15.922,15.922,0,0,0,4.14-.544c8.572-2.269,14.98-11.4,14.98-22.4C65.494,30.39,56.935,1,46.374,1Z" transform="translate(13.179 0.327)" fill="#cfe6dd"/>
        <path id="Shape-8" data-name="Shape" d="M50.961,49.59v9.832a2.654,2.654,0,0,1-2.654,2.654H45.654A2.654,2.654,0,0,1,43,59.422V49.67A15.989,15.989,0,0,0,50.961,49.59Z" transform="translate(12.732 16.209)" fill="#88c0a8"/>
        <path id="Shape-9" data-name="Shape" d="M46.49,50.134v9.288a2.654,2.654,0,0,1-1.99,2.561,2.759,2.759,0,0,0,.663.093h2.654a2.654,2.654,0,0,0,2.654-2.654V49.59A15.829,15.829,0,0,1,46.49,50.134Z" transform="translate(13.222 16.209)" fill="#577d6c"/>
        <path id="Shape-10" data-name="Shape" d="M22.5,38.823,45.06,16.173c3.768-9.2,7.484-13.64,11.013-14.821-4.631-1.539-9.792,2.07-14.994,14.821L20.46,36.819Z" transform="translate(5.364 0.333)" fill="#fff"/>
        <path id="Shape-11" data-name="Shape" d="M18.271,54.919l1.061-1.048L8.187,42.726a1.327,1.327,0,0,1,0-1.884L21.2,27.825l-1.048-1.048a1.327,1.327,0,0,0-1.884,0l-1.048,1.048L4.207,40.841a1.327,1.327,0,0,0,0,1.884L16.4,54.919a1.327,1.327,0,0,0,1.871,0Z" transform="translate(-0.077 8.624)" fill="#fff"/>
        <path id="Rectangle-path" d="M7.28,51H17.895v2.654H7.28Z" transform="translate(1.056 16.67)" fill="#fff"/>
        <g id="Group_210" data-name="Group 210">
          <path id="Shape-12" data-name="Shape" d="M16.9,45.827a1.327,1.327,0,0,0,0-1.884l-6.634-6.568A1.328,1.328,0,1,0,8.4,39.259l6.634,6.568A1.327,1.327,0,0,0,16.9,45.827Z" transform="translate(1.293 12.09)" fill="#384f45"/>
          <path id="Shape-13" data-name="Shape" d="M17.827,42.977A1.323,1.323,0,1,0,19.7,41.107l-6.568-6.568a1.327,1.327,0,0,0-1.871,1.871Z" transform="translate(2.252 11.185)" fill="#384f45"/>
          <path id="Shape-14" data-name="Shape" d="M25.649,34.827a1.327,1.327,0,0,0,.942-.385l17.82-17.833a1.327,1.327,0,0,0-1.871-1.871L24.707,32.558a1.327,1.327,0,0,0,.942,2.269Z" transform="translate(6.624 4.713)" fill="#384f45"/>
          <path id="Shape-15" data-name="Shape" d="M50.7,0C46.875,0,43.2,3.025,39.75,9.009a1.327,1.327,0,0,0,2.3,1.327c2.03-3.5,5.162-7.683,8.651-7.683,9.2,0,17.793,28.023,17.793,40.748,0,11.942-7.961,21.615-17.793,21.615-7.749,0-14.6-6.024-16.944-14.994a1.328,1.328,0,0,0-2.561.7c2.163,8.12,7.643,14.118,14.357,16.161v8.744a3.981,3.981,0,0,0,3.981,3.981h2.654a3.981,3.981,0,0,0,3.981-3.981V66.768c8.625-2.853,14.98-12.234,14.98-23.366C71.143,30.518,62.506,0,50.7,0Zm2.813,75.631a1.327,1.327,0,0,1-1.327,1.327H49.529A1.327,1.327,0,0,1,48.2,75.631v-8.16a17.249,17.249,0,0,0,2.495.2,17.885,17.885,0,0,0,2.813-.252Z" transform="translate(8.857)" fill="#384f45"/>
          <path id="Shape-16" data-name="Shape" d="M40.981,38.654a1.207,1.207,0,0,1-1.327-1.327,1.327,1.327,0,1,0-2.654,0,3.861,3.861,0,0,0,3.981,3.981,1.327,1.327,0,0,0,0-2.654Z" transform="translate(10.77 11.767)" fill="#384f45"/>
          <path id="Shape-17" data-name="Shape" d="M47.308,32.981a1.327,1.327,0,0,0-1.327-1.327,1.207,1.207,0,0,1-1.327-1.327,1.327,1.327,0,0,0-2.654,0,3.861,3.861,0,0,0,3.981,3.981A1.327,1.327,0,0,0,47.308,32.981Z" transform="translate(12.404 9.479)" fill="#384f45"/>
          <path id="Shape-18" data-name="Shape" d="M47.981,41.307a1.327,1.327,0,0,0,0-2.654,1.207,1.207,0,0,1-1.327-1.327,1.327,1.327,0,1,0-2.654,0,3.861,3.861,0,0,0,3.981,3.981Z" transform="translate(13.058 11.767)" fill="#384f45"/>
          <circle id="Oval" cx="1.327" cy="1.327" r="1.327" transform="translate(12.317 67.67)" fill="#384f45"/>
          <path id="Shape-19" data-name="Shape" d="M5.9,60.816a4.047,4.047,0,0,0-.916,2.548,4.352,4.352,0,0,0,4.352,4.352,1.327,1.327,0,0,0,0-2.654,1.725,1.725,0,0,1-1.7-1.7,1.327,1.327,0,0,1,.305-.849l4.14-4.949,4.3,4.312a2.654,2.654,0,0,0,3.755,0L32.328,49.684a5.307,5.307,0,0,0,1.327-5.108l3.37-3.4,2.813,2.813a1.323,1.323,0,0,0,1.871-1.871L38.9,39.308l2.813-2.813,2.826,2.813a1.328,1.328,0,1,0,1.871-1.884l-2.813-2.76,2.813-2.773L49.219,34.7A1.328,1.328,0,0,0,51.1,32.832l-2.826-2.813L51.1,27.193l2.813,2.826a1.328,1.328,0,1,0,1.871-1.884l-2.813-2.879,2.813-2.813L58.6,25.256a1.328,1.328,0,0,0,1.884-1.871l-2.919-2.919a6.5,6.5,0,0,0,1.1-3.662,6.634,6.634,0,0,0-10.283-5.52L45.464,8.365a1.328,1.328,0,1,0-1.871,1.884l2.813,2.813-2.813,2.906-2.786-2.879a1.328,1.328,0,1,0-1.884,1.871l2.813,2.813L38.923,20.6,36.11,17.773a1.328,1.328,0,1,0-1.871,1.884l2.813,2.813-2.879,2.786L31.4,22.47a1.328,1.328,0,0,0-1.884,1.871l2.813,2.826L29.515,29.98,26.7,27.167a1.323,1.323,0,0,0-1.871,1.871l2.813,2.853-2.76,2.773L22.005,31.89a2.654,2.654,0,0,0-3.755,0l-.239.226L13.089,29.33a5.307,5.307,0,0,0-6.329.889L2.553,34.425a5.307,5.307,0,0,0-.889,6.329L4.411,45.69l-.226.239a2.654,2.654,0,0,0,0,3.755l6.011,6ZM4.437,36.3,8.63,32.1a2.654,2.654,0,0,1,1.884-.783,2.574,2.574,0,0,1,1.327.332l4.286,2.388-9.819,9.7L3.986,39.467A2.654,2.654,0,0,1,4.437,36.3ZM49.219,14.031a3.978,3.978,0,0,1,5.626,5.626l-9.381,9.381-4.657,4.684L32.355,42.16l-5.626-5.626ZM20.134,33.721,30.457,44.044a2.654,2.654,0,0,1,0,3.755L18.25,59.993,6.056,47.813Z" transform="translate(-0.998 2.608)" fill="#384f45"/>
          <path id="Shape-20" data-name="Shape" d="M30.537,58.961A4.657,4.657,0,0,0,27.247,51h-8.28a1.327,1.327,0,1,0,0,2.654H27.22a1.99,1.99,0,0,1,0,3.981H7.981A3.981,3.981,0,0,0,4,61.615a1.327,1.327,0,0,0,2.654,0,1.327,1.327,0,0,1,1.327-1.327H27.22A4.617,4.617,0,0,0,30.537,58.961Z" transform="translate(-0.016 16.67)" fill="#384f45"/>
        </g>
      </g>
    </g>
  </g>
</svg>
