<svg xmlns="http://www.w3.org/2000/svg" width="141.776" height="161.514" viewBox="0 0 141.776 161.514">
  <g id="House" transform="translate(-222.699 -2153.514)">
    <path id="Path_630" data-name="Path 630" d="M186.637,419.117c-21.591-19.154-47.256-49.721-68.707-30.567s-21.591,72.548,0,91.7,58.705,8.966,80.158-10.189S208.23,438.272,186.637,419.117Z" transform="translate(101.032 1830.531) rotate(-3)" fill="#deeee8" opacity="0.77"/>
    <g id="house-2" data-name="house" transform="translate(181.342 2153.513)">
      <g id="Group_233" data-name="Group 233" transform="translate(78.649 1.969)">
        <g id="Group_227" data-name="Group 227" transform="translate(0 0)">
          <g id="Group_224" data-name="Group 224">
            <path id="Path_703" data-name="Path 703" d="M146.926,27.4,129.9,34.717V23.055l2.6-1.5V14.693L116.8,5.631,99.1,15.853v6.861l2.62,1.5v23.7L91.235,53.981l6.541,3.781V95.209l-4.2,2.441-.06.02-2.46,1.42.02.02c-.06.04-.14.06-.2.1l-.28.16-6.061,3.461-.28.16a4.473,4.473,0,0,0-1.86,4.141,11.133,11.133,0,0,0,.56,3.341l12.522,7.221,12.543,7.242,8.8-5.081h.02l18.844,10.882-1.4.8-.38.24a4.541,4.541,0,0,0-1.76,4.081,10.869,10.869,0,0,0,.54,3.321l12.543,7.241,12.542,7.241,8.842-5.121a5.852,5.852,0,0,0,.56-2.68,11.859,11.859,0,0,0-.78-4.041l11.942-6.9V91.368l6.521-3.781ZM112.2,44.939l.02-.02h.04Zm24.7,86.477h.06c.02-.02.06,0,.1.02s.1.04.14.06a1.677,1.677,0,0,0-.3-.08Zm16.763,9.722h.02v.02h.02c.1.1.18.2.28.3Z" transform="translate(-82.366 -5.631)" fill="#deeee8"/>
            <path id="Path_704" data-name="Path 704" d="M158.02,74.325V89.008l-10.482,4.5V68.284h.02l10.082,5.821h.02Z" transform="translate(-128.186 -49.68)" fill="#deeee8"/>
            <path id="Path_705" data-name="Path 705" d="M363.64,294.372v43.549l-11.942,6.9a14.474,14.474,0,0,0-5.761-7.241V297.033l6.541,3.781Z" transform="translate(-267.673 -208.635)" fill="#deeee8"/>
            <path id="Path_706" data-name="Path 706" d="M229.4,329.317V303.829a17.294,17.294,0,0,0-7.854-13.545c-4.344-2.5-7.854-.494-7.854,4.481v27.021l14.38,8.3" transform="translate(-174.696 -205.003)" fill="#deeee8"/>
          </g>
          <g id="Group_225" data-name="Group 225" transform="translate(21.936 64.503)">
            <path id="Path_707" data-name="Path 707" d="M167.466,242.217l-11.224-6.481V222.861l11.224,6.479Z" transform="translate(-156.242 -222.861)" fill="#88c0a8"/>
            <path id="Path_708" data-name="Path 708" d="M297.418,315.2,286.2,308.725V295.848l11.216,6.475Z" transform="translate(-247.612 -274.176)" fill="#88c0a8"/>
          </g>
          <g id="Group_226" data-name="Group 226" transform="translate(18.811 17.424)">
            <path id="Path_709" data-name="Path 709" d="M200.543,64.309V75.971l-.02.02L182.979,86.133l-.06.04h-.06l-.02.02V71.53l2.6,1.5Z" transform="translate(-171.816 -64.309)" fill="#deeee8"/>
            <path id="Path_710" data-name="Path 710" d="M161.186,268.4a1.992,1.992,0,0,1-1-.268l-13.472-7.775a2,2,0,1,1,2-3.465l13.471,7.775a2,2,0,0,1-1,3.733Z" transform="translate(-145.715 -199.521)" fill="#d4e1f4"/>
            <path id="Path_711" data-name="Path 711" d="M291.154,341.393a1.991,1.991,0,0,1-1-.268l-13.469-7.777a2,2,0,0,1,2-3.466l13.47,7.777a2,2,0,0,1-1,3.733Z" transform="translate(-237.093 -250.837)" fill="#d4e1f4"/>
          </g>
        </g>
        <path id="Path_712" data-name="Path 712" d="M322.57,462c0-.017-.017-.017-.034-.017" transform="translate(-251.221 -326.478)" fill="none" stroke="#010101" stroke-linecap="round" stroke-linejoin="round" stroke-width="2"/>
        <g id="Group_232" data-name="Group 232" transform="translate(0.001 0)">
          <path id="Path_713" data-name="Path 713" d="M295.753,139.12l-6.521,3.781-11.162,6.441L257.806,117.2h-.02L240.1,89.15l17.723-10.222Z" transform="translate(-193.265 -57.164)" fill="#88c0a8"/>
          <path id="Path_714" data-name="Path 714" d="M188.172,173.545l-6.541-3.781L118.778,133.5l-6.541-3.781,10.482-4.521,10.482-4.5v-.02l.06-.02h.02l.06-.04,16.863-7.262L167.888,141.4h.02Z" transform="translate(-103.368 -81.367)" fill="#deeee8"/>
          <g id="Group_228" data-name="Group 228" transform="translate(8.869 21.764)">
            <path id="Path_715" data-name="Path 715" d="M122.719,148.048v1.54l-10.482,4.521Z" transform="translate(-112.237 -127.524)" fill="#a4c2f7"/>
            <path id="Path_716" data-name="Path 716" d="M217.9,78.928,200.173,89.15,183.31,96.411l17.543-10.142.02-.02Z" transform="translate(-162.206 -78.928)" fill="#a4c2f7"/>
          </g>
          <g id="Group_229" data-name="Group 229" transform="translate(0 93.179)">
            <path id="Path_717" data-name="Path 717" d="M108.58,342.878a5.915,5.915,0,0,1-.56,2.68l-12.543-7.242L82.955,331.1a11.131,11.131,0,0,1-.56-3.341,4.473,4.473,0,0,1,1.86-4.141l.28-.16a4.778,4.778,0,0,1,4.4.58,4.691,4.691,0,0,1,1.66-4.041l.28-.16c.06-.04.14-.06.2-.1a4.721,4.721,0,0,1,4.4.58,14.392,14.392,0,0,1,6.561,11.182v.1A14.445,14.445,0,0,1,108.58,342.878Z" transform="translate(-82.368 -319.433)" fill="#deeee8"/>
            <path id="Path_718" data-name="Path 718" d="M276.11,439.573a6.3,6.3,0,0,1-.54,2.7l-12.542-7.241-12.543-7.241a10.87,10.87,0,0,1-.54-3.321,4.541,4.541,0,0,1,1.76-4.081l.38-.24a4.833,4.833,0,0,1,4.4.58,4.509,4.509,0,0,1,1.9-4.161l.24-.14a4.735,4.735,0,0,1,4.4.6,14.39,14.39,0,0,1,6.541,11.282A14.352,14.352,0,0,1,276.11,439.573Z" transform="translate(-200.168 -387.423)" fill="#deeee8"/>
          </g>
          <g id="Group_230" data-name="Group 230" transform="translate(2.167 88.053)">
            <path id="Path_719" data-name="Path 719" d="M164,354.306a6.262,6.262,0,0,1-.54,2.68l-.04.02h-.02l-8.8,5.081a5.912,5.912,0,0,0,.56-2.68,14.444,14.444,0,0,0-6.541-11.282v-.1h.02l8.822-5.081V343A14.428,14.428,0,0,1,164,354.306Z" transform="translate(-131.11 -330.838)" fill="#88c0a8"/>
            <path id="Path_720" data-name="Path 720" d="M131.453,314.28l-8.822,5.081h-.02a14.392,14.392,0,0,0-6.561-11.182,4.721,4.721,0,0,0-4.4-.58l-.02-.02,2.46-1.42.06-.02,4.2-2.44,1.84-1.06.3-.18a4.833,4.833,0,0,1,4.421.6A14.42,14.42,0,0,1,131.453,314.28Z" transform="translate(-105.107 -302.173)" fill="#88c0a8"/>
            <path id="Path_721" data-name="Path 721" d="M283.557,411.061l-8.862,5.121a14.39,14.39,0,0,0-6.541-11.282,4.735,4.735,0,0,0-4.4-.6l-.24.14a4.508,4.508,0,0,0-1.9,4.161,6.856,6.856,0,0,0-1.62-.68c-.04-.02-.08-.04-.1-.02a3.9,3.9,0,0,0-2.68.12l1.4-.8,6.881-3.961.66-.36.14-.06,5.961-3.441.1-.08a4.584,4.584,0,0,1,4.661.46A14.391,14.391,0,0,1,283.557,411.061Z" transform="translate(-207.462 -370.169)" fill="#88c0a8"/>
            <path id="Path_722" data-name="Path 722" d="M331.495,451.17a5.851,5.851,0,0,1-.56,2.68l-8.842,5.121a6.3,6.3,0,0,0,.54-2.7,14.473,14.473,0,0,0-4.6-9.8l-.02-.02a10.04,10.04,0,0,0-1.92-1.44l8.862-5.121a14.474,14.474,0,0,1,5.761,7.241A11.866,11.866,0,0,1,331.495,451.17Z" transform="translate(-248.858 -398.995)" fill="#88c0a8"/>
            <path id="Path_723" data-name="Path 723" d="M95.726,321.32a4.692,4.692,0,0,0-1.66,4.041,4.779,4.779,0,0,0-4.4-.58Z" transform="translate(-89.665 -315.635)" fill="#a4c2f7"/>
          </g>
          <path id="Path_724" data-name="Path 724" d="M154.415,49.118v6.862l-2.6-1.5-.36-.22h-.02l-10.082-5.821h-.02v-.02l-2.621-1.5V40.056Z" transform="translate(-121.981 -29.834)" fill="#dceae5"/>
          <g id="Group_231" data-name="Group 231" transform="translate(16.731)">
            <path id="Path_725" data-name="Path 725" d="M172.119,14.693l-5.941,3.441-7.141,4.121-4.621,2.661-15.7-9.062,17.7-10.222Z" transform="translate(-138.712 -5.631)" fill="#88c0a8"/>
            <path id="Path_726" data-name="Path 726" d="M209.3,36.149V43.01l-2.6,1.5-15.1,8.722V46.371l4.621-2.661,7.141-4.121Z" transform="translate(-175.894 -27.087)" fill="#88c0a8"/>
          </g>
        </g>
      </g>
      <g id="Group_234" data-name="Group 234" transform="translate(80.65 1.969)">
        <path id="Path_727" data-name="Path 727" d="M341.7,475.458l.02.02v-.02Z" transform="translate(-266.401 -335.95)" fill="#fff"/>
        <path id="Path_728" data-name="Path 728" d="M341.987,475.738c-.065-.071-.127-.141-.2-.212h-.02l.133.133C341.93,475.686,341.959,475.711,341.987,475.738Z" transform="translate(-266.447 -335.998)" fill="#fff"/>
        <path id="Path_729" data-name="Path 729" d="M92.131,238.562a4.473,4.473,0,0,1,1.86-4.141l.28-.16,6.061-3.461.28-.16c.06-.04.14-.06.2-.1l-.02-.02,2.46-1.42.06-.02,4.2-2.44V189.192l-4-2.312v35.759l-4.2,2.44-.06.02-2.46,1.42.02.02c-.06.04-.14.06-.2.1l-.28.16L90.27,230.26l-.28.16a4.473,4.473,0,0,0-1.86,4.141,11.133,11.133,0,0,0,.56,3.341l3.564,2.055A9.761,9.761,0,0,1,92.131,238.562Z" transform="translate(-88.103 -133.061)" fill="#fff"/>
        <path id="Path_730" data-name="Path 730" d="M202.049,151.436l.06-.02h-.04Z" transform="translate(-168.214 -108.127)" fill="#fff"/>
        <path id="Path_731" data-name="Path 731" d="M128.455,47.919l-10.482,6.061,5.461,3.156,9.022-5.217v-23.7l-2.62-1.5V19.854l17.7-10.222,11.7,6.753V14.693l-15.7-9.062-17.7,10.222v6.862l2.621,1.5v23.7Z" transform="translate(-109.104 -5.631)" fill="#fff"/>
      </g>
      <g id="Group_236" data-name="Group 236" transform="translate(76.657 0.001)">
        <path id="Path_732" data-name="Path 732" d="M128.543,219.627V182.18h4v37.447Z" transform="translate(-113.136 -128.085)" fill="#fff"/>
        <g id="Group_235" data-name="Group 235">
          <path id="Path_733" data-name="Path 733" d="M162.066,223.866l-11.225-6.482a2,2,0,0,0-3,1.733v10.472a1.949,1.949,0,0,0-.856.757,2,2,0,0,0,.733,2.733l6.736,3.887,5.612,3.241.01,0,1.113.643a2,2,0,1,0,2-3.465l-.123-.071V225.6A2,2,0,0,0,162.066,223.866Zm-10.225-1.283,7.224,4.171v8.255l-3.6-2.078-3.624-2.092Z" transform="translate(-125.914 -152.647)" fill="#384f45"/>
          <path id="Path_734" data-name="Path 734" d="M292.024,296.854l-11.217-6.476a2,2,0,0,0-3,1.733v10.47a1.946,1.946,0,0,0-.854.757,2,2,0,0,0,.733,2.733l1.115.644.006,0,11.217,6.476h0l1.127.651a2,2,0,1,0,2-3.465l-.131-.076v-11.72A2,2,0,0,0,292.024,296.854Zm-3,2.887V308l-7.216-4.167v-8.254Z" transform="translate(-217.29 -203.967)" fill="#384f45"/>
          <path id="Path_735" data-name="Path 735" d="M129.783,251.505a1.265,1.265,0,0,0,.36.119,2.913,2.913,0,0,0,.4.04,2.1,2.1,0,0,0,1.42-.58,1.972,1.972,0,0,0-.659-3.26,2,2,0,0,0-2.181,3.261l.3.24A1.531,1.531,0,0,0,129.783,251.505Z" transform="translate(-113.136 -174.124)" fill="#384f45"/>
          <path id="Path_736" data-name="Path 736" d="M182.184,85.63l.025-.011c.061-.038.094-.1.149-.142a2,2,0,0,0,.414-.394c.031-.045.043-.1.07-.144a1.987,1.987,0,0,0,.245-.556c.01-.044,0-.09.009-.135a1.96,1.96,0,0,0,.019-.627c-.009-.055-.041-.106-.054-.161a1.938,1.938,0,0,0-.179-.532c-.011-.019-.03-.029-.041-.047l-.007-.02L144.893,22.669a1.976,1.976,0,0,0-.483-.527c-.02-.015-.046-.019-.066-.034a2.445,2.445,0,0,0-1.307-.353l-.627.142L128.18,28.021V20.558l1.608-.928a1.87,1.87,0,0,0,.173-.152,1.949,1.949,0,0,0,.323-.284,2.689,2.689,0,0,0,.372-.646,1.949,1.949,0,0,0,.085-.42,1.9,1.9,0,0,0,.046-.226V11.034c0-.054-.017-.105-.021-.159s-.013-.119-.024-.181a1.976,1.976,0,0,0-.69-1.19c-.047-.039-.091-.074-.14-.108s-.078-.069-.124-.1L114.078.237a1.866,1.866,0,0,0-.231-.078,1.95,1.95,0,0,0-.394-.133,2.733,2.733,0,0,0-.753,0,1.948,1.948,0,0,0-.388.131,1.869,1.869,0,0,0-.232.078L94.373,10.46a1.969,1.969,0,0,0-.529.466c-.038.046-.072.09-.106.139a1.984,1.984,0,0,0-.3.607l0,.019a2,2,0,0,0-.067.5v6.857a2,2,0,0,0,1,1.733l1.627.94V43.11l-9.478,5.471c-.031.018-.047.048-.076.067a1.977,1.977,0,0,0-.469.413c-.019.024-.043.042-.061.066a1.98,1.98,0,0,0-.306.625c-.013.046-.017.091-.027.137a1.044,1.044,0,0,0-.04.57c0,.054,0,.105.013.159a1.989,1.989,0,0,0,.229.68l0,.014c.028.048.068.083.1.128a1.974,1.974,0,0,0,.221.285l.409.32,5.546,3.2V67.539a2,2,0,1,0,4,0V57.56l8.561,4.94,50.29,29.034v29.437a13.783,13.783,0,0,0-3.54-3.065,6.553,6.553,0,0,0-6.773-.393l-5.837,3.376-.137.066,0,0a3.438,3.438,0,0,0-.689.366l-.087.052-.01,0-2.485,1.434V100.8A19.272,19.272,0,0,0,126.5,85.518a6.728,6.728,0,0,0-10.852,6.214v20.9a16.776,16.776,0,0,0-6.535-11.561,16.56,16.56,0,0,0-7.482-11.889,6.983,6.983,0,0,0-5.563-.868V83.543a2,2,0,0,0-4,0V90.39l-3.155,1.822a4.366,4.366,0,0,0-.543.276l-.172.1h0l-8.524,4.92c-.029.016-.061.024-.09.04a6.526,6.526,0,0,0-2.9,5.927,13.161,13.161,0,0,0,.645,3.919,2,2,0,0,0,.908,1.135l25.077,14.478.007,0a1.991,1.991,0,0,0,.3.123,1.968,1.968,0,0,0,.186.075l.51.067h0a1.99,1.99,0,0,0,.551-.083l.031,0c.022-.007.038-.025.06-.033a1.962,1.962,0,0,0,.356-.147l7.8-4.505,15.087,8.709a6.989,6.989,0,0,0-1.769,4.98,13,13,0,0,0,.639,3.928,2,2,0,0,0,.907,1.127l25.079,14.481.005,0a2,2,0,0,0,.347.143c.047.016.089.043.137.056a1.926,1.926,0,0,0,1.065-.017c.013,0,.026,0,.039-.006s.046-.031.072-.04a1.944,1.944,0,0,0,.334-.138l8.853-5.111.023-.02a1.985,1.985,0,0,0,.491-.434,1.9,1.9,0,0,0,.159-.23c.034-.054.079-.1.108-.157s.046-.154.078-.225a1.918,1.918,0,0,0,.078-.226,8.091,8.091,0,0,0,.617-3.133,12.729,12.729,0,0,0-.435-3.085l10.593-6.122a1.883,1.883,0,0,0,.185-.163,1.949,1.949,0,0,0,.31-.273,1.808,1.808,0,0,0,.458-1.057,1.83,1.83,0,0,0,.048-.24v-42.4l5.532-3.194C182.164,85.652,182.171,85.638,182.184,85.63ZM164.11,91.454,128.3,34.644l14.239-8.215,35.808,56.808ZM99,18.826c-.017-.01-.036-.013-.053-.022l-1.576-.91V15.658l11.708,6.757v2.232c-.032-.018-.065-.035-.1-.05L108,24.028ZM113.079,4.28l11.707,6.754L111.08,18.95,99.375,12.192Zm13.706,12.462-13.7,7.912V22.413l13.7-7.914Zm-2.606,13.172-13.7,7.916V30.016c.031.01.06.028.091.037a2,2,0,0,0,.344.045c.056,0,.11.022.166.022h0a1.991,1.991,0,0,0,1-.268l12.1-6.985v7.047Zm-17.7-2.142V39.967L100,42.758V35.806l.928.536a2,2,0,1,0,2-3.465L100,31.185V24.032Zm-7.74,19.885.08-.034,10.452-4.5h0l.024-.011,15.417-6.642,32.713,51.888-48.7-28.107L91.97,50.573Zm62.72,94.54a4.526,4.526,0,0,1-.2,1.331l-4.74,2.736a16.9,16.9,0,0,0-4.911-9.976l5.211-3.005a12.589,12.589,0,0,1,4.639,8.914Zm-14.731-21.3a2.928,2.928,0,0,1,2.649.473,12.609,12.609,0,0,1,5.458,8.437l-5.214,3.009c-.11-.421-.247-.841-.394-1.259-.017-.048-.028-.1-.045-.144a17.152,17.152,0,0,0-.678-1.595c-.067-.138-.143-.271-.214-.408-.195-.379-.4-.751-.621-1.116-.1-.169-.211-.332-.319-.5-.213-.325-.434-.64-.666-.949-.122-.162-.243-.322-.37-.48-.25-.309-.511-.6-.779-.887-.121-.129-.236-.263-.36-.387a14.229,14.229,0,0,0-1.223-1.1c-.035-.028-.073-.049-.109-.076a12.177,12.177,0,0,0-1.057-.741Zm-25.8-32.471a3.767,3.767,0,0,1,3.575.559,15.339,15.339,0,0,1,6.851,11.811v23.555L119.645,117.6V103.565a1.986,1.986,0,0,0,.908,1.165l1.309.756a2,2,0,0,0,2-3.466l-1.309-.756a2,2,0,0,0-2.733.733,1.934,1.934,0,0,0-.176.523V91.732A3.691,3.691,0,0,1,120.927,88.426Zm-5.282,26.922-.113-.065a9.179,9.179,0,0,0,.113-1.144Zm-3.936-1.861a4.609,4.609,0,0,1-.192,1.318l-4.738,2.735a16.886,16.886,0,0,0-4.958-10.025l5.193-3A12.594,12.594,0,0,1,111.708,113.488ZM99.626,92.648a12.583,12.583,0,0,1,5.439,8.375l-5.223,3.015a16.675,16.675,0,0,0-6.824-9.578L96.9,92.22l.022-.007.048-.032.091-.053a3.064,3.064,0,0,1,2.569.521ZM80.677,103.48a2.863,2.863,0,0,1,.87-2.431l.076-.043a2.931,2.931,0,0,1,2.6.478,2,2,0,0,0,3-1.733,2.815,2.815,0,0,1,.9-2.461,2.886,2.886,0,0,1,2.643.465,12.415,12.415,0,0,1,5.546,9.555,2,2,0,0,0,1,1.733,12.536,12.536,0,0,1,5.528,9.082l-21.9-12.647a8.427,8.427,0,0,1-.26-2Zm49.752,28.715a2.977,2.977,0,0,1,.74-2.346l.279-.157a1.821,1.821,0,0,1,1.093-.065,2.006,2.006,0,0,0,.494.149,5.3,5.3,0,0,1,.939.422,2,2,0,0,0,3-1.733,2.816,2.816,0,0,1,.869-2.43l.1-.064a3,3,0,0,1,2.571.516,12.38,12.38,0,0,1,5.54,9.543,1.8,1.8,0,0,0,.483,1.281c.035.041.06.09.1.129a1.988,1.988,0,0,0,.195.151,1.936,1.936,0,0,0,.221.17,12.564,12.564,0,0,1,5.53,9.082l-21.9-12.647A8.538,8.538,0,0,1,130.429,132.195Zm42.188-2.092-9.066,5.239a16.311,16.311,0,0,0-4.634-5.464V93.844l3.528,2.037.009,0a2.7,2.7,0,0,0,.991.264h0a1.991,1.991,0,0,0,.684-.138c.054-.02.1-.04.157-.065s.107-.036.157-.065l8.172-4.717Z" transform="translate(-76.657 -0.001)" fill="#384f45"/>
        </g>
      </g>
    </g>
  </g>
</svg>
