<svg xmlns="http://www.w3.org/2000/svg" width="192" height="185.5" viewBox="0 0 192 185.5">
  <g id="large-yard" transform="translate(-1008 -2153.514)">
    <path id="Path_804" data-name="Path 804" d="M84.848,71.379C63.257,90.533,37.592,121.1,16.141,101.946s-21.591-72.548,0-91.7S74.846,1.279,96.3,20.434,106.44,52.224,84.848,71.379Z" transform="matrix(-0.974, 0.225, -0.225, -0.974, 1200, 2314.766)" fill="#deeee8" opacity="0.77"/>
    <g id="mansion" transform="translate(988.788 2152.513)">
      <g id="Group_254" data-name="Group 254" transform="translate(21.214 3.017)">
        <path id="Path_773" data-name="Path 773" d="M147.229,65.819V61.571L117.958,26.02l-29.25,1.751v.02l-3.2,1.852L44.178,5.748l-19.266,36.3h.02V53.217l3.241,1.892v46.623L47.62,112.966v7.589l48.8,28.184,6.563-3.8,16.789,9.784,39.4-22.748V89.091l3.241-1.872V76.026ZM42.748,63.645v-.121l.2.1Z" transform="translate(-24.912 -5.748)" fill="#deeee8"/>
        <path id="Path_774" data-name="Path 774" d="M142.158,223.271v57.212L93.36,252.3V195.088l24.4-1.45,11.6,14.092h.02l.02.02Z" transform="translate(-72.906 -137.493)" fill="#deeee8"/>
        <g id="Group_251" data-name="Group 251" transform="translate(18.058 57.595)">
          <path id="Path_775" data-name="Path 775" d="M292.671,319.245l-6.5-3.785v-.02Z" transform="translate(-226.158 -280.493)" fill="#e3e7f2"/>
          <path id="Path_776" data-name="Path 776" d="M89.994,198.489v3l-4.65-2.717Z" transform="translate(-85.344 -198.489)" fill="#e3e7f2"/>
        </g>
        <path id="Path_777" data-name="Path 777" d="M143.143,197.931v9.341l-4.872-5.919-12.763-15.521-.02-.02h-.02l-11.6-14.092-24.4,1.45-4.65.282H84.8l-.2-.1v-9.2l29.271-1.772,26.251,31.888h.02l.02.02Z" transform="translate(-66.765 -115.574)" fill="#90c1ac"/>
        <path id="Path_778" data-name="Path 778" d="M232.763,157.51l-5.194,3.02-14.092,8.113h-.02l-1.631.946-2.98-3.644-.02-.02h-.02l-26.251-31.888h.02l2.919-1.671,18.017-10.408Z" transform="translate(-135.449 -87.232)" fill="#deeee8"/>
        <path id="Path_779" data-name="Path 779" d="M301.446,240.931v9.3l-3.865,2.295-7.267,4.167-.08.04-8.032,4.65h-.02l-1.671.966V253.01l1.631-.946h.02l14.092-8.113Z" transform="translate(-204.132 -170.653)" fill="#90c1ac"/>
        <path id="Path_780" data-name="Path 780" d="M426.309,192.56v4.248l-3.382-2.275Z" transform="translate(-303.992 -136.737)" fill="#e3e7f2"/>
        <g id="Group_252" data-name="Group 252" transform="translate(37.348 20.272)">
          <path id="Path_781" data-name="Path 781" d="M320.119,109.139l-3.382,1.973-1.55-1.067h-.02L271.482,84.781l1.349-.765h.02l18-10.428Z" transform="translate(-235.15 -73.588)" fill="#deeee8"/>
          <path id="Path_782" data-name="Path 782" d="M260.144,73.588l-18,10.428h-.02l-1.349.765-13.085-7.569,3.2-1.852v-.02Z" transform="translate(-204.446 -73.588)" fill="#deeee8"/>
          <path id="Path_783" data-name="Path 783" d="M169.411,350.709,149.9,339.442V305.867l19.515,11.265Z" transform="translate(-149.896 -236.457)" fill="#deeee8"/>
        </g>
        <path id="Path_784" data-name="Path 784" d="M169.41,255.132l-19.515-11.267v-1.913c0-7.185,4.368-10.488,9.757-7.377s9.757,11.458,9.757,18.644v1.913Z" transform="translate(-112.547 -165.376)" fill="#deeee8"/>
        <path id="Path_785" data-name="Path 785" d="M392.644,240.931v11.193L389.4,254l-36.135,20.876V263.679Z" transform="translate(-255.148 -170.653)" fill="#90c1ac"/>
        <path id="Path_786" data-name="Path 786" d="M306.22,300.76v11.193l-3.241-1.892L294.7,305.27l-2.033-1.188-6.5-3.8v-1.812l8.032-4.65Z" transform="translate(-208.1 -207.735)" fill="#deeee8"/>
        <path id="Path_787" data-name="Path 787" d="M362.383,284.653v42.879l-39.4,22.748V303.657l-8.254-4.811,8.274,4.791,3.241,1.892Z" transform="translate(-228.129 -201.31)" fill="#deeee8"/>
        <path id="Path_788" data-name="Path 788" d="M270.77,297.756v48.456l-6.563,3.8V292.8l4.872,5.919,1.671-.966Z" transform="translate(-192.701 -207.026)" fill="#90c1ac"/>
        <path id="Path_789" data-name="Path 789" d="M44.488,138.553l-1.691.987v9.2l-14.575-8.415-3.241-1.892V127.28l8.073,4.671,10.589,6.12Z" transform="translate(-24.96 -90.964)" fill="#deeee8"/>
        <path id="Path_790" data-name="Path 790" d="M134.829,121.958l-18.017,10.408-2.919,1.671h-.02L84.6,135.808l1.691-.987h.04l19.205-11.112h.02Z" transform="translate(-66.765 -87.232)" fill="#deeee8"/>
        <path id="Path_791" data-name="Path 791" d="M142.3,62.477l-19.265,36.3-7.046-4.167L111.1,91.788l7.267-4.167,3.865-2.295v-9.3L92.977,40.474,63.707,42.225h-.02L44.481,53.338h-.04l-.845-.483-15.42-8.938-3.241-1.872h-.02L44.18,5.748l41.329,23.9,13.085,7.569,43.685,25.265Z" transform="translate(-24.913 -5.748)" fill="#90c1ac"/>
        <path id="Path_792" data-name="Path 792" d="M392.644,209.14l-39.376,22.748,19.265-36.3,1.55,1.067,3.382,2.275Z" transform="translate(-255.148 -138.863)" fill="#deeee8"/>
        <g id="Group_253" data-name="Group 253" transform="translate(9.764 60.574)">
          <path id="Path_793" data-name="Path 793" d="M70.593,215.968v22.386l-4.489-2.6-4.026-2.315-4.489-2.6V208.459l4.489,2.6,4.026,2.315Z" transform="translate(-57.588 -208.459)" fill="#deeee8"/>
          <path id="Path_794" data-name="Path 794" d="M286.169,344.476l3.643,2.114,1.993,1.147,2.033,1.168,4.489,2.577v22.386l-4.489-2.577-2.013-1.168-2.013-1.168-3.643-2.094" transform="translate(-217.864 -303.831)" fill="#deeee8"/>
        </g>
      </g>
      <g id="Group_255" data-name="Group 255" transform="translate(23.228 3.017)">
        <path id="Path_795" data-name="Path 795" d="M37.938,104.058V59.136L34.7,57.243V46.07h-.02l19.265-36.3,41.329,23.9,3.2-1.852V31.8l28.572-1.711L123.7,26.02,94.446,27.771v.02l-3.2,1.852L49.916,5.748l-19.265,36.3h.02V53.217l3.241,1.892v46.623Z" transform="translate(-30.651 -5.748)" fill="#fff"/>
        <path id="Path_796" data-name="Path 796" d="M453.455,217.155l11.153,7.5v-1.318l-11.153-7.5Z" transform="translate(-327.112 -153.057)" fill="#fff"/>
        <path id="Path_797" data-name="Path 797" d="M104.014,212.669l-.2-.1v.121Z" transform="translate(-81.951 -150.767)" fill="#fff"/>
        <path id="Path_798" data-name="Path 798" d="M103.123,368.211,99.1,365.886v7.191l4.026,2.325Z" transform="translate(-78.644 -258.269)" fill="#fff"/>
      </g>
      <g id="Group_257" data-name="Group 257" transform="translate(19.212 1.001)">
        <path id="Path_799" data-name="Path 799" d="M42.8,6.476,30.535,29.595l-6.992,13.18-3.557-1.886,6.992-13.182L39.243,4.588Z" transform="translate(-19.755 -3.516)" fill="#fff"/>
        <g id="Group_256" data-name="Group 256">
          <path id="Path_800" data-name="Path 800" d="M192.337,383.652l-1.628-.94A2.013,2.013,0,1,0,188.7,386.2l1.628.94a2.013,2.013,0,0,0,2.013-3.487Z" transform="translate(-137.345 -268.459)" fill="#384f45"/>
          <path id="Path_801" data-name="Path 801" d="M156.936,230.126a8.186,8.186,0,0,0-8.4-.515c-2.784,1.606-4.38,5.119-4.38,9.635v1.913a2.013,2.013,0,0,0,1.006,1.744l19.514,11.267a2.013,2.013,0,0,0,3.02-1.744v-1.913C167.7,242.565,162.971,233.61,156.936,230.126ZM148.186,240v-.751c0-2.994.885-5.292,2.367-6.147a4.465,4.465,0,0,1,4.37.515c4.351,2.51,8.082,9.228,8.67,15.279Z" transform="translate(-106.822 -160.653)" fill="#384f45"/>
          <path id="Path_802" data-name="Path 802" d="M156.649,130.832a1.559,1.559,0,0,0,.524-.584,1.56,1.56,0,0,0,.253-.745,1.864,1.864,0,0,0,.051-.256V87.532l2.245-1.3a2.012,2.012,0,0,0,1.006-1.744V73.3a1.962,1.962,0,0,0-.038-.283c-.007-.052-.009-.1-.02-.152a1.993,1.993,0,0,0-.253-.625c-.024-.038-.054-.069-.081-.105a1.988,1.988,0,0,0-.432-.437c-.026-.019-.039-.048-.066-.066l-14.288-9.619V58.841a1.991,1.991,0,0,0-.58-1.4L115.826,22.013c-.042-.051-.109-.07-.155-.117a1.877,1.877,0,0,0-1.357-.584c-.056,0-.106-.032-.163-.029L84.88,23.038c-.042,0-.075.026-.116.031s-.053.017-.079.021a1.981,1.981,0,0,0-.674.227l-.019.006L81.8,24.587,41.486,1.275a2,2,0,0,0-2.75.733c-.013.023-.012.048-.024.071L38.7,2.073,34.926,9.187a2.013,2.013,0,0,0,3.557,1.887l2.8-5.269L80.79,28.651l.043.025L135.9,60.518,118.543,93.243l-5.22-3.1c-.061-.035-.124-.069-.189-.1l-1.695-.979,4.248-2.446,3.869-2.31a1.9,1.9,0,0,0,.172-.156,1.965,1.965,0,0,0,.309-.28,2.471,2.471,0,0,0,.372-.656,1.955,1.955,0,0,0,.081-.4,1.908,1.908,0,0,0,.047-.232v-9.3a2.008,2.008,0,0,0-.074-.535c-.013-.047-.039-.088-.056-.134a2,2,0,0,0-.269-.506c-.023-.032-.028-.071-.054-.1L90.828,36.461a1.979,1.979,0,0,0-.986-.64c-.031-.009-.06-.02-.091-.028a2.049,2.049,0,0,0-.6-.061L60,37.489a2,2,0,0,0-1.006.269L40.772,48.288,23.911,38.541,30.935,25.3a2.013,2.013,0,0,0-3.557-1.887L19.443,38.372l.01.005a2.009,2.009,0,0,0-.193.582,1.91,1.91,0,0,0-.028.214c0,.048-.019.092-.019.14v11.18a2.012,2.012,0,0,0,1,1.742l2.237,1.293V99.005a2.013,2.013,0,0,0,1.006,1.744L41.907,111.4v6.423a2.014,2.014,0,0,0,1.006,1.744l48.794,28.178.007,0a2,2,0,0,0,.356.147c.044.015.084.04.129.052a2.017,2.017,0,0,0,.347.045c.056,0,.111.022.167.022h0a2.023,2.023,0,0,0,1-.269l0,0,5.548-3.209,15.792,9.2.009,0a1.981,1.981,0,0,0,.343.143c.05.017.1.046.146.059a2.02,2.02,0,0,0,.367.048c.05,0,.1.019.148.019h0a2,2,0,0,0,.685-.137,1.981,1.981,0,0,0,.316-.13h0l39.385-22.74A1.98,1.98,0,0,0,156.649,130.832Zm-3.2-2.749L118.09,148.5V108.838l.228.133.008,0a2.018,2.018,0,0,0,.356.147c.045.015.086.041.131.053a2.013,2.013,0,0,0,.338.044c.059.005.117.023.176.023h0a2,2,0,0,0,1-.269l33.118-19.116v38.227ZM32.987,84.817V67.082l2.479,1.431V86.248Zm6.505-13.979,2.414,1.393V89.966l-2.414-1.393ZM37.179,50.863c-.015.039-.012.085-.024.125a1.976,1.976,0,0,0-.055.286,1.908,1.908,0,0,0-.062.319v5.714l-13.8-7.975V42.806Zm.494,11.519a1.947,1.947,0,0,0,.931.457l3.3,1.921v2.822l-9.926-5.731a2.013,2.013,0,0,0-3.02,1.744V85.978a2.013,2.013,0,0,0,1.006,1.744l11.939,6.893v4.672L26.48,90.393V55.857L37.6,62.282c.028.03.04.071.07.1ZM43.8,58.6l-.025.007-2.711.163V53.488L67.425,51.9,95.571,86.1v3l-1.293-1.572-.008-.015L69.882,57.874a2.032,2.032,0,0,0-.672-.523l-.036-.022a1.944,1.944,0,0,0-.788-.176c-.02,0-.038-.013-.058-.013-.039,0-.08,0-.12,0Zm45-18.266,26.658,32.392-17.4,10.056-2.024-2.459c-.009-.009-.011-.022-.021-.031L96,80.288,71.4,50.388Zm67.9,42.994L121.34,103.742V97.211L156.7,76.788Zm-49.365,8.1,9.976,5.771v6.535l-10.1-5.876-5.489-3.2Zm2.092,20.978v17.729l-2.483-1.431V110.977Zm-6.509,13.978-1.632-.94V107.717l1.632.94Zm-8.194-31.97L96.029,96c.023.028.059.038.083.065a1.982,1.982,0,0,0,.557.433,1.891,1.891,0,0,0,.186.075,2,2,0,0,0,.409.115v44.354l-2.536,1.467V94.417ZM101.29,130.1l9.147,5.272a2.013,2.013,0,0,0,3.02-1.744v-22.38a2.018,2.018,0,0,0-1.009-1.746l-11.159-6.43v-4l1.622.943,11.153,6.5v34.513l-12.775-7.441ZM95.246,31.965l-.344.2L85.984,27,105.9,25.811,95.414,31.879a1.773,1.773,0,0,0-.167.086Zm3.689,2.528,14.867-8.6,26.662,32.4-.234.137-.521-.351c-.015-.01-.033-.01-.048-.02s-.036-.039-.061-.053ZM139.321,62.67l15.6,10.5L124.4,90.793ZM99.6,91.228V86.545l16.915-9.761v4.642ZM60.591,41.484l20.289-1.222-13.14,7.586L47.468,49.069ZM26.48,97.843v-2.8l15.427,8.894v2.815Zm34.1,27.269V96.186l15.488,8.941v28.927Zm19.514,11.27V103.965a2.013,2.013,0,0,0-1.006-1.744L59.569,90.954a2.013,2.013,0,0,0-3.02,1.744v30.091l-10.616-6.13V93.979A2.018,2.018,0,0,0,46,93.49V71.106a2.016,2.016,0,0,0-.065-.489v-8.1l21.491-1.294L90.7,89.522v52.989Zm21.2,4.661v-2.8l12.775,7.441v2.8Z" transform="translate(-19.212 -1.001)" fill="#384f45"/>
          <path id="Path_803" data-name="Path 803" d="M59.413,52.417a2.021,2.021,0,0,0,2.876-2.371l-.153-.355a1.53,1.53,0,0,0-.235-.331,1.278,1.278,0,0,0-.264-.276,2.974,2.974,0,0,0-.336-.224,2.113,2.113,0,0,0-1.536-.154,1.984,1.984,0,0,0-.952,3.209A2.008,2.008,0,0,0,59.413,52.417Z" transform="translate(-46.638 -34.395)" fill="#384f45"/>
        </g>
      </g>
    </g>
  </g>
</svg>
