<svg xmlns="http://www.w3.org/2000/svg" width="113.301" height="120" viewBox="0 0 113.301 120">
  <g id="Group_222" data-name="Group 222" transform="translate(-220.088 -1216)">
    <path id="Path_630" data-name="Path 630" d="M186.637,419.117c-21.591-19.154-47.256-49.721-68.707-30.567s-21.591,72.548,0,91.7,58.705,8.966,80.158-10.189S208.23,438.272,186.637,419.117Z" transform="translate(98.421 851.503) rotate(-3)" fill="#deeee8" opacity="0.77"/>
    <g id="Group_209" data-name="Group 209" transform="translate(-1644.912 -536)">
      <g id="lawn-mower" transform="translate(1865 1752)">
        <g id="Group_206" data-name="Group 206" transform="translate(8.464 30.198)">
          <path id="Path_613" data-name="Path 613" d="M55.143,155.7,53,160l-7.363,14.71a13.207,13.207,0,0,0,5.016,17.218l8.331,5,2.992,1.789a8.75,8.75,0,0,1,5.339-4,9.036,9.036,0,0,1,2.2-.279A8.188,8.188,0,0,1,71,194.57a8.8,8.8,0,0,1,5.309,3.065l.528-.279Z" transform="translate(-44.247 -155.704)" fill="#deeee8"/>
          <g id="Group_203" data-name="Group 203" transform="translate(8.754)">
            <path id="Path_614" data-name="Path 614" d="M119.014,197.356l-.528.279a8.8,8.8,0,0,0-5.309-3.065L95.181,160l2.141-4.3Z" transform="translate(-95.181 -155.703)" fill="#88c0a8"/>
            <path id="Path_628" data-name="Path 628" d="M0,0H20.533V20.533H0Z" transform="translate(28.248 27.001)" fill="#88c0a8"/>
          </g>
          <g id="Group_204" data-name="Group 204" transform="translate(26.735 27.001)">
            <rect id="Rectangle_5" data-name="Rectangle 5" width="16.133" height="20.533" transform="translate(10.267)" fill="#deeee8"/>
            <path id="Path_629" data-name="Path 629" d="M0,0H41.066V11.733H0Z" transform="translate(0 14.667)" fill="#deeee8"/>
          </g>
          <circle id="Ellipse_4" data-name="Ellipse 4" cx="8.8" cy="8.8" r="8.8" transform="translate(60.468 38.734)" fill="#88c0a8"/>
          <circle id="Ellipse_5" data-name="Ellipse 5" cx="2.933" cy="2.933" r="2.933" transform="translate(66.335 44.601)" fill="#fff"/>
          <path id="Path_615" data-name="Path 615" d="M268.867,270.4v4.4a1.471,1.471,0,0,1-1.467,1.467H243.934a1.471,1.471,0,0,1-1.467-1.467V264.535A2.942,2.942,0,0,1,245.4,261.6h14.666A8.807,8.807,0,0,1,268.867,270.4Z" transform="translate(-208.398 -243.401)" fill="#88c0a8"/>
          <path id="Path_616" data-name="Path 616" d="M264.467,270.4v4.4A1.471,1.471,0,0,1,263,276.268H243.934a1.471,1.471,0,0,1-1.467-1.467V264.535A2.942,2.942,0,0,1,245.4,261.6h10.267A8.807,8.807,0,0,1,264.467,270.4Z" transform="translate(-208.398 -243.401)" fill="#deeee8"/>
          <path id="Path_617" data-name="Path 617" d="M157.667,389.865a8.8,8.8,0,0,1-17.6,0,8.611,8.611,0,0,1,1.261-4.517,8.791,8.791,0,0,1,16.338,4.517Z" transform="translate(-123.598 -342.33)" fill="#88c0a8"/>
          <g id="Group_205" data-name="Group 205" transform="translate(0 0)">
            <circle id="Ellipse_6" data-name="Ellipse 6" cx="2.933" cy="2.933" r="2.933" transform="translate(22.335 44.601)" fill="#fff"/>
            <path id="Path_618" data-name="Path 618" d="M203.868,382.17c-.014,0-.027.011-.041.015.2-.052.4-.085.608-.123C204.246,382.1,204.053,382.124,203.868,382.17Z" transform="translate(-176.399 -343.157)" fill="#fff"/>
            <path id="Path_619" data-name="Path 619" d="M249.8,261.6h-4.4a2.942,2.942,0,0,0-2.933,2.933V274.8a1.471,1.471,0,0,0,1.467,1.467H245.4v8.8h4.4v-8.8h-1.466a1.471,1.471,0,0,1-1.467-1.467V264.535A2.942,2.942,0,0,1,249.8,261.6Z" transform="translate(-208.397 -243.401)" fill="#fff"/>
            <path id="Path_620" data-name="Path 620" d="M225.087,381.807l0-.006c-.022,0-.044,0-.066-.006Z" transform="translate(-193.948 -342.936)" fill="#fff"/>
            <path id="Path_621" data-name="Path 621" d="M63.385,196.932l-8.331-5a13.207,13.207,0,0,1-5.016-17.218l7.353-14.69L55.143,155.7,53,160l-7.363,14.71a13.207,13.207,0,0,0,5.016,17.218l8.331,5,2.992,1.789Z" transform="translate(-44.247 -155.704)" fill="#fff"/>
          </g>
        </g>
        <g id="Group_208" data-name="Group 208" transform="translate(0 0)">
          <path id="Path_622" data-name="Path 622" d="M20.633,4.593,29.44,21.5,57.3,74.992l-2.6,1.355L26.838,22.859,18.031,5.948Z" transform="translate(-14.932 -3.804)" fill="#fff"/>
          <g id="Group_207" data-name="Group 207">
            <path id="Path_623" data-name="Path 623" d="M50.447,60.61l-.276-.055a1.106,1.106,0,0,0-.3,0,.93.93,0,0,0-.275.045,2.142,2.142,0,0,0-.273.109,1.54,1.54,0,0,0-.727.858,1.446,1.446,0,0,0,1.533,1.9,1.467,1.467,0,0,0,.314-2.859Z" transform="translate(-40.184 -50.142)" fill="#384f45"/>
            <path id="Path_624" data-name="Path 624" d="M175.067,426.669a4.4,4.4,0,1,0,4.4,4.4A4.4,4.4,0,0,0,175.067,426.669Zm0,5.867a1.467,1.467,0,1,1,1.467-1.467A1.466,1.466,0,0,1,175.067,432.536Z" transform="translate(-141.334 -353.336)" fill="#384f45"/>
            <path id="Path_625" data-name="Path 625" d="M111.566,142.637a10.228,10.228,0,0,0-7.171,2.933h-3.1V139.7a2.936,2.936,0,0,0,2.933-2.933v-4.4A10.278,10.278,0,0,0,93.966,122.1h-4.4v-4.24a4.372,4.372,0,0,1,1.9.877,1.466,1.466,0,1,0,2.074-2.074,8.742,8.742,0,0,0-10.874,0,1.456,1.456,0,0,0-.008,2.048,1.478,1.478,0,0,0,2.065.043,4.354,4.354,0,0,1,1.913-.893v4.24H79.3a4.4,4.4,0,0,0-4.4,4.4v10.266a2.936,2.936,0,0,0,2.933,2.933v5.867H75.79l-28.126-54a1.467,1.467,0,1,0-2.6,1.355l6.486,12.454-9.165,18.34a14.734,14.734,0,0,0,5.572,19.131L58.1,148.939a10.259,10.259,0,0,0,16.64,11.3h29.657a10.263,10.263,0,1,0,7.171-17.6ZM79.3,148.5h23a10.137,10.137,0,0,0,0,8.8H76.828a10.137,10.137,0,0,0,0-8.8Zm-1.467-22a1.469,1.469,0,0,1,1.467-1.467H93.966a7.342,7.342,0,0,1,7.333,7.333l0,4.4H77.833Zm2.933,13.2h17.6v5.867h-17.6Zm-31.3.631a11.787,11.787,0,0,1-4.457-15.3l8.215-16.438,18.109,34.77a10.217,10.217,0,0,0-11.721,3.063ZM60.233,152.9a7.333,7.333,0,1,1,7.333,7.333A7.333,7.333,0,0,1,60.233,152.9Zm51.333,7.333A7.333,7.333,0,1,1,118.9,152.9,7.333,7.333,0,0,1,111.566,160.237Z" transform="translate(-33.833 -75.171)" fill="#384f45"/>
            <path id="Path_626" data-name="Path 626" d="M431.067,426.669a4.4,4.4,0,1,0,4.4,4.4A4.4,4.4,0,0,0,431.067,426.669Zm0,5.867a1.467,1.467,0,1,1,1.467-1.467A1.466,1.466,0,0,1,431.067,432.536Z" transform="translate(-353.334 -353.336)" fill="#384f45"/>
            <path id="Path_627" data-name="Path 627" d="M1.467,2.935H3.51l2.3,4.414a1.467,1.467,0,1,0,2.6-1.355L5.7.791,5.685.8A1.452,1.452,0,0,0,4.4,0H1.467a1.467,1.467,0,0,0,0,2.933Z" transform="translate(0 -0.002)" fill="#384f45"/>
          </g>
        </g>
      </g>
    </g>
  </g>
</svg>
