<svg xmlns="http://www.w3.org/2000/svg" xmlns:xlink="http://www.w3.org/1999/xlink" width="570" height="510.178" viewBox="0 0 570 510.178">
  <defs>
    <linearGradient id="linear-gradient" x1="0.661" y1="0.096" x2="0.292" y2="0.763" gradientUnits="objectBoundingBox">
      <stop offset="0.024" stop-color="#febb0a"/>
      <stop offset="0.995" stop-color="#e68200"/>
    </linearGradient>
  </defs>
  <g id="Group_1867" data-name="Group 1867" transform="translate(-699.999 -202.971)">
    <path id="Path_6396" data-name="Path 6396" d="M580.786,576.271a5.225,5.225,0,0,0,.156,2.684c-3.224-5.232-6.485-10.5-9.709-15.728,1.748,4.474,3.5,8.949,5.2,13.421,1.632,4.131,3.183,8.949.622,12.7a8.4,8.4,0,0,1-4.506-3.406c-.078,1.445.466,19.1-.66,19l-4.312-.415c-.66,1.309-1.32,2.651-1.98,3.993a38.448,38.448,0,0,1-6.525-7.366c-.348,6.92-.66,13.838-1.008,20.755a16.738,16.738,0,0,0-5.943-1.583,4.051,4.051,0,0,1-1.476,3.166,4.272,4.272,0,0,1-2.6-2.858,17.717,17.717,0,0,1-2.68,11.461,5.063,5.063,0,0,1-2.562-2.2c0,1.24,0,2.512.038,3.785a14.282,14.282,0,0,1-2.758-10.7q-4.836,12.082-9.591,24.126c.272-1.066-1.67-1.135-2.874-.927a8.29,8.29,0,0,1-6.331-1.516,14.8,14.8,0,0,1-6.641,10.155c-1.048-.861-2.136-1.721-3.221-2.582q-1.575,2.424-3.146,4.851a12.72,12.72,0,0,1-2.992-8.019,66.218,66.218,0,0,0-7.921,17.795c-.272,1.032-.506,2.031-.738,3.063a6.979,6.979,0,0,1-5.941-2.443c-.234,1.616-.428,3.235-.662,4.887-2.562,0-4.931-1.893-5.163-4.131-1.476,3.855-3.768,8.572-8.7,9.809-3.108.792-13.32-1.17-12.079-5.678a20.192,20.192,0,0,1-4.971,8.672,13.3,13.3,0,0,1-3.534-5.4,7.11,7.11,0,0,1-3.612,4.679,19.675,19.675,0,0,0-12.31,8.57l-3.377-3.2c-.66-.62-4.2,4.405-4.428,4.851a74.543,74.543,0,0,0-5.475-5.266c-.272,3.27-2.214,5.783-3.768,8.639-.582-1.2-2.486-1.273-3.768-.689-2.214,1.068-5.319,4.853-7.5,1.342a6.027,6.027,0,0,1-.544-3.785,7.95,7.95,0,0,0-.348-3.819c-4.04,3.544-6.137,8.362-8.155,13.044a37.892,37.892,0,0,0-8.117-10.429,12.692,12.692,0,0,1,.426,4.543,6.575,6.575,0,0,1-.97,3.406,3.391,3.391,0,0,1-3.38,1.411c-1.32-.31-2.1-1.859-1.242-2.787a28.292,28.292,0,0,1-5.2,5.266,1.673,1.673,0,0,1-.66.31,1.472,1.472,0,0,1-.66-.207,14.775,14.775,0,0,1-6.719-7.607,37.628,37.628,0,0,1-1.592,5.783c-.66,1.48-1.788,2.684-2.292,4.3-1.864-2.753-3.727-5.542-5.631-8.3a15.192,15.192,0,0,1-5.631,8.777c-1.592-2.169-5.513-2.548-7.611-.758a3.247,3.247,0,0,0-1.592-3.373,22.452,22.452,0,0,0-7.145,4.577c-.894-2-1.826-3.991-2.72-5.952a26.194,26.194,0,0,1-3.649,7.64,64.158,64.158,0,0,1-8.661-11.737,18.2,18.2,0,0,0-6.1,12.6,16.947,16.947,0,0,1-12.736-4.992c-.194,1.171-.388,2.374-.622,3.58a10.388,10.388,0,0,1-2.718-6.2,16.059,16.059,0,0,0-3.146,7.607c-1.476-1.79-2.952-3.58-4.39-5.37-1.942,2.238-3.884,4.474-5.825,6.746a50.265,50.265,0,0,0-6.6-8.329c-.582,1.688-3.534,1.721-4.931.482-1.36-1.273-1.592-3.2-1.788-4.92-2.949,3.337-5.9,6.71-8.853,10.083a21.739,21.739,0,0,1-9.593-5.678c0,1.309-1.708,2.1-3.146,1.823a7.235,7.235,0,0,1-3.455-2.169,6.356,6.356,0,0,1-2.448,4.474c-2.562-2.236-5.163-4.474-7.727-6.677a3.681,3.681,0,0,1-3.146,3,29.535,29.535,0,0,0,.078-8.467,48.02,48.02,0,0,0-9.9,8.708c0-2.136-.04-4.269-.078-6.4a8.444,8.444,0,0,0-5.009,6.815,134.081,134.081,0,0,1-20.39-9.156c-.854,1.688-1.746,3.373-2.6,5.094-.814-1.375-3.3-1.2-4.428-.033-1.164,1.135-1.358,2.787-1.514,4.3-.582-3-1.126-5.99-1.708-8.949-.078-.551-.312-1.206-.894-1.344a.255.255,0,0,0-.156.036,21.171,21.171,0,0,1,4.04-9.776q-8.972,7.126-17.942,14.181c-1.476-2.305-4.931-4.922-6.951-2.925-2.8-2.479-5.631-4.956-8.427-7.435a12,12,0,0,1-1.01,6.4,75.932,75.932,0,0,1-10.019-3.03c-3.186-1.2-6.253-2.236-7.923-4.336-.62-.791-4.5-9.947-4.156-10.532-1.746,2.72-3.493,5.4-5.2,8.088-1.088-.689-2.174-1.411-3.262-2.1-.388.586-.816,1.2-1.2,1.79-1.632-.517-1.476-2.548-1.4-4.062s-1.2-3.578-2.72-2.891q.759-3.043,1.516-6.091a71.842,71.842,0,0,0-20.506,1.17l-9.319-10.946c-.894-1.066-2.06-2.2-3.536-2.167-2.33.069-3.765,3.028-6.019,2.651a15.358,15.358,0,0,1-2.486-5.13c-.738.62-1.514,1.24-2.29,1.859a37.082,37.082,0,0,1,1.32-20.753c-6.563,2.133-11.885,7.056-13.98,12.975-.5-3.511-4.118-6.436-8.117-6.644a68.729,68.729,0,0,0-5.009-11.254c-.97,2.238-1.942,4.474-2.874,6.71A20.961,20.961,0,0,1,52.6,627.243a3.588,3.588,0,0,0-1.36,2.27,12.68,12.68,0,0,1-.466-14.765,42.454,42.454,0,0,1-9.863,3.237c-.35-1.48-.7-2.961-1.01-4.441a4.141,4.141,0,0,1-2.836,2.169,87.027,87.027,0,0,1-1.088-14.524,34.412,34.412,0,0,1-8.543,4.922,140.049,140.049,0,0,1-.544-19.344c-2.524,12.183-7.5,1.17-8.893-4.336a77.6,77.6,0,0,1-1.98-26.569A217.964,217.964,0,0,1,20.833,526.4l1.358.033c-.854,5.645-1.436,11.323-1.786,16.968.506-2.374,3.068-12.152,3.574-14.526.156,1.824.49,3.163.644,4.954.118-2.769.321-.776.854-5.241a3.616,3.616,0,0,1-.334-2.154,3.561,3.561,0,0,1,.778-1.788c.194-1.516.348-3.03.5-4.543.194-1.549.35-3.1.506-4.646a15.483,15.483,0,0,0,2.408,4.646,13.376,13.376,0,0,0,1.63,1.962c.04-.655.04-1.309.04-1.962,0-.482.038-1,.038-1.48,1.67.515,3.34,1,4.971,1.514a88.841,88.841,0,0,0-3.806-12.012,9.029,9.029,0,0,0,4.271,4.82c.622-1.721,1.242-3.409,1.864-5.13a21.356,21.356,0,0,0,2.292,3.89,141.285,141.285,0,0,1,8.039-30.183c-.506,6.608-1.05,13.285-1.554,19.926a25.217,25.217,0,0,1,.894-4.129,3.762,3.762,0,0,0,1.786,3.2,106.945,106.945,0,0,0,4.931-13.628c-.582,1.48,1.67,2.961,3.3,2.272a2.888,2.888,0,0,0,1.2-4.1,13.865,13.865,0,0,0,5.2,3.132c1.36-9.156,5.747-17.692,10.1-26.09A40.218,40.218,0,0,0,77.8,480.523a27.577,27.577,0,0,1,2.8-7.881c.388.825.776,1.685,1.164,2.513a64.43,64.43,0,0,0,3.846-7.573,7.248,7.248,0,0,0,2.408,3.58,1.763,1.763,0,0,0,1.126.446c.738-.067,1.01-.86,1.088-1.48l1.514-8.982a10.829,10.829,0,0,0,3.727,5.921,83.983,83.983,0,0,0,1.282-16.522,43.666,43.666,0,0,0,7.961,13.08,25.786,25.786,0,0,1,.738-7.5,16.832,16.832,0,0,1,3.38,3.511c.814-1.928,1.67-3.855,2.524-5.783a13.866,13.866,0,0,0,2.68,3.785c-.7-.687,1.748-2.305,2.176-2.856a5.3,5.3,0,0,0,1.086-4.853,17.318,17.318,0,0,0,5.669,4.82,5.982,5.982,0,0,0,.118-2.753,5.356,5.356,0,0,0,3.727,3.027,33.071,33.071,0,0,1,6.717-17.277,27.179,27.179,0,0,0,.856,13.423c.776-2.891,1.67-5.714,2.718-8.536a11.371,11.371,0,0,0,2.33,4.82,89.231,89.231,0,0,0,4.7-8.81,8.631,8.631,0,0,0,2.214,5.4,15.252,15.252,0,0,0,2.058-3.888c.894,1.616,1.788,3.271,2.68,4.922.272.482.7,1.066,1.32.963a1.192,1.192,0,0,0,.816-.93,12.915,12.915,0,0,0-.66-10.772,59.679,59.679,0,0,0,7.923,6.539,4.413,4.413,0,0,0,.426-2.615c1.71-.62,2.564,3.063,4.2,2.374a1.787,1.787,0,0,0,.738-.722,79.391,79.391,0,0,0,6.213-11.049c1.436-3.132,3.262-6.815,6.989-7.5a40.328,40.328,0,0,0-5.707,16.279,12.929,12.929,0,0,1,2.524-5.2c.038,2.272.038,4.543.078,6.779,1.476-2.374,2.99-4.748,4.465-7.125.194,1.137,1.166,2.617,2.292,2.067a1.831,1.831,0,0,0,.7-.689c.66-.963,1.36-1.928,2.06-2.891a6.253,6.253,0,0,0,1.358,2.582,2.871,2.871,0,0,0,2.914.791c1.786-.689,1.476-3.1,2.68-4.474a14.032,14.032,0,0,0,4.621,4.543c-1.71-3.132-1.322-7.158-2.642-10.257a77.185,77.185,0,0,0,9.475,9.845c.04-4.131,6.369-6.3,7.069-10.36a16.392,16.392,0,0,1,1.476,5.2c2.214-.31,3.418-2.374,4.737-3.993s3.921-3.027,5.631-1.754c.892-1,1.748-2,2.64-2.994,2.642,2.512,1.942,6.2,4.505,8.982.816-2.374,1.632-4.784,2.446-7.192a6.613,6.613,0,0,0,.506-3.649c1.9,2.169,3.843,4.336,5.785,6.539a5.425,5.425,0,0,0,.66-2.305,7.72,7.72,0,0,0,3.07,3.752,54.541,54.541,0,0,0,4.387-10.429,18.5,18.5,0,0,0,1.242,7.917c-.892-2.307,5.243-3.373,6.369-6.334a10.2,10.2,0,0,0,.272,1.032c1.438,4.131,6.019,7.676,7.185,12.114a27.411,27.411,0,0,1-.7-10.944c.544,1.48,1.166,2.925,1.826,4.372a1.415,1.415,0,0,0,.66.791c.7.274,1.36-.412,1.67-1.032a12.458,12.458,0,0,0,1.32-6.334,29.58,29.58,0,0,0,4.468,8.879,4.007,4.007,0,0,0,.932-2.651c.078.655,1.242.174,1.63-.412a50.04,50.04,0,0,0,5.284-11.976,28.375,28.375,0,0,0,2.446,15.556c.078-1.757.116-3.511.194-5.3,1.166,1.137,2.37,2.238,3.574,3.373a27.084,27.084,0,0,0,1.708-7.4,11.53,11.53,0,0,0,4,5.783,1.672,1.672,0,0,0,1.088.446c.622-.1.854-.756.972-1.306.232-1.1.426-2.169.66-3.27,2.1,2.961,4.234,5.919,6.369,8.879,1.474-3.888,5.2-8.777,4.077-13.077a55.387,55.387,0,0,0,4.969,9.773,45.686,45.686,0,0,0,6.991-7.4c.232.241,3.921,3.1,4.077,2.512a7.231,7.231,0,0,0,.194-3.409,42.637,42.637,0,0,0,3.921,8.708c.04-1.17.04-2.374.078-3.578a10.826,10.826,0,0,0,3.455,3.957,24.119,24.119,0,0,0-1.474-11.461c4.231,4.233,8.427,8.431,12.658,12.631-2.524-2.546,2.254-10.222,3.69-12.527-.582,4.336.894,8.362,1.67,12.629a32.266,32.266,0,0,0,4.893-10.014c-.194,2.787,2.486,5.471,5.631,5.645a5.65,5.65,0,0,0-.116-3.993c1.748,2.718,3.455,5.471,5.2,8.191a15.178,15.178,0,0,1,5.437-9.878,6.423,6.423,0,0,0-.428,3.719c.816.482,1.826-.276,2.408-.965,1.242-1.514,2.524-2.994,3.805-4.508a53,53,0,0,0,.116,11.633c1.2-1.514,2.37-3.03,3.536-4.543.582,1.342,1.126,2.684,1.67,4.026a1.459,1.459,0,0,0,.7.861c.622.241,1.244-.274,1.67-.756,1.594-1.754,3.146-3.476,4.737-5.232a68.618,68.618,0,0,1,5.087,10.877,25.433,25.433,0,0,1,9.631-7.709,37.022,37.022,0,0,1-.194,9.5,21.744,21.744,0,0,1,5.475-7.02c.156,2.789.35,5.576.506,8.4,3.533-2.548,4.659-7.5,8.971-8.81,1.67,1,.894,3.3-.116,4.818-1.01,1.549-2.02,3.649-.584,4.887a13.53,13.53,0,0,0,9.631-8.224,15.648,15.648,0,0,0-.388,5.988,11.342,11.342,0,0,0,2.33,5.335l2.214-2.272c0,.689,3.806,3.647,4.04,4.37,1.98-2.546,3.962-5.092,5.981-7.6,1.746-2.272,2.29,3.924,2.29,3.75a35.84,35.84,0,0,0,1.36,8.055,12.743,12.743,0,0,0,5.475-8.157,31.92,31.92,0,0,0,3.612,3.785q.468-.876.932-1.754c-.816,1.583,2.952,8.982,5.243,8.019.7-.31,2.174-3.27,2.524-3.924a8.5,8.5,0,0,0,1.05-5.471,74,74,0,0,0,4.543,15.623,23.632,23.632,0,0,1,6.717-10.634,29.993,29.993,0,0,0-1.164,4.508c2.524-2.718,5.047-5.471,7.571-8.191-1.474,3.855-2.949,7.745-4.387,11.6-1.088,2.822-2.136,5.85-1.2,8.708a31.441,31.441,0,0,1,7.379-8.915,17.628,17.628,0,0,1-1.516,7.158,34.274,34.274,0,0,0,6.991-6.4,30.245,30.245,0,0,0-3.5,11.6,21.677,21.677,0,0,0,8.621-7.228c.078-.136.194-.31.272-.446a28.974,28.974,0,0,0,5.087,13.423c.116-1.721.194-3.409.312-5.13a85.056,85.056,0,0,0,1.942,9.776A37.338,37.338,0,0,1,503,464.828a1.638,1.638,0,0,1-.39,2.031,31.887,31.887,0,0,1,9.127-4.922,99.83,99.83,0,0,0-8.855,15.144q1.983-2.789,3.962-5.576c.078,1.859.156,3.716.272,5.576.038.689.194,1.583.932,1.79a2.163,2.163,0,0,0,1.826-.62c1.67-1.309,3.378-2.651,5.087-3.957-.078,2.374-.156,4.749-.234,7.158a5.669,5.669,0,0,1,2.486-3.511c-.194,1.48-.35,2.925-.5,4.405a20.422,20.422,0,0,0,6.019-10.944,26.71,26.71,0,0,0,2.874,14.627c.194-.963.388-1.893.582-2.856.66,2.339,1.282,4.715,1.942,7.054,4.312-6.641,12.232-11.356,20.815-12.355a61.81,61.81,0,0,0-10.835,14.593,13.082,13.082,0,0,1,1.592-1.893q.465,2.22.932,4.439a15.954,15.954,0,0,1,4.778-6.126,46.776,46.776,0,0,0,.892,7.332,13.385,13.385,0,0,0,4.662-4.51,51.278,51.278,0,0,0,.776,14.8,26.194,26.194,0,0,1,12.545-10.6,82.333,82.333,0,0,0-5.165,14.591l3.961-3.614a27.278,27.278,0,0,1-.272,6.4,46.592,46.592,0,0,0,6.369-4.784c-.778.791.348,2.134,1.514,2.1a4.806,4.806,0,0,0,2.99-1.516,4.88,4.88,0,0,1,2.952-1.478c-2.136.377-3.768,14.35-4.387,16.691a.449.449,0,0,1,.5-.033.8.8,0,0,1,.156.722c-.506,2.822-.972,5.645-1.476,8.467a117.479,117.479,0,0,0,8.349-10.946c-.854,5.886-4.931,11.359-4.309,17.278a10.307,10.307,0,0,0,1.63-3.476c-.078,4.474,0,8.949.156,13.387,1.2,0,1.942-1.1,2.408-2.064,2.02-3.924,4-7.881,5.979-11.838a74,74,0,0,1-3.843,18.274c-.078.207-.234.448-.466.448-.388,3.785-.738,7.537-1.126,11.289.7-1.585,1.436-3.168,2.174-4.784C581.833,566.117,581.29,571.177,580.786,576.271Z" transform="translate(684.36 4.306)" fill="#deeee8"/>
    <g id="Group_1866" data-name="Group 1866" transform="translate(414.46 -127.454)">
      <path id="Path_6620" data-name="Path 6620" d="M476.658,500.011c-1.971-1.42-4.109-2.709-5.893-4.273-4.5-3.955-8.978-7.945-13.469-11.917-2.744-2.428-5.615-4.927-9.14-5.938-2.252-.644-4.69-.652-6.813-1.64-1.921-.895-3.4-2.5-5.135-3.717-2.787-1.941-6.156-2.8-9.405-3.788a103.247,103.247,0,0,1-17.315-7.033c-.718-.372-1.514-.864-1.625-1.663-.184-1.337,1.559-2,2.9-2.135a144.542,144.542,0,0,1,15.8-.455q14.051.114,28.1.222a99.557,99.557,0,0,1,12.124.591,53.084,53.084,0,0,1,23.579,8.774c4.531,3.138,8.791,6.858,13.972,8.746,3.03,1.1,6.3,1.549,9.206,2.959,6.914,3.361,10.358,11.417,16.837,15.549a4.572,4.572,0,0,1,1.865,1.67c.864,1.827-1.205,3.621-3,4.554-10.409,5.418-22.21,7.439-32.436,12.829-10.361,5.458-11.7-5.163-17.153-10.81A22.474,22.474,0,0,0,476.658,500.011Z" transform="translate(186.765 193.933)" fill="#b4d6c9"/>
      <path id="Path_6621" data-name="Path 6621" d="M604.772,464.178c-18.978-10.967-47.633-12.938-70.275-5.964-.05-.025-.1-.025-.126-.051-8.314-2.022-16.223.682-23.88,3.588-1.289.48-2.6.986-3.892,1.466-1.188.455-2.35.884-3.512,1.39-5.585,2.426-9.855,6.974-15.313,9.577-6.545,3.159-14.631,4.6-21.833,4.827-4.675.152-9.779,2.527-14.353,1.238a79.066,79.066,0,0,0-11.877-2.4c-.126-.025-.253-.025-.379-.051-3.26-.4-6.848-.859-10.588-1.339a98.337,98.337,0,0,0-13.039-8.238.093.093,0,0,1-.076-.025,105.342,105.342,0,0,0-13.6-6.115c-20.292-7.556-42-9.653-62.441-10.79-17.967-1.011-36.035-1.339-54.052-1.289V460.11c17.84-.05,35.757.278,53.5,1.263,6.216.354,12.559.783,18.927,1.466h.025c12.1,1.263,24.284,3.31,35.908,7.1h.025c.986.328,1.946.657,2.931,1.011-.278-.076-.556-.152-.783-.2a109.153,109.153,0,0,0-21.227-2.224,169.054,169.054,0,0,0-69.593,10.588c-6.52,2.476-13.772,5.913-17.941,12.534a23.573,23.573,0,0,0-1.769,3.462v32.9a31.289,31.289,0,0,0,1.567,3.361c7.556,13.873,23.248,19.407,37.576,23,2.3.581,4.6,1.112,6.9,1.643,11.548,2.653,23.3,4.751,35.024,6.267a201.629,201.629,0,0,0,25.977,1.9c14.48,0,29.793-2.148,43.691-9.223,9.2-4.675,15.516-10.639,18.775-17.714,6.039-13.191.581-27.216-3.235-34.417a73.024,73.024,0,0,0-9.375-13.62c-.227-.278-.48-.581-.783-.91a229.524,229.524,0,0,0,28.883,1.264c9.35-.1,18.978-1.213,27.241-5.863a60.752,60.752,0,0,0,7.505-5.155c-6.419,11.877-1.567,25.295,14.631,34.645,23.273,13.443,61.153,13.368,84.6-.151C627.944,499.48,628.071,477.622,604.772,464.178ZM292.843,511.129v-.076c.051-1.617.177-3.336.379-5.1.354-2.754.96-6.242,2.628-8.9,2.552-4.043,7.606-6.418,12.736-8.389.05,0,.05-.025.076-.025a77.2,77.2,0,0,0-6.722,6.469c-5.433,5.913-8.061,11.371-9.1,16.122,0,.051-.025.076-.025.126A.7.7,0,0,1,292.843,511.129Zm128.5-.227c-3.74,19.306-34.038,25.8-43.236,27.342-37.02,6.166-67.318-3.664-74.192-16.3-3.159-5.837-1.339-12.584,5.458-19.988C326.73,483,353.515,478.633,372.8,478.633c.708,0,1.415,0,2.1.025,2.552.152,5.1.379,7.657.657,13.444,1.516,23.526,5.989,31.739,14.05C417.549,496.6,422.83,503.169,421.339,510.9Zm21.555-3.361c2.35,4.473,7.353,15.895,2.957,25.472-2.274,4.953-7.05,9.325-14.151,12.938-20.266,10.285-44.727,8.769-63.781,6.292-4.574-.581-9.173-1.263-13.721-2.047a144.09,144.09,0,0,0,25.573-2c13.873-2.3,46.648-10.361,51.5-35.378a24.631,24.631,0,0,0,.278-7.455,28.837,28.837,0,0,0-4.928-12.913,41.323,41.323,0,0,0-5.256-6.292l-.607-.606c.809.126,1.617.227,2.426.329.505.1,1.036.152,1.541.227l.025.025c.152.126.329.253.48.4q1.289,1.023,2.5,2.123c1.592,1.39,3.083,2.83,4.5,4.321A64.258,64.258,0,0,1,442.894,507.541Z" transform="translate(0 182.582)" fill="#b4d6c9"/>
      <g id="Group_1861" data-name="Group 1861" transform="translate(285.54 330.426)">
        <path id="Path_6622" data-name="Path 6622" d="M435.134,486.974a6.814,6.814,0,0,1-.579,2.451c-.488.948-1.966,1.488-2.911,1.807a14.108,14.108,0,0,1-6.934.533,28.162,28.162,0,0,1-4.349-1.413,24.013,24.013,0,0,1-7.879-4.607,20.754,20.754,0,0,1-2.075-2.246c-.473-.579-1.127-1.031-1.577-1.648-.5-.69-.713-2.022-1.529-2.436-.69-.349-1.953.033-2.744-.154a15.933,15.933,0,0,1-5.64-3.131c-1.594-1.2-3.31-2.464-3.371-4.533-.04-1.425.033-2.873.033-4.3a2.945,2.945,0,0,1-.116-1.594c.124-.414,1.751-9.524,2.054-9.833,1.135-1.16.791,6.489,2.421,6.237.915-.144,1.832-.225,2.757-.278,2.378-.129,4.766-.091,7.144-.023,1.281.038,2.568.134,3.849.152a10.5,10.5,0,0,1,2.469-.046c1.963.546,3.46,3.517,4.556,5.049,2.605,3.631,5.779,6.3,9.15,9.153A16.03,16.03,0,0,1,434.7,482.5,11.777,11.777,0,0,1,435.134,486.974Z" transform="translate(-117.797 -139.063)" fill="#37310e"/>
        <path id="Path_6623" data-name="Path 6623" d="M403.593,488.969a13.533,13.533,0,0,1-7.54-2.441q-1.05-.781-2.1-1.559c-1.2-.889-2.479-1.771-3.6-2.785-1.686-1.526-3.9-2.956-4.938-5.041a17.2,17.2,0,0,1-1.041-2.9c-.323.164-.649.326-.975.49-.061.03-.147.058-.19,0s.1-.111.078-.046c-1.183-.965-3.333-2.11-3.922-3.543-2.249-5.453.652-10.575,2.684-15.463.43-1.036.877-2.067,1.359-3.08l17.219,4.043a9.751,9.751,0,0,1,.642,2.13c.447,1.5.847,3.012,1.408,4.47a27.055,27.055,0,0,0,3.5,6.825c1.971,2.575,5.2,4.682,6.239,7.861a4.526,4.526,0,0,1,.147,1.408c-.007,1.8.576,4.41-.543,5.911A10.105,10.105,0,0,1,403.593,488.969Z" transform="translate(-143.507 -143.865)" fill="#37310e"/>
        <path id="Path_6624" data-name="Path 6624" d="M423.24,399.558s8,74.2,6.858,84.295-5.274,40.515-6.277,51.957-.47,16.094-.862,16.938-10.74,3.985-16.9,2.1A12.347,12.347,0,0,1,398.213,547s2.474-36.113,1.761-44.194-5.84-41.144-5.57-52.67-4.245-44.975,3.063-49.332S423.24,399.558,423.24,399.558Z" transform="translate(-121.037 -226.508)" fill="#3c474c"/>
        <path id="Path_6625" data-name="Path 6625" d="M421.98,402.079s-3.452,15.276-1.885,26.2a87.151,87.151,0,0,1-1.006,30.164c-1.271,5.8-8.395,32.7-8.973,38.738s-7.336,47.125-7.677,50.138-10.323,4.927-13.635,4.554-7.51-2.38-8.943-5.9.806-55.414,2.186-61.014c2.785-11.308-.988-27.109-1.893-46.908-.558-12.246-4.008-25.894,1.4-38.246S421.98,402.079,421.98,402.079Z" transform="translate(-143.508 -232.053)" fill="#6a7b83"/>
        <path id="Path_6626" data-name="Path 6626" d="M396.534,364.788l8.877,13.79c2.914,4.523,4.566,9.1,6.623,14.04q2.32,5.576,4.667,11.134,4.7,11.14,9.428,22.27c2.176,5.153,11.6,1.4,15.129-.265,1.392-.657,3.257-1.471,3.753-3.025,1.031-3.227-.963-6.828-1.774-9.883a113.962,113.962,0,0,0-3.839-11.811c-1.3-3.351-2.691-6.661-4.078-9.977-.715-1.711-1.433-3.421-2.133-5.14-.531-1.306-1.926-3.482-1.926-4.882a87.014,87.014,0,0,0-3.975-9.645,67.343,67.343,0,0,0-5.784-8.716c-2.871-3.874-7.682-7.609-12.509-8.6a13.513,13.513,0,0,0-5.883.147c-1.425.331-3.123.182-4.427.925a6.627,6.627,0,0,0-3.715,5.86A7.778,7.778,0,0,0,396.534,364.788Z" transform="translate(-118.444 -294.697)" fill="#587f6e"/>
        <g id="Group_1859" data-name="Group 1859" transform="translate(0 10.003)">
          <path id="Path_6627" data-name="Path 6627" d="M375.851,374.425c6.762-3.609,9.446-4.637,16.352-7.962,4.223-2.034,8.152-4.3,12.238-6.51,5.544-3,11.92-4.106,18.025-5.372,3.255-.675,5.314-1.478,8.546-.435a44.348,44.348,0,0,1,9.595,4.46,12.211,12.211,0,0,1,2.881,2.267c.682.781,1.18,1.7,1.817,2.517,1.069,1.377,2.7,2.176,3.7,3.518,1.4,1.9,2.158,5.008,2.886,7.235,2.408,7.366,2.79,15.819,3.972,23.483.538,3.49,1.031,7.268-.644,10.376-.955,1.774-2.519,3.123-3.806,4.675-7.063,8.513-5.928,23.076-3.432,33.108,2.56,10.272,4.953,15.685,5.062,17.631S437.317,482.8,417,481.9s-27.728-3.255-31.365-5.719-2.3-24.7-3.5-30.367.644-27.147-3.1-33.5S373.809,378.193,375.851,374.425Z" transform="translate(-149.043 -304.975)" fill="#88c0a8"/>
          <path id="Path_6628" data-name="Path 6628" d="M377.759,417.294c1.342-2.709,6.669-.571,9.1-1.784,3.457-1.721,5.989-5.653,7.758-8.956a21.466,21.466,0,0,0,2.6-6.651c.268-1.706.149-3.452.359-5.165a6.559,6.559,0,0,1,2.2-4.536c2.047-1.552,5.006-.47,7.429-1.352s4.725-2.206,7.222-2.86c4.907-1.281,9.709-2.924,14.5-4.566q3.476-1.186,6.949-2.375a28.958,28.958,0,0,0,5.178-2.156c2.823-1.635,4.523-4.233,6.924-6.285a8.526,8.526,0,0,1,3.434,4.632c.523,2.057-.376,4.5-.293,6.633.129,3.331-1.509,6.573-1.6,9.913-.023.887-.068,1.774-.1,2.661q-.269,6.865-.541,13.729l-1.178,29.909-.061,1.534s.177,13.421-16.721,18.321c-8.243,2.391-17.221,2.421-25.7,1.554-6.674-.685-13.85-1.809-19.743-5.2a22.251,22.251,0,0,0-2.176-.975,6.97,6.97,0,0,1-1.228-.665c-1.825-1.281-2.044-3.626-2.191-5.658-.389-5.4-.945-10.785-1.5-16.17q-.4-3.9-.806-7.8C377.387,421.16,376.877,419.075,377.759,417.294Z" transform="translate(-145.49 -279.072)" fill="#3c474c"/>
          <path id="Path_6629" data-name="Path 6629" d="M388.637,394.411c28.345-1.928,33.48-8.372,39.946-14.181l.659,26.291c-6.4,6.345-12.675,12.486-39.823,14.485Z" transform="translate(-128.114 -264.379)" fill="#6a7b83"/>
          <g id="Group_1856" data-name="Group 1856" transform="translate(154.479 175.283)">
            <g id="Group_1855" data-name="Group 1855">
              <path id="Path_6630" data-name="Path 6630" d="M357.758,554.419a63.06,63.06,0,0,1-11.086-1.3l2.671-9.9c9.466,1.84,16.865.821,22.619-3.111,12.913-8.824,17.034-31.474,21.4-55.452,2.934-16.125,5.966-32.8,12.044-46.216l.217-.483c11.346-25.073,21.348-40.035,81.414-32.06l-1.36,10.242c-55.507-7.374-61.2,5.218-70.644,26.078l-.217.48c-5.552,12.263-8.47,28.3-11.29,43.808-4.761,26.162-9.259,50.873-25.732,62.131A34.707,34.707,0,0,1,357.758,554.419Z" transform="translate(-346.672 -403.749)" fill="#febb0a"/>
            </g>
          </g>
          <g id="Group_1857" data-name="Group 1857" transform="translate(0 286.591)">
            <path id="Path_6631" data-name="Path 6631" d="M293.222,492.721c.354-2.754.96-6.242,2.628-8.895,2.552-4.043,7.606-6.419,12.736-8.39.05,0,.05-.025.076-.025a77.18,77.18,0,0,0-6.722,6.469c-5.484,5.964-8.112,11.472-9.122,16.248C292.868,496.411,292.995,494.591,293.222,492.721Zm128.117,4.953c-3.74,19.306-34.038,25.8-43.236,27.342-37.02,6.166-67.318-3.664-74.192-16.3-3.159-5.837-1.339-12.584,5.458-19.988C326.73,469.776,353.515,465.4,372.8,465.4c.708,0,1.415,0,2.1.025,2.552.152,5.1.379,7.657.657,13.444,1.516,23.526,5.989,31.739,14.05C417.549,483.372,422.83,489.942,421.339,497.674Zm18.346-29.667c-.051-1.137-.2-2.274-.354-3.437-3.26-.4-6.848-.859-10.588-1.339,0,0-.2-.051-.606-.126-.379-.076-.96-.2-1.668-.354-.531-.1-1.137-.227-1.845-.379-.531-.1-1.112-.227-1.718-.354a2.011,2.011,0,0,1-.329-.076c-.4-.076-.834-.152-1.263-.253-1.718-.354-3.614-.733-5.61-1.137a.093.093,0,0,1-.076-.025c-1.011-.2-2.047-.4-3.083-.606-.985-.2-1.971-.379-2.931-.581-.3-.076-.581-.126-.884-.177q-1.213-.227-2.35-.455c-.354-.076-.708-.152-1.061-.2q-1.668-.341-3.184-.606c0-.025-.025-.025-.051,0-.455-.1-.884-.177-1.314-.253-.859-.177-1.643-.3-2.375-.43-.278-.051-.556-.1-.809-.126-2.527-.455-4.018-.632-3.689-.379h.025c.986.328,1.946.657,2.931,1.011-.278-.076-.556-.152-.783-.2a109.153,109.153,0,0,0-21.227-2.224c-3.133-.2-6.292-.278-9.426-.278q-3.715,0-7.429.152h-.025c-1.137.05-2.249.1-3.361.177-.986.051-1.946.126-2.906.2-1.491.1-2.957.253-4.422.4-.884.076-1.744.177-2.6.278s-1.718.227-2.578.328c-1.238.177-2.5.354-3.74.556-1.087.177-2.173.354-3.26.556-.227.025-.48.076-.733.126-1.188.2-2.35.43-3.512.682-1.263.253-2.5.505-3.74.809-1.188.278-2.375.556-3.588.859-1.263.328-2.527.657-3.79,1.011-.935.253-1.87.505-2.78.783-.708.2-1.44.43-2.148.657-3.209.986-6.393,2.1-9.552,3.285-6.52,2.476-13.772,5.913-17.941,12.534a23.567,23.567,0,0,0-1.769,3.462v32.9c.2.531.43,1.036.657,1.541q.417.91.91,1.82c7.556,13.873,23.248,19.407,37.576,23,2.3.581,4.6,1.112,6.9,1.643,6.444-1.541,13.924-3.487,22.616-5.812a144.09,144.09,0,0,0,25.573-2c13.873-2.3,46.648-10.361,51.5-35.378a16.322,16.322,0,0,0,.278-1.9,26.568,26.568,0,0,0-3.816-16.7c-.354-.607-.708-1.188-1.112-1.769a41.314,41.314,0,0,0-5.256-6.292l-.607-.607c1.314.2,2.653.379,3.967.556l.025.025a74.959,74.959,0,0,1,7.48,6.848,6.811,6.811,0,0,0,1.036-.152,8.028,8.028,0,0,0,1.668-.48,1.182,1.182,0,0,0,.253-.126,4.965,4.965,0,0,0,.632-.329,4.577,4.577,0,0,0,.682-.455,6.331,6.331,0,0,0,1.162-1.162,4.759,4.759,0,0,0,.4-.581,9.06,9.06,0,0,0,1.213-2.906l.152-.682c.1-.581.177-1.162.227-1.769.025-.3.051-.632.051-.935A20.857,20.857,0,0,0,439.685,468.008Z" transform="translate(-285.54 -436.769)" fill="url(#linear-gradient)"/>
            <path id="Path_6632" data-name="Path 6632" d="M427.228,518.233c-3.26,7.075-9.577,13.039-18.775,17.714-13.9,7.075-29.212,9.223-43.691,9.223a201.606,201.606,0,0,1-25.977-1.9c-11.725-1.516-23.476-3.613-35.024-6.267,6.444-1.541,13.924-3.487,22.616-5.812,4.549.783,9.148,1.466,13.721,2.047,19.053,2.476,43.514,3.992,63.781-6.292,7.1-3.614,11.877-7.985,14.151-12.938,4.4-9.577-.607-21-2.957-25.472a64.261,64.261,0,0,0-10.664-14.555c7.4-.657,8.187-7.96,7.1-15.187,8.541,1.036,14.783,1.693,14.934,1.718l-1.036,10.057c-.531-.076-5.079-.531-11.573-1.289.3.328.556.632.783.91a73.029,73.029,0,0,1,9.375,13.62C427.809,491.018,433.267,505.042,427.228,518.233Z" transform="translate(-257.719 -430.997)" fill="#febb0a"/>
            <path id="Path_6633" data-name="Path 6633" d="M428.743,474.259S422.729,473,415.7,471.581c-10.259-2.072-22.667-4.5-21.808-3.841-17.739-5.787-36.793-7.53-54.861-8.566-17.739-.986-35.655-1.314-53.5-1.263V447.8c18.017-.051,36.085.278,54.052,1.289,20.443,1.137,42.15,3.234,62.441,10.79A105.849,105.849,0,0,1,428.743,474.259Z" transform="translate(-285.54 -447.797)" fill="#febb0a"/>
          </g>
          <path id="Path_6634" data-name="Path 6634" d="M439.71,470.181c0,.3-.025.632-.051.935-.05.606-.126,1.188-.227,1.769l-.152.682a9.06,9.06,0,0,1-1.213,2.906,4.759,4.759,0,0,1-.4.581,6.331,6.331,0,0,1-1.162,1.162,4.577,4.577,0,0,1-.682.455,4.965,4.965,0,0,1-.632.329,1.182,1.182,0,0,1-.253.126,8.028,8.028,0,0,1-1.668.48,6.811,6.811,0,0,1-1.036.152,74.959,74.959,0,0,0-7.48-6.848l-.025-.025c-1.314-.177-2.653-.354-3.967-.556l.607.607a41.314,41.314,0,0,1,5.256,6.292c-.455-.1-.91-.227-1.39-.354-.657-.177-1.339-.4-2.047-.657a74.959,74.959,0,0,1-12.458-5.888c-44.626-25.5-101.963,3.032-101.963,3.032a.078.078,0,0,0-.051.025c-.025,0-.025,0-.051.025-.025,0-.025.025-.076.025-5.13,1.971-10.184,4.346-12.736,8.39-1.668,2.653-2.274,6.141-2.628,8.895-.227,1.87-.354,3.689-.4,5.408a24.3,24.3,0,0,0,.025,5.256v.177c3.336,30.5,61.355,33.407,61.355,33.407-8.693,2.325-16.173,4.271-22.616,5.812-2.3-.531-4.6-1.061-6.9-1.643-14.328-3.588-30.02-9.122-37.576-23q-.493-.91-.91-1.82c-.227-.505-.455-1.011-.657-1.541v-32.9a23.567,23.567,0,0,1,1.769-3.462c4.17-6.621,11.422-10.057,17.941-12.534,3.159-1.188,6.343-2.3,9.552-3.285.708-.228,1.44-.455,2.148-.657.91-.278,1.845-.531,2.78-.783,1.263-.354,2.527-.682,3.79-1.011,1.213-.3,2.4-.581,3.588-.859,1.238-.3,2.476-.556,3.74-.809,1.162-.253,2.325-.48,3.512-.682.253-.05.505-.1.733-.126,1.087-.2,2.173-.379,3.26-.556,1.238-.2,2.5-.379,3.74-.556.859-.1,1.718-.227,2.578-.328s1.718-.2,2.6-.278c1.466-.152,2.931-.3,4.422-.4.96-.076,1.921-.152,2.906-.2,1.112-.076,2.224-.126,3.361-.177h.025q3.715-.152,7.429-.152c3.134,0,6.292.1,9.426.278a109.153,109.153,0,0,1,21.227,2.224c.227.05.505.126.783.2-.986-.354-1.946-.682-2.931-1.011H393.9c-.329-.253,1.162-.076,3.689.379.253.025.531.076.809.126.733.126,1.516.253,2.375.43.43.076.859.152,1.314.253.025-.025.051-.025.051,0q1.516.265,3.184.606c.354.051.708.126,1.061.2q1.137.228,2.35.455c.3.05.581.1.884.177.96.2,1.946.379,2.931.581,1.036.2,2.072.4,3.083.606a.093.093,0,0,0,.076.025c2,.4,3.892.783,5.61,1.137.43.1.859.177,1.263.253a2.011,2.011,0,0,0,.329.076c.607.126,1.188.253,1.718.354.708.152,1.314.278,1.845.379.708.152,1.289.278,1.668.354.4.076.606.126.606.126,3.74.48,7.328.935,10.588,1.339.152,1.162.3,2.3.354,3.437A20.857,20.857,0,0,1,439.71,470.181Z" transform="translate(-285.54 -150.179)" fill="#febb0a"/>
          <path id="Path_6635" data-name="Path 6635" d="M410.8,384.93c.685,2.368,1.584,4.559,1.66,7.088.169,5.658,2.456,11.255,1.966,16.91a4.421,4.421,0,0,1-.361,1.587c-.743,1.511-10.78,4.008-10.808,3.677-.755-9.284-1.372-18.27-4.228-27.223-.879-2.759-2.027-5.4-2.795-8.152-.783-2.8-2.459-4.071-4.336-6.247a23.331,23.331,0,0,0-9.5-6.891c-1.648-.622-4.442-.508-5.8-1.6-.748-.6,8.154-4.48,8.766-4.642,3.879-1.023,7.834.811,10.735,3.31a63.485,63.485,0,0,1,11.035,12.559A26.8,26.8,0,0,1,410.5,383.8Q410.64,384.373,410.8,384.93Z" transform="translate(-146.561 -296.565)" fill="#6a7b83"/>
          <path id="Path_6636" data-name="Path 6636" d="M404.454,408.089s-.081,6.085,4.511,7.639,6.072,4.228,8.023.632,0-18.442,0-18.442S407.077,398.893,404.454,408.089Z" transform="translate(-103.962 -237.37)" fill="#587f6e"/>
          <path id="Path_6637" data-name="Path 6637" d="M427.472,399.918c.993,1.632.124,3.113-.364,4.723-.622,2.042-1.226,4.091-1.827,6.138-1.1,3.737-2.219,7.621-3.207,11.3-.313,1.172.134,1.506-.114,2.638s-.877.379-1.658,1.165c-2.388,2.406-4.025,4.2-6.322,5.231s-5.751.316-7.722.238A10.715,10.715,0,0,1,399.9,428.3c-1.013-.953-1.68-1.776-.892-3.133a2.608,2.608,0,0,1,3.146-1.289c2.107,1.031,3.813.8,5.976,1.1,3.219.452,5.046.589,5.764.048s2.1-2.984,1.665-3.712-1.193-.245-2.37-1.428-5.569-2.962-5.569-2.962c-.068-.025,2.777-4.829,2.989-5.137,1.5-2.161,3.864-3.113,5.625-4.94.834-.864.7-1.347,1.087-2.431a12.578,12.578,0,0,1,6.07-5.777A3.627,3.627,0,0,1,427.472,399.918Z" transform="translate(-112.803 -236.515)" fill="#f7be96"/>
          <path id="Path_6638" data-name="Path 6638" d="M398.745,414.8c.912,3.1,3.47,3.7,5.711,1.349a11.236,11.236,0,0,0,2.408-9.875c-.912-3.1-3.47-3.7-5.711-1.349A11.237,11.237,0,0,0,398.745,414.8Z" transform="translate(-113.175 -228.865)" fill="#b4bdc2"/>
          <path id="Path_6639" data-name="Path 6639" d="M399.86,415.042c.912,3.1,3.47,3.7,5.711,1.349a11.235,11.235,0,0,0,2.408-9.875c-.912-3.1-3.47-3.7-5.711-1.349A11.235,11.235,0,0,0,399.86,415.042Z" transform="translate(-111.472 -228.492)" fill="#b4bdc2"/>
          <path id="Path_6640" data-name="Path 6640" d="M401.881,416.153l32.81,3.3,1.483-7.988s-27.039-7.245-31.211-7.424C401.878,403.908,397.251,411.718,401.881,416.153Z" transform="translate(-110.883 -228.026)" fill="#d1d6d9"/>
          <path id="Path_6641" data-name="Path 6641" d="M431.9,387.628a46.88,46.88,0,0,1-1.6,14.078c-.874,3.318-1.819,6.618-2.785,9.911-2.2,7.48-4.551,14.917-6.982,22.326-1.157,3.52-2.5,7.012-3.543,10.568,0,0,2.085-7.078-3.644-9.759-5.953-2.787-8.89,1.488-8.89,1.488q1.141-6.076,2.267-12.157a113.04,113.04,0,0,0,1.3-11.558,225.279,225.279,0,0,1,3.73-24.706,6.28,6.28,0,0,1,.665-2.065A6.019,6.019,0,0,1,414,384.186a23.712,23.712,0,0,1,7.77-4.23,10.773,10.773,0,0,1,8.592.935,2.234,2.234,0,0,1,.756.692,2.487,2.487,0,0,1,.26.978C431.583,384.232,431.778,385.925,431.9,387.628Z" transform="translate(-103.962 -265.521)" fill="#88c0a8"/>
          <path id="Path_6642" data-name="Path 6642" d="M423.733,404.068c.665-14.123,1.218-28.939-8.278-40.394-1.9-2.289-10.126-11.99-13.613-10.343-1.852.877-5.1,1.685-6.429,3.232a.862.862,0,0,0-.227.425c-.061.417.382.715.756.91a37,37,0,0,1,14.917,14.212c3.833,6.6,4.111,15.45,5.021,22.867.093.766.505,13.282.321,13.289C416.212,408.265,421.622,408.045,423.733,404.068Z" transform="translate(-118.123 -305.739)" fill="#6a7b83"/>
          <path id="Path_6643" data-name="Path 6643" d="M402.424,411.6a2.217,2.217,0,0,1,.629-2.2c1.021-.9.364-1.372.25-1.744a6.04,6.04,0,0,1,2.067-3.525c1.188-.766,4.42-1.923,5.969-.728s2.353,2.982.839,4.733-2.6,1.971-3.727,3.341-2.55,3.687-3.613,2.949S402.452,412.671,402.424,411.6Z" transform="translate(-107.176 -229.779)" fill="#fcd1b3"/>
          <path id="Path_6644" data-name="Path 6644" d="M397.234,398.734s1.365,2.787,3.379,3.419c1.989.624,4.4.829,6.254,1.784,1.683.867,3.556,1.4,5.188,2.436,1.509.953,3.151,1.253,4.559,2.469a6.468,6.468,0,0,0,1.771,1.092,5.341,5.341,0,0,1,1.013.465,1.169,1.169,0,0,1,.556.917,1.1,1.1,0,0,1-.589.892,2.908,2.908,0,0,1-1.072.3,12.572,12.572,0,0,1-4.116,0c-1.233-.273-2.4-.973-3.6-1.37-.73-.243-2.133-.783-2.863-.389a4.15,4.15,0,0,0-1.316,1.918,18.785,18.785,0,0,0,1.127,3.95,24.181,24.181,0,0,0,2.246,3.391,4.7,4.7,0,0,0,1.387,1.582,18.247,18.247,0,0,0,2.494.816,2.851,2.851,0,0,1,.756.349c1.006.72,1.011,2.348.708,3.421-.139.488.316.874-1.221,1.536a11.531,11.531,0,0,1-3.849.642c-.508.917-3.149.316-3.894.2a16.092,16.092,0,0,1-5.468-1.93c-1.15-.657-2.067-1.592-3.169-2.292a5.48,5.48,0,0,1-2.2-1.9c-.465-.859-3.174-9.256-4.319-11.508s-5.9-5.931-5.746-7.611S397.234,398.734,397.234,398.734Z" transform="translate(-133.282 -236.124)" fill="#f7be96"/>
          <path id="Path_6645" data-name="Path 6645" d="M371.3,400.987c.154-2.792-.051-13.82,2.648-23.693s4.612-14,6.762-15.144,8.518,1.87,10.838,10.621,2.489,14.869,3.29,25.2c.94,12.152-1.445,31.706-1.445,31.706s27.066,24.732,27.142,25.823-5.8.973-7.192,5.35a22.655,22.655,0,0,0-.387,9.6s-36.421-25.616-38.85-31.066S371.3,400.987,371.3,400.987Z" transform="translate(-154.592 -292.339)" fill="#88c0a8"/>
          <path id="Path_6646" data-name="Path 6646" d="M413.882,367.195s-4.771,10.3-5.671,14.881-9.62,2.487-13.547,1.408-8.574-8.662-9.029-10.2a10.213,10.213,0,0,1,.233-4.19,14.635,14.635,0,0,0,2.817-12.021c-1.554-6.982-1.936-8.3-1.936-8.3s13.757,1.082,14.361,1.87S413.882,367.195,413.882,367.195Z" transform="translate(-132.934 -312.401)" fill="#f7be96"/>
          <path id="Path_6647" data-name="Path 6647" d="M417.08,339.188s3.818,3.73,4.748,11.611.152,11.576-.174,13.57-.569,11.606-3.3,19.359-3.26,7-8.86,6.909-13.876-6.3-16.347-9.666-3.558-13.63-4.518-15.768-4.756-14.055-.816-20.375,14.3-7.9,14.3-7.9Z" transform="translate(-132.042 -330.503)" fill="#fcd1b3"/>
          <g id="Group_1858" data-name="Group 1858" transform="translate(247.637)">
            <path id="Path_6648" data-name="Path 6648" d="M404.608,351.292l-1.655,10.469s-4.273,4.506-4.389,6.654-.174,3.151-.174,3.151l-2.949-1.241s-.043-4.455-3.083-5.342-1.842,7.369-.963,9.645-.806,2.9-.806,2.9a31.94,31.94,0,0,1-7.05-20.648c.066-12.928,6.82-16.865,8.6-17.916s7.879-7.4,20.431-3.111,14.757,12.453,15.068,15.917-1.428,9.261-1.428,9.261l-.75-7.869a22.381,22.381,0,0,1-8.923-.713C411.014,351.069,404.866,349.654,404.608,351.292Z" transform="translate(-383.538 -334.384)" fill="#6a3120"/>
          </g>
          <path id="Path_6649" data-name="Path 6649" d="M391.8,406.585s5.534,5.953,6.052,6.674,6.254,2.853,6.254,2.853-4.685-2.426-5.673-2.883-6.012-6.959-6.012-6.959Z" transform="translate(-123.281 -224.618)" fill="#f4a974"/>
          <path id="Path_6650" data-name="Path 6650" d="M390.946,407.506s5.231,4.98,5.807,5.542,5.066,1.9,5.066,1.9l-.589.18s-3.957-1.385-4.609-1.653-5.739-5.511-5.739-5.511Z" transform="translate(-124.684 -222.73)" fill="#f4a974"/>
        </g>
        <path id="Path_6651" data-name="Path 6651" d="M391.276,348.607s-1.008-2.838-3.7-2.818-2.668,2.951-1.961,4.768,2.474,7.409,3.5,7.925,2.226,1.145,2.866.293.134-4.87.1-5.681S391.3,349.12,391.276,348.607Z" transform="translate(-133.34 -306.966)" fill="#ffdec7"/>
        <g id="Group_1860" data-name="Group 1860" transform="translate(236.578)">
          <path id="Path_6652" data-name="Path 6652" d="M444.066,357.858c-6.919,9.1-26.513,13.575-43.767,10s-25.629-13.845-18.71-22.942,26.515-13.575,43.767-10S450.987,348.761,444.066,357.858Z" transform="translate(-379.161 -325.451)" fill="#ffc45b"/>
          <path id="Path_6653" data-name="Path 6653" d="M427.913,335.794l-6.479.192a36.442,36.442,0,0,0-10.186-2.315c-7.442-.649-14.651.652-19.885,3.2l-6.32.187-1.433,7.68a7.315,7.315,0,0,0-.23,1.226l-.015.081.013,0c-.536,6.472,7.854,12.256,19.9,13.307,13.026,1.14,25.373-3.687,27.574-10.78a7.206,7.206,0,0,0-.2-4.862l.015-.01Z" transform="translate(-372.76 -325.723)" fill="#f2a93f"/>
          <path id="Path_6654" data-name="Path 6654" d="M426.384,342.943c-1.974,6.044-12.953,10.285-24.527,9.474S382.505,346.043,384.479,340s12.956-10.285,24.527-9.474S428.357,336.9,426.384,342.943Z" transform="translate(-371.509 -330.426)" fill="#ffd77e"/>
        </g>
        <path id="Path_6655" data-name="Path 6655" d="M411.9,416.01c.809,2.749,3.075,3.285,5.064,1.2a9.957,9.957,0,0,0,2.135-8.759c-.809-2.749-3.075-3.285-5.064-1.2A9.965,9.965,0,0,0,411.9,416.01Z" transform="translate(-93.03 -215.059)" fill="#b4bdc2"/>
        <path id="Path_6656" data-name="Path 6656" d="M412.881,416.247c.811,2.749,3.078,3.285,5.067,1.2a9.963,9.963,0,0,0,2.135-8.758c-.809-2.747-3.075-3.285-5.064-1.2A9.965,9.965,0,0,0,412.881,416.247Z" transform="translate(-91.532 -214.698)" fill="#b4bdc2"/>
        <path id="Path_6657" data-name="Path 6657" d="M413.328,413.968c.563,1.91,2.14,2.282,3.523.831a6.934,6.934,0,0,0,1.486-6.09c-.563-1.91-2.14-2.282-3.523-.831A6.934,6.934,0,0,0,413.328,413.968Z" transform="translate(-90.715 -213.51)" fill="#6b7d87"/>
        <path id="Path_6658" data-name="Path 6658" d="M464.786,465.135c2,3.722,4.359,7.278,5.549,11.318,1.061,3.609,1.152,7.5,2.648,10.952,1.478,3.414,4.058,6.163,4.68,9.863q1.251,7.456,2.5,14.917a115.767,115.767,0,0,1,1.923,15.975c.1,3.8-.174,7.594-.3,11.389a172.358,172.358,0,0,0,.978,22.95c.4,3.945.718,7.975,1.408,11.879.791,4.48-.384,12.569,4.837,14.939a11.611,11.611,0,0,0,4.415.738l6.325.227a8,8,0,0,0,3.449-.384c1.835-.781,2.8-2.77,4.281-4.106,2.388-2.158,5.865-2.449,8.887-3.55,4.521-1.648,8.364-5.653,8.86-10.439.349-3.363-1.147-5.953-1.89-9.084-.6-2.555-.849-5.246-1.524-7.839-1.387-5.327-3.027-10.449-3.96-15.9-1.872-10.957-2.5-22.081-4.273-33.053-1.63-10.126-3.977-21.1-8.4-30.412-3.6-7.568-8.87-14.166-13.678-20.974-8.549-12.1-20.471-24.873-33.432-32.406-9.974-5.8-21.077-9.385-32.161-12.39-2.406-.652-10.164-2.633-11.829.45-2.221,4.114,9.575,6.921,11.771,8.559a32.651,32.651,0,0,1,3.495,3.452c3.535,3.578,8.185,5.807,12.8,7.821,3.8,1.66,7.743,3.288,10.722,6.173,6.7,6.482,6.638,17.085,10.313,25.654C463.659,462.97,464.207,464.059,464.786,465.135Z" transform="translate(-89.683 -211.189)" fill="#73d0ff"/>
        <path id="Path_6659" data-name="Path 6659" d="M473.486,438.067c-4.387-4.68-7.528-9.883-12.807-13.833a39.008,39.008,0,0,0-10.057-5.519c-1.655-.6-3.442-.852-5.006-1.579s-3-1.872-4.571-2.648c-3.785-1.865-8.15-2.143-11.96-3.972-5.213-2.5-10.575-2.972-15.6.063,2.648-.195,6.231,2,8.834,2.739,1.754.5,3.28,1.582,4.963,2.284,4.955,2.077,9.85,3.116,14.54,5.913q2.748,1.637,5.5,3.277,4.169,2.483,8.339,4.971c8.074,4.814,15.642,12.458,18.313,21.772.574,2,.895,4.058,1.349,6.088a45.926,45.926,0,0,0,2.742,8.344c1.779,4.058,4.139,7.846,5.878,11.922a42.949,42.949,0,0,1,3.4,15.018c.2,4.71,1.688,9.226,2.037,13.959.291,3.909.285,7.894.455,11.771.215,4.943-1.524,9.774-1.013,14.783a64.985,64.985,0,0,0,1.784,8.347c.9,3.78,1.461,7.629,2.021,11.472a31.645,31.645,0,0,1,.493,7.136c-.323,3.886-2.075,7.525-2.641,11.384-.882,6.037,1.177,12.165.68,18.242a2.484,2.484,0,0,0,2.509-1.8,9.012,9.012,0,0,0,.217-3.328c-.174-4.665.968-9.279,1.213-13.941.179-3.419-.124-6.871.4-10.257.419-2.742,1.375-5.4,1.62-8.16.412-4.68-1.228-9.271-1.771-13.939-.756-6.477.607-12.994,1.964-19.372,2.153,3.427,3.007,7.48,4.116,11.369,2.57,8.993,6.747,17.936,5.789,27.241-.5,4.832-2.358,9.858-.581,14.378.589,1.5,1.546,2.828,2.251,4.276a13.917,13.917,0,0,1,1.372,6.782c.649-.073,1.077-.7,1.362-1.289,1.991-4.091,1.546-8.933.569-13.375s-2.449-8.852-2.375-13.4c.04-2.535.564-5.044.553-7.578a36.249,36.249,0,0,0-1.976-10.05c-2.163-7.273-4.526-14.328-6.055-21.729-2.059-9.966-5.476-19.291-8.142-29.022.134.483,3.6,1.994,4.2,2.514a6.7,6.7,0,0,1,1.8,2.259c1.294,2.653,1.059,5.812,1.951,8.569a2.848,2.848,0,0,0,.5.993,4.153,4.153,0,0,0,.978.74c6,3.849,4.283,9.741,4.119,15.543-.121,4.253,1.592,8.155,2.492,12.225.991,4.478,2.042,8.923,3.176,13.368,1.5,5.888.483,12.316,3.143,17.926.8,1.678,1.923,3.255,2.188,5.092.159,1.1,0,2.236.225,3.323a7.558,7.558,0,0,0,1.511,2.949,18.928,18.928,0,0,0,4.286,4.091,6.487,6.487,0,0,0-.389-5.367c-.783-1.68-1.936-3.164-2.772-4.816-2.509-4.955-1.961-10.818-2.35-16.36-.334-4.753-2.072-9.246-3.677-13.711-3.621-10.085-3.366-21.077-4.584-31.724-.854-7.444-2.605-15.106-6.679-21.5-2.022-3.176-4.725-5.109-7.242-7.712-2.484-2.572-3.361-6.355-5.59-9.133-2.014-2.507-5.1-4.511-5.552-7.7-.286-2.042.632-4.174.043-6.153a8.452,8.452,0,0,0-2.173-3.184Z" transform="translate(-90.175 -211.258)" fill="#9ddeff"/>
        <path id="Path_6660" data-name="Path 6660" d="M503.839,469.425a24.482,24.482,0,0,0-6.79,2.12l-3.634,1.925a1.163,1.163,0,0,0-.419.306,1.268,1.268,0,0,0-.1.953c.435,3.035.412,5.163-2.555,6.353-2.38.953-4.9,1.162-6.977,2.83a26.538,26.538,0,0,0-2.729,3.257,16.41,16.41,0,0,1-5.8,3.621q-4.17,1.854-8.342,3.7c-3.416,1.516-8,2.638-11.242-.068-2.413-2.011-.253-8.071-2.009-9.052a1.123,1.123,0,0,0-.642-.073c-5.789.483-11.561,1.205-16.7,4.159a3.375,3.375,0,0,0-1.625,1.559c-.508,1.352.821,2.792,2.234,3.091s2.866-.126,4.3-.258a10.749,10.749,0,0,1,9.342,4.091,11.784,11.784,0,0,0,2.59,3.05,7.542,7.542,0,0,0,2.7.887q5.757,1.1,11.543,2.032a11.485,11.485,0,0,0,5.094.043,11.652,11.652,0,0,0,3.672-2.186q3.37-2.623,6.745-5.243a12.618,12.618,0,0,1,4.248-2.487,17.05,17.05,0,0,1,3.629-.356,24.232,24.232,0,0,0,14.6-5.941c1.754-1.542,3.275-3.328,4.981-4.917a35.517,35.517,0,0,0,3.9-3.8,6.726,6.726,0,0,0,1.625-5.039,6.155,6.155,0,0,0-4.688-4.634A17.862,17.862,0,0,0,503.839,469.425Z" transform="translate(-58.6 -118.757)" fill="#9ddeff"/>
      </g>
    </g>
  </g>
</svg>
