<svg xmlns="http://www.w3.org/2000/svg" width="165.301" height="177.514" viewBox="0 0 165.301 177.514">
  <g id="medium-yard" transform="translate(-636 -2136)">
    <path id="Path_772" data-name="Path 772" d="M84.848,36.641C63.257,17.488,37.592-13.08,16.141,6.074s-21.591,72.548,0,91.7S74.846,106.742,96.3,87.587,106.44,55.8,84.848,36.641Z" transform="translate(801.301 2243.872) rotate(177)" fill="#deeee8" opacity="0.77"/>
    <g id="house_1_" data-name="house (1)" transform="translate(606.979 2169.513)">
      <g id="Group_245" data-name="Group 245" transform="translate(29.021 1.866)">
        <path id="Path_737" data-name="Path 737" d="M152.678,61.2l-9.855-12.489V30.628l3.942-2.274V19.3L123.077,5.631l-9.824,5.674-.03-.045L73.746,15.618,46.778,31.2V42.51l5.913-.663v17.4L49.6,52.157l-4.7,2.71-3.184-7.277-8.755,5.06L29.021,57.16V79.788L36.9,84.355l7.789,4.473.114.076,7.884,4.567,67.088,38.737,7.9,4.548,7.884,4.567,7.9,4.548,8.755-5.06V118.183l-3.961-9.078-1.5.866V75.933h-.011l5.924-3.423Z" transform="translate(-29.021 -5.631)" fill="#deeee8"/>
        <path id="Path_738" data-name="Path 738" d="M386.181,288.834l-26.987,16.658V246.743l26.987,2.475Z" transform="translate(-266.313 -178.916)" fill="#88c0a8"/>
        <g id="Group_239" data-name="Group 239" transform="translate(2.122 47.018)">
          <path id="Path_739" data-name="Path 739" d="M44.45,181.831v22.647l-7.884-4.567V177.283l3.942-4.51,3.9,8.964Z" transform="translate(-36.566 -172.772)" fill="#deeee8"/>
          <path id="Path_740" data-name="Path 740" d="M100.278,214.235v22.647l-7.884-4.567-.114-.076.114-.208V209.687l3.942-4.511Z" transform="translate(-76.607 -196.06)" fill="#deeee8"/>
        </g>
        <path id="Path_741" data-name="Path 741" d="M62.518,162.062l-4.036,2.331-3.772,4.321-.227.095-3.9-8.964,8.755-5.06Z" transform="translate(-44.515 -112.827)" fill="#88c0a8"/>
        <path id="Path_742" data-name="Path 742" d="M72.4,198.019v22.344l-.114.208L64.495,216.1V193.451l-.038-.095.227-.095,3.772-4.321Z" transform="translate(-54.489 -137.374)" fill="#deeee8"/>
        <g id="Group_240" data-name="Group 240" transform="translate(13.967 21.188)">
          <path id="Path_743" data-name="Path 743" d="M178.623,130.9v11.314l-5.932-7.486-33.544-42.47L105.6,95.977l-5.913.663V85.327l39.457-4.378Z" transform="translate(-93.778 -80.949)" fill="#88c0a8"/>
          <path id="Path_744" data-name="Path 744" d="M110.639,197.025v11.352l-3.942-9.059V199.3Z" transform="translate(-98.813 -164.372)" fill="#88c0a8"/>
          <path id="Path_745" data-name="Path 745" d="M90.5,178.109v.228l-3.942,2.274v.019l-3.942,4.51-3.942-9.078,4.037-2.331,4.7-2.71Z" transform="translate(-78.672 -145.683)" fill="#88c0a8"/>
        </g>
        <path id="Path_746" data-name="Path 746" d="M205.591,75.577,178.623,91.155,139.148,41.2,99.691,45.577,126.659,30l39.476-4.359.038.057,29.564,37.391Z" transform="translate(-79.811 -20.011)" fill="#deeee8"/>
        <g id="Group_241" data-name="Group 241" transform="translate(69.21 15.578)">
          <path id="Path_747" data-name="Path 747" d="M407.248,203.155v11.314L380.28,230.047V218.733Z" transform="translate(-350.678 -163.168)" fill="#88c0a8"/>
          <path id="Path_748" data-name="Path 748" d="M298.721,74.672v9.059l-3.942-2.274-2.388-1.383-.019-.019h-.019v-.019h-.019l-.019-.019H292.3l-13.3-7.676-3.942-2.293v-9.04l20.562,11.864Z" transform="translate(-275.051 -61.008)" fill="#88c0a8"/>
        </g>
        <path id="Path_749" data-name="Path 749" d="M304.849,110.41v22.628l-15.786-19.975V101.294l13.3,7.676h.019l.019.019.019.019h.019l.019.019Z" transform="translate(-215.911 -74.383)" fill="#deeee8"/>
        <path id="Path_750" data-name="Path 750" d="M336.461,128.617V128.6h-.019l-.019-.019" transform="translate(-249.948 -93.993)" fill="#e3e7f2"/>
        <path id="Path_751" data-name="Path 751" d="M386.181,54.2v9.059l-3.942,2.274-23.045,13.3V69.782Z" transform="translate(-266.313 -40.54)" fill="#88c0a8"/>
        <path id="Path_752" data-name="Path 752" d="M325.708,19.3,298.721,34.873l-3.108-1.8L275.051,21.209,302.019,5.631Z" transform="translate(-205.841 -5.631)" fill="#deeee8"/>
        <g id="Group_242" data-name="Group 242" transform="translate(92.881 99.419)">
          <path id="Path_753" data-name="Path 753" d="M367.1,368.124v22.628l-7.9-4.548V363.556l3.961-4.51Z" transform="translate(-359.194 -359.046)" fill="#deeee8"/>
          <path id="Path_754" data-name="Path 754" d="M395.17,384.341v22.647l-7.884-4.567V379.792l3.942-4.51Z" transform="translate(-379.383 -370.715)" fill="#deeee8"/>
          <path id="Path_755" data-name="Path 755" d="M423.215,400.528v22.628l-7.9-4.548V395.961l3.961-4.51Z" transform="translate(-399.526 -382.334)" fill="#deeee8"/>
        </g>
        <g id="Group_243" data-name="Group 243" transform="translate(96.841 94.359)">
          <path id="Path_756" data-name="Path 756" d="M385.194,348.355l-4.036,2.331-3.942,4.51-3.942-9.078,8.737-5.06Z" transform="translate(-373.274 -341.059)" fill="#88c0a8"/>
          <path id="Path_757" data-name="Path 757" d="M413.219,364.571,409.2,366.9l-3.961,4.51-3.942-9.059,4.037-2.331,4.719-2.729Z" transform="translate(-393.415 -352.727)" fill="#88c0a8"/>
          <path id="Path_758" data-name="Path 758" d="M442.089,382.541l-8.755,5.06-3.942-9.078,4.018-2.331,4.719-2.729Z" transform="translate(-413.605 -364.347)" fill="#88c0a8"/>
        </g>
        <path id="Path_759" data-name="Path 759" d="M452.159,405.732V428.36l-8.755,5.06V410.792Z" transform="translate(-326.834 -293.18)" fill="#deeee8"/>
        <g id="Group_244" data-name="Group 244" transform="translate(69.208 24.997)">
          <path id="Path_760" data-name="Path 760" d="M372.168,94.49v18.08l-26.987,15.578V105.52l3.942,2.274Z" transform="translate(-325.451 -94.49)" fill="#88c0a8"/>
          <path id="Path_761" data-name="Path 761" d="M290.83,323.552l-15.786-9.114V278.224l15.786,9.116Z" transform="translate(-275.044 -226.538)" fill="#88c0a8"/>
          <path id="Path_762" data-name="Path 762" d="M300.23,356.987a1.892,1.892,0,0,1-.946-.253l-1.973-1.138a1.9,1.9,0,1,1,1.9-3.283l1.973,1.138a1.895,1.895,0,0,1-.949,3.536Z" transform="translate(-290.366 -279.602)" fill="#a4c2f7"/>
        </g>
        <path id="Path_763" data-name="Path 763" d="M178.889,195.178v19.994l-10.309-5.951-3.79-2.179-10.329-5.97V181.059l10.329,5.97,3.79,2.2Z" transform="translate(-119.174 -131.71)" fill="#cfe6dd"/>
      </g>
      <g id="Group_246" data-name="Group 246" transform="translate(30.916 1.866)">
        <path id="Path_764" data-name="Path 764" d="M100,42.51l1.668-.188V34.987L128.64,19.409l39.476-4.359.03.046,9.824-5.674,1.061.612,1.061-.612,19.9,11.477V19.3L176.3,5.631l-1.061.612-1.061-.612-9.824,5.674-.03-.045L124.85,15.618,97.882,31.2V42.51L100,42.271Z" transform="translate(-80.125 -5.631)" fill="#fff"/>
        <path id="Path_765" data-name="Path 765" d="M104.589,154.975l-1.3.75,2.088,4.772,3.006-1.732.426.978,1.7-.978.967,2.217V148.7l-3.79.424v8.073l-.967-2.217-1.7.978Z" transform="translate(-84.008 -108.45)" fill="#fff"/>
        <path id="Path_766" data-name="Path 766" d="M38.548,168.146l3.942-4.511,8.748-5.056-1.66-3.794-1.694.98-.428-.98-8.755,5.06-3.942,4.51v22.628l3.79,2.2Z" transform="translate(-34.758 -112.827)" fill="#fff"/>
      </g>
      <g id="Group_248" data-name="Group 248" transform="translate(29.244 0.001)">
        <path id="Path_767" data-name="Path 767" d="M125.177,39.6l-21.334,12.32-5.638,3.256-1.9-3.282,5.638-3.256,21.335-12.32Z" transform="translate(-77.604 -26.099)" fill="#fff"/>
        <g id="Group_247" data-name="Group 247" transform="translate(0 0)">
          <path id="Path_768" data-name="Path 768" d="M46.547,86.785l7.893,4.556L97.851,116.4h0l15.787,9.115,0,0,7.889,4.555,7.893,4.556,7.893,4.558,7.893,4.556.007,0a1.888,1.888,0,0,0,.33.136c.043.015.083.04.127.051a1.9,1.9,0,0,0,.326.042c.053,0,.1.021.158.021h0a1.886,1.886,0,0,0,.946-.253l8.754-5.054a1.81,1.81,0,0,0,.163-.144,1.835,1.835,0,0,0,.314-.277,2.6,2.6,0,0,0,.354-.622,1.847,1.847,0,0,0,.069-.345,1.783,1.783,0,0,0,.051-.255V114.427c0-.042-.023-.081-.026-.123a1.862,1.862,0,0,0-.079-.379,1.916,1.916,0,0,0-.053-.254l-3.959-9.081c-.012-.028-.037-.045-.05-.072s-.018-.079-.039-.115a1.806,1.806,0,0,0-.2-.226,1.855,1.855,0,0,0-.228-.258,1.829,1.829,0,0,0-.311-.2,1.461,1.461,0,0,0-.517-.21V73.257l4.964-2.866a1.8,1.8,0,0,0,.176-.155,1.844,1.844,0,0,0,.292-.258,2.573,2.573,0,0,0,.356-.617,1.856,1.856,0,0,0,.078-.386,1.735,1.735,0,0,0,.046-.226V57.429c0-.043-.018-.082-.021-.125a2.239,2.239,0,0,0-.185-.68c-.022-.046-.022-.1-.048-.142s-.056-.055-.079-.089-.042-.1-.075-.136L147.41,44.286V27.959l2.991-1.727a1.775,1.775,0,0,0,.154-.136,1.838,1.838,0,0,0,.325-.287,2.583,2.583,0,0,0,.351-.62,1.846,1.846,0,0,0,.069-.34,1.794,1.794,0,0,0,.051-.256V15.53c0-.056-.017-.108-.022-.163s-.01-.083-.017-.126a1.872,1.872,0,0,0-.687-1.181c-.024-.019-.046-.037-.071-.054a1.886,1.886,0,0,0-.151-.116L126.716.225a1.788,1.788,0,0,0-.21-.07,1.858,1.858,0,0,0-.387-.129,2.551,2.551,0,0,0-.708,0,1.84,1.84,0,0,0-.375.127,1.8,1.8,0,0,0-.212.071l-9.374,5.412L76.233,9.972a1.872,1.872,0,0,0-.737.247l0,0-6.564,3.791a1.9,1.9,0,1,0,1.9,3.282L77.044,13.7l30.237-3.344-1.512.873a1.786,1.786,0,0,0-.267.09l-17.171,9.9-30.3,3.359a1.874,1.874,0,0,0,.362-2.3,1.9,1.9,0,0,0-2.589-.693l-7.279,4.2.006.011a1.885,1.885,0,0,0-.953,1.63V38.751a1.9,1.9,0,0,0,2.1,1.884l3.814-.423v6.714a1.821,1.821,0,0,0-.286-.17,1.331,1.331,0,0,0-.675-.22,1.322,1.322,0,0,0-.729.057,1.769,1.769,0,0,0-.256.055c-.034.015-.055.044-.087.061s-.072.016-.105.035l-2.883,1.664L46.14,43.061c-.013-.031-.04-.049-.055-.078s-.015-.069-.034-.1a1.787,1.787,0,0,0-.177-.2,1.248,1.248,0,0,0-.517-.46,2.4,2.4,0,0,0-1.714-.139c-.047.021-.077.061-.122.085-.019.01-.041.009-.06.02l-8.754,5.054c-.016.009-.025.026-.041.036a1.87,1.87,0,0,0-.439.358l-3.946,4.51a1.893,1.893,0,0,0-.468,1.247V76.028a1.9,1.9,0,0,0,.947,1.642l7.893,4.556Zm4.865-35.7,1.644,3.782L50.5,56.348c-.023.014-.035.037-.058.051a1.876,1.876,0,0,0-.423.351l-1.976,2.259-2.077-4.773ZM49.39,63.221,50.9,61.5l2.595,5.963V86.418l-4.1-2.369ZM43,56.94,45.6,62.9V81.859L41.5,79.49V58.664ZM57.283,83.929,96.905,106.8v4.676L57.283,88.606V83.929Zm59.2,34.179,4.1,2.368v4.676l-4.1-2.369Zm-3.79,2.487-12-6.926V81.832l12,6.925Zm11.683-14.081,1.506-1.725,2.6,5.965V129.71l-4.1-2.369Zm9.91-7.578,1.654,3.789-2.567,1.48c-.016.009-.024.026-.04.036a1.864,1.864,0,0,0-.439.359l-1.975,2.259-2.078-4.775Zm7.9,4.565,1.645,3.781-2.564,1.48c-.018.01-.027.028-.044.039a1.866,1.866,0,0,0-.435.356l-1.975,2.259-2.077-4.772ZM152.5,113.623l-5.449,3.146-2.425-5.57,5.446-3.144Zm.523,22.333-4.967,2.868V120.566l4.967-2.868Zm-20.754-24.884,1.506-1.725,2.6,5.963v18.957l-4.1-2.369Zm12,27.753-4.1-2.369V115.628l1.506-1.725,2.6,5.963Zm3.3-33.7-.43.248-2.32-5.332c-.015-.034-.045-.055-.062-.089s-.015-.07-.034-.1a1.766,1.766,0,0,0-.18-.2,1.852,1.852,0,0,0-.247-.28,1.831,1.831,0,0,0-.3-.195,1.315,1.315,0,0,0-.672-.222,1.8,1.8,0,0,0-.361-.026,1.853,1.853,0,0,0-.366.079,1.77,1.77,0,0,0-.268.058c-.035.015-.056.045-.089.062s-.07.015-.1.034l-2.883,1.662-2.333-5.345c-.015-.035-.046-.056-.063-.09s-.015-.068-.033-.1a1.758,1.758,0,0,0-.174-.2,1.869,1.869,0,0,0-.256-.29,1.82,1.82,0,0,0-.3-.19,1.647,1.647,0,0,0-1.412-.168,1.809,1.809,0,0,0-.259.055c-.035.015-.056.046-.089.063s-.068.015-.1.033l-8.748,5.056c-.018.01-.027.028-.044.039a1.866,1.866,0,0,0-.435.356l-.624.713V82.283l2.539,3.213c.015.019.038.025.053.043a1.87,1.87,0,0,0,.582.466c.033.017.067.026.1.041a1.9,1.9,0,0,0,.746.17h0a1.881,1.881,0,0,0,.563-.1c.019-.006.038,0,.057-.01.041-.014.073-.043.113-.06a1.818,1.818,0,0,0,.213-.088l18.215-10.517v29.68ZM91.781,23.605,96.9,20.65v5.842a1.9,1.9,0,0,0,.947,1.642l3,1.732v5.221Zm33.991-19.55,19.9,11.477L122.48,28.921l-2.308-1.333c-.035-.017-.064-.043-.1-.058L102.591,17.438Zm21.79,19.439L124.375,36.88V32.2l23.186-13.386Zm-42.918,8.559,12,6.926V55.063l-12-15.181Zm13.741,3.555-1.307-.754-.018-.014-.023-.009-13.341-7.7-.008,0L100.695,25.4V20.722L120.585,32.2V36.88Zm26.659,11.8,7.482,9.478L128.871,70.544l-7.49-9.479Zm8.432,20.251L130.3,81.039V74.1l23.178-13.387Zm-9.855-23.806L120.43,57.236V41.168l1.1.637.007,0a1.9,1.9,0,0,0,.33.136c.043.015.083.04.127.051a1.9,1.9,0,0,0,.326.042c.053,0,.1.021.158.021h0a1.886,1.886,0,0,0,.946-.253l20.192-11.657ZM51.364,29.131,88.1,25.058l13.161,16.657v0l15.786,19.979h0l9.457,11.969v5.2L90.42,33.2a1.894,1.894,0,0,0-1.486-.72,2,2,0,0,0-.209.011l-37.36,4.142v-7.5ZM88.1,36.375l32.486,41.112V116.1l-4.1-2.368V87.663a1.9,1.9,0,0,0-.947-1.642L99.748,76.907a1.9,1.9,0,0,0-2.843,1.641v23.878L57.283,79.551V39.792ZM42.6,51.8c-.016.01-.025.026-.041.036a1.866,1.866,0,0,0-.438.358l-1.975,2.259-2.077-4.772,5.448-3.146,1.651,3.783Zm-9,2.308,1.506-1.723,2.6,5.964V77.3l-4.1-2.368Z" transform="translate(-29.815 -0.001)" fill="#384f45"/>
          <path id="Path_769" data-name="Path 769" d="M145.7,63.269a1.99,1.99,0,0,0-1.149-.89,1.868,1.868,0,0,0-2.362,2.086,1.9,1.9,0,0,0,3.708.245l.055-.36a1.432,1.432,0,0,0-.022-.381,1.206,1.206,0,0,0-.073-.352A2.811,2.811,0,0,0,145.7,63.269Z" transform="translate(-110.558 -44.779)" fill="#384f45"/>
          <path id="Path_770" data-name="Path 770" d="M297.315,356.6l1.973,1.138a1.9,1.9,0,0,0,1.9-3.283l-1.973-1.138a1.9,1.9,0,0,0-1.9,3.283Z" transform="translate(-221.384 -253.74)" fill="#384f45"/>
          <path id="Path_771" data-name="Path 771" d="M148.683,198.9,173.109,213a1.9,1.9,0,0,0,2.843-1.641V191.351a1.9,1.9,0,0,0-.947-1.642l-24.426-14.1a1.9,1.9,0,0,0-2.843,1.641v20.01A1.894,1.894,0,0,0,148.683,198.9Zm2.843-8.364,8.423,4.863v5.628l-8.423-4.862Zm12.213,12.679v-5.628l8.423,4.863v5.627Zm8.423-5.142-8.423-4.863v-5.629l8.423,4.862Zm-12.213-12.68v5.628l-8.423-4.863v-5.627Z" transform="translate(-114.564 -126.026)" fill="#384f45"/>
        </g>
      </g>
    </g>
  </g>
</svg>
