<svg xmlns="http://www.w3.org/2000/svg" width="96" height="91" viewBox="0 0 96 91">
  <g id="Group_1874" data-name="Group 1874" transform="translate(-500 -3777)">
    <path id="Polygon_1" data-name="Polygon 1" d="M58.806,1.729a5,5,0,0,1,6.269,2.036l4.9,8.229a5,5,0,0,0,3.2,2.32l9.365,2.1a5,5,0,0,1,3.883,5.343l-.886,9.5a5,5,0,0,0,1.228,3.771l6.317,7.165a5,5,0,0,1,0,6.614l-6.317,7.165a5,5,0,0,0-1.228,3.771l.886,9.5a5,5,0,0,1-3.883,5.343l-9.365,2.1a5,5,0,0,0-3.2,2.32l-4.9,8.229a5,5,0,0,1-6.269,2.036l-8.833-3.793a5,5,0,0,0-3.946,0l-8.833,3.793a5,5,0,0,1-6.269-2.036l-4.9-8.229a5,5,0,0,0-3.2-2.32l-9.365-2.1a5,5,0,0,1-3.883-5.343l.886-9.5a5,5,0,0,0-1.228-3.771L2.916,48.807a5,5,0,0,1,0-6.614l6.317-7.165a5,5,0,0,0,1.228-3.771l-.886-9.5a5,5,0,0,1,3.883-5.343l9.365-2.1a5,5,0,0,0,3.2-2.32l4.9-8.229a5,5,0,0,1,6.269-2.036l8.833,3.793a5,5,0,0,0,3.946,0Z" transform="translate(500 3777)" fill="#3c474c"/>
    <g id="Group_1836" data-name="Group 1836" transform="translate(554.984 3808) rotate(90)">
      <path id="Path_6395" data-name="Path 6395" d="M29.656,138.436h0l-6.123-6.094A1.172,1.172,0,0,0,21.879,134l4.111,4.091H1.172a1.172,1.172,0,0,0,0,2.344H25.99l-4.111,4.091a1.172,1.172,0,0,0,1.653,1.661l6.123-6.094h0A1.173,1.173,0,0,0,29.656,138.436Z" transform="translate(0 -132)" fill="#deeee8"/>
    </g>
  </g>
</svg>
