<svg xmlns="http://www.w3.org/2000/svg" width="113.301" height="113.514" viewBox="0 0 113.301 113.514">
  <g id="Group_215" data-name="Group 215" transform="translate(-759 -1222.486)">
    <path id="Path_632" data-name="Path 632" d="M84.848,71.379C63.257,90.533,37.592,121.1,16.141,101.946s-21.591-72.548,0-91.7S74.846,1.279,96.3,20.434,106.441,52.224,84.848,71.379Z" transform="translate(866.648 1336) rotate(-177)" fill="#deeee8" opacity="0.77"/>
    <g id="Page-1" transform="translate(783.808 1240.018)">
      <g id="_009---Pruning" data-name="009---Pruning" transform="translate(-0.007 -0.018)">
        <path id="Shape" d="M38.4,31.7a7.7,7.7,0,0,1-15.179,1.809A7.6,7.6,0,0,1,23,31.7a7.7,7.7,0,0,1,15.4,0Z" transform="translate(5.237 5.536)" fill="#deeee8"/>
        <path id="Shape-2" data-name="Shape" d="M34.737,26.13A7.7,7.7,0,0,0,29.425,24a7.9,7.9,0,0,0-1.925.244,7.707,7.707,0,0,1,0,14.91,7.9,7.9,0,0,0,1.925.244,7.519,7.519,0,0,0,3.849-1.039A7.7,7.7,0,0,0,34.737,26.13Z" transform="translate(6.511 5.534)" fill="#cfe6dd"/>
        <path id="Shape-3" data-name="Shape" d="M35.265,43.566V62.813A2.566,2.566,0,0,1,32.7,65.379H27.566A2.566,2.566,0,0,1,25,62.813V43.566a2.566,2.566,0,0,1,1.283-2.22A2.4,2.4,0,0,1,27.566,41H32.7a2.566,2.566,0,0,1,2.566,2.566Z" transform="translate(5.803 10.347)" fill="#deeee8"/>
        <path id="Shape-4" data-name="Shape" d="M33.132,41.346A2.566,2.566,0,0,0,31.849,41H28a2.566,2.566,0,0,1,2.566,2.566V62.813A2.566,2.566,0,0,1,28,65.379h3.849a2.566,2.566,0,0,0,2.566-2.566V43.566A2.566,2.566,0,0,0,33.132,41.346Z" transform="translate(6.653 10.347)" fill="#cfe6dd"/>
        <path id="Shape-5" data-name="Shape" d="M33.7,35.19v7.8a2.566,2.566,0,0,0-1.283-.346H27.283A2.4,2.4,0,0,0,26,42.991v-7.8a7.7,7.7,0,0,0,7.7,0Z" transform="translate(6.086 8.702)" fill="#88c0a8"/>
        <path id="Shape-6" data-name="Shape" d="M29,36.229v6.415h2.566a2.566,2.566,0,0,1,1.283.346v-7.8A7.519,7.519,0,0,1,29,36.229Z" transform="translate(6.936 8.702)" fill="#577d6c"/>
        <path id="Shape-7" data-name="Shape" d="M36.265,23.246a34.926,34.926,0,0,1-1.1,8.545A7.7,7.7,0,0,0,26,30.688V4C31.671,4,36.265,14.034,36.265,23.246Z" transform="translate(6.086 -0.128)" fill="#deeee8"/>
        <path id="Shape-8" data-name="Shape" d="M26,4V5.6c3.759,3.182,6.415,10.637,6.415,17.643a36.273,36.273,0,0,1-.667,6.659,7.7,7.7,0,0,1,3.413,1.886,34.926,34.926,0,0,0,1.1-8.545C36.265,14.034,31.671,4,26,4Z" transform="translate(6.086 -0.128)" fill="#cfe6dd"/>
        <path id="Shape-9" data-name="Shape" d="M61.3,46.242l-2.566,4.44a2.566,2.566,0,0,1-3.5.937l-16.68-9.623a2.566,2.566,0,0,1-1.283-2.22,2.476,2.476,0,0,1,.346-1.283l2.566-4.44a2.564,2.564,0,0,1,3.5-.937l16.68,9.623A2.566,2.566,0,0,1,61.3,46.242Z" transform="translate(9.277 8.018)" fill="#deeee8"/>
        <path id="Shape-10" data-name="Shape" d="M59.615,42.739l-16.68-9.623a2.566,2.566,0,0,0-2.566,0,2.8,2.8,0,0,0-.539.423l15.923,9.2a2.566,2.566,0,0,1,.975,3.5l-2.566,4.44a2.566,2.566,0,0,1-.4.513l.744.423a2.566,2.566,0,0,0,3.5-.937l2.566-4.44a2.566,2.566,0,0,0-.962-3.5Z" transform="translate(10.002 8.018)" fill="#cfe6dd"/>
        <path id="Shape-11" data-name="Shape" d="M42.6,33.849a2.566,2.566,0,0,0-.937.937L39.1,39.225a2.476,2.476,0,0,0-.346,1.283L32,36.659A7.7,7.7,0,0,0,35.849,30Z" transform="translate(7.785 7.233)" fill="#88c0a8"/>
        <path id="Shape-12" data-name="Shape" d="M31.244,27.741A7.7,7.7,0,0,0,27.4,34.413a7.6,7.6,0,0,0,.218,1.809,34.644,34.644,0,0,1-7.917-3.31,31.076,31.076,0,0,1-4.542-3.233,29.216,29.216,0,0,1-4.273-4.491c-2.964-3.849-4.337-7.981-2.72-10.778l4.85,2.8,4.568,2.566Z" transform="translate(0.842 2.819)" fill="#deeee8"/>
        <ellipse id="Oval" cx="3" cy="2.5" rx="3" ry="2.5" transform="translate(33 35.009)" fill="#88c0a8"/>
        <path id="Shape-13" data-name="Shape" d="M15.533,27.3a215.843,215.843,0,0,0-3.49,25.149c-.244,2.81-.423,5.415-.552,7.7-.244,4.26-.359,7.468-.359,9.1a1.283,1.283,0,0,1-1.283,1.283H7.283A1.283,1.283,0,0,1,6,69.245c0-3.156.257-11.548,1.283-21.71.218-2.13.475-4.337.77-6.6a181.635,181.635,0,0,1,3.208-18.13A29.216,29.216,0,0,0,15.533,27.3Z" transform="translate(0.424 5.197)" fill="#cfe6dd"/>
        <path id="Shape-14" data-name="Shape" d="M22.336,7.849c-.59,1.039-1.155,2.117-1.694,3.246A68.786,68.786,0,0,0,18,17.511c-.59,1.694-1.155,3.452-1.681,5.248L11.75,20.193c.9-2.938,1.912-5.774,3.028-8.443.359-.86.744-1.694,1.129-2.566.654-1.334,1.3-2.618,2.04-3.9a2.542,2.542,0,1,1,4.388,2.566Z" transform="translate(2.052 -0.128)" fill="#cfe6dd"/>
        <g id="Group_211" data-name="Group 211" transform="translate(1.292 1.284)">
          <path id="Shape-15" data-name="Shape" d="M9.2,36.946c-.3,2.258-.552,4.465-.77,6.6C6.247,41.59,2,40.885,2,40.885A6.826,6.826,0,0,1,9.2,36.946Z" transform="translate(-2 7.895)" fill="#e8edfc"/>
          <path id="Shape-16" data-name="Shape" d="M17.619,49.875s-5.825.975-7.339,3.759c.128-2.31.308-4.914.552-7.7A6.775,6.775,0,0,1,17.619,49.875Z" transform="translate(0.344 10.452)" fill="#e8edfc"/>
          <path id="Shape-17" data-name="Shape" d="M18.1,9.7c-.385.821-.77,1.655-1.129,2.566A13.126,13.126,0,0,1,4.139,3.75,1.283,1.283,0,0,1,5.268,2C16.547,1.5,18.1,9.7,18.1,9.7Z" transform="translate(-1.419 -1.983)" fill="#deeee8"/>
          <path id="Shape-18" data-name="Shape" d="M23.966,15.254s-4.709-.706-7.326.731A68.787,68.787,0,0,1,19.283,9.57a6.723,6.723,0,0,1,4.683,5.684Z" transform="translate(2.145 0.165)" fill="#e8edfc"/>
        </g>
        <path id="Shape-19" data-name="Shape" d="M7.132,71.626a1.283,1.283,0,0,0,1.283,1.283h2.566a1.283,1.283,0,0,0,.642-.192,1.283,1.283,0,0,1-.642-1.091c0-3.156.257-11.548,1.283-21.71-2.168-1.963-6.415-2.669-6.415-2.669a6.826,6.826,0,0,1,7.2-3.939,175.322,175.322,0,0,1,3.195-18.13c-2.361-3.079-3.682-6.3-3.323-8.9L9.7,14.4c-1.617,2.8-.244,6.9,2.72,10.778A175.322,175.322,0,0,0,9.2,43.308,6.826,6.826,0,0,0,2,47.247s4.247.706,6.415,2.656C7.4,60.078,7.132,68.457,7.132,71.626Z" transform="translate(-0.708 2.817)" fill="#fff"/>
        <path id="Shape-20" data-name="Shape" d="M5.4,50.94l2.566.141c-.192,3.4-.334,6.813-.385,10.265L5,61.282C5.064,57.8,5.205,54.366,5.4,50.94Z" transform="translate(0.141 13.161)" fill="#fff"/>
        <path id="Shape-21" data-name="Shape" d="M29.849,34.7A3.849,3.849,0,1,0,26,30.849,3.849,3.849,0,0,0,29.849,34.7Zm0-5.132a1.283,1.283,0,1,1-1.283,1.283A1.283,1.283,0,0,1,29.849,29.566Z" transform="translate(6.086 6.384)" fill="#384f45"/>
        <path id="Shape-22" data-name="Shape" d="M6.423,56.566a1.283,1.283,0,1,1,1.283-1.283A1.283,1.283,0,0,1,6.423,56.566Z" transform="translate(0.181 14.027)" fill="#384f45"/>
        <path id="Shape-23" data-name="Shape" d="M2.08,52.329a15.1,15.1,0,0,1,5.338,1.963Q6.9,59.681,6.571,65.083a1.266,1.266,0,1,0,2.528.154A225.068,225.068,0,0,1,13.384,31.8a28.5,28.5,0,0,0,2.168,2.143,235.345,235.345,0,0,0-3.913,32.308c-.244,4.183-.372,7.416-.372,9.174H8.7a1.283,1.283,0,0,0-2.566,0A2.5,2.5,0,0,0,8.7,77.991h2.566a2.566,2.566,0,0,0,2.566-2.566c0-1.694.115-4.735.321-8.674,1.026-1.54,4.35-2.566,6.3-2.938a1.291,1.291,0,0,0,.924-1.848,7.93,7.93,0,0,0-6.544-4.645,217.305,217.305,0,0,1,2.951-21.569,34.027,34.027,0,0,0,3.054,2.027A36.106,36.106,0,0,0,28.4,41a9.072,9.072,0,0,0,3.4,4.568v6.48A3.849,3.849,0,0,0,30.513,54.9V74.142a3.849,3.849,0,0,0,3.849,3.849h5.132a3.849,3.849,0,0,0,3.849-3.849V54.9a3.849,3.849,0,0,0-1.283-2.848V47.094l4.273,2.476a3.849,3.849,0,0,0,1.835,2.566l16.68,9.623a3.857,3.857,0,0,0,5.261-1.411l2.566-4.44a3.849,3.849,0,0,0-1.411-5.261l-16.68-9.623a3.849,3.849,0,0,0-3.118-.308L45.91,37.458a8.982,8.982,0,0,0-2.233-5.2,36.222,36.222,0,0,0,.949-8.16c0-9.687-4.94-20.53-11.548-20.53A1.283,1.283,0,0,0,31.8,4.854V29.323L20.916,23.036c.372-1.283.757-2.489,1.18-3.708a13.986,13.986,0,0,1,6.108-.359,1.28,1.28,0,0,0,1.463-1.463,7.93,7.93,0,0,0-4.183-6.236c.346-.667.667-1.283,1.039-1.989a3.849,3.849,0,0,0-6.646-3.849c-.282.488-.552.988-.808,1.488C17.477,4.29,13.833.659,6.032,1.005a2.566,2.566,0,0,0-2.3,3.49,14.384,14.384,0,0,0,12.228,9.264c-.667,1.707-1.283,3.49-1.9,5.325l-3.464-2a1.285,1.285,0,0,0-1.758.475c-1.835,3.182-.5,7.583,2.425,11.676C9.984,34.7,9.073,40.217,8.328,45.76a8.019,8.019,0,0,0-7.2,4.709,1.3,1.3,0,0,0,.949,1.86ZM18.17,61.76a16.436,16.436,0,0,0-3.849,1.54c.077-1.065.154-2.194.244-3.362a5.3,5.3,0,0,1,3.606,1.809ZM33.721,32.672l.128-.09a6.412,6.412,0,1,1-3.169,7.147,6.582,6.582,0,0,1-.167-1.514A6.415,6.415,0,0,1,33.721,32.672ZM46.757,46.786l-3.67-2.053a9.059,9.059,0,0,0,2.566-4.44l3.67,2.117ZM40.778,74.142a1.283,1.283,0,0,1-1.283,1.283H34.362a1.283,1.283,0,0,1-1.283-1.283V54.9a1.283,1.283,0,0,1,1.283-1.283h5.132A1.283,1.283,0,0,1,40.778,54.9Zm-6.415-23.1V46.812a8.751,8.751,0,0,0,5.132,0v4.234ZM53.3,43.219l16.68,9.623a1.283,1.283,0,0,1,.462,1.758l-2.566,4.44a1.283,1.283,0,0,1-1.745.475l-16.68-9.623a1.283,1.283,0,0,1-.475-1.758l2.566-4.44a1.411,1.411,0,0,1,.449-.462,1.412,1.412,0,0,1,1.309-.013ZM42.061,24.1a34.643,34.643,0,0,1-.629,6.415,8.879,8.879,0,0,0-4.5-1.283,9.071,9.071,0,0,0-2.566.385V6.368c4.055,1.463,7.7,9.521,7.7,17.732Zm-15.4-7.891a17.578,17.578,0,0,0-3.49.167c.385-.975.77-1.886,1.168-2.759A5.132,5.132,0,0,1,26.664,16.21ZM6.134,3.571C14.988,3.161,17.182,8.5,17.605,9.9c-.205.436-.4.9-.6,1.347A11.856,11.856,0,0,1,6.134,3.571Zm12.831,9.482c.359-.834.731-1.655,1.116-2.451v-.115c.6-1.283,1.283-2.566,1.937-3.721a1.283,1.283,0,0,1,1.193-.629,1.193,1.193,0,0,1,1.078.616,1.283,1.283,0,0,1,0,1.283c-.616,1.078-1.206,2.194-1.732,3.323a67.542,67.542,0,0,0-2.643,6.415.641.641,0,0,0,0,.167c-.436,1.283-.847,2.5-1.283,3.759l-2.271-1.283c.8-2.592,1.694-5.055,2.6-7.365Zm-8.34,7.019L30.783,31.7a8.982,8.982,0,0,0-2.836,6.518,33.142,33.142,0,0,1-5.812-2.566,28.806,28.806,0,0,1-8.481-7.429l-.09-.115c-2.168-2.951-3.323-5.877-2.938-8.032ZM8.059,48.3c-.128,1.052-.257,2.091-.372,3.144a17.257,17.257,0,0,0-3.31-1.283,5.248,5.248,0,0,1,3.657-1.809Z" transform="translate(-0.993 -0.982)" fill="#384f45"/>
      </g>
    </g>
  </g>
</svg>
