<svg xmlns="http://www.w3.org/2000/svg" width="213" height="213" viewBox="0 0 213 213">
  <path id="Union_2" data-name="Union 2" d="M98.864,158.745c0-14.81,1.055-28.235,2.765-38.025-5.7,8.211-14.594,18.656-25.283,29.345-21.188,21.188-41.417,35.31-45.184,31.544s10.355-24,31.544-45.185a239.6,239.6,0,0,1,27.378-23.887,241.225,241.225,0,0,1-35.83,2.4C24.291,114.94,0,110.621,0,105.295s24.291-9.646,54.255-9.646A240.4,240.4,0,0,1,90.3,98.085C82.11,92.379,71.726,83.53,61.1,72.9,39.91,51.715,25.788,31.485,29.554,27.718s24,10.356,45.185,31.544c11.552,11.552,21,22.82,26.6,31.29a239.415,239.415,0,0,1-2.476-36.3C98.864,24.291,103.182,0,108.509,0s9.645,24.291,9.645,54.255a249.029,249.029,0,0,1-2.091,33.739,246.7,246.7,0,0,1,22.772-25.862c21.188-21.188,41.417-35.31,45.184-31.544s-10.356,24-31.544,45.184a258.781,258.781,0,0,1-23.013,20.6,263.5,263.5,0,0,1,29.282-1.524c29.965,0,54.255,4.319,54.255,9.645s-24.29,9.646-54.255,9.646a259.761,259.761,0,0,1-30.508-1.668,253.714,253.714,0,0,1,24.239,21.545c21.188,21.188,35.31,41.417,31.544,45.184s-24-10.355-45.184-31.543a242.722,242.722,0,0,1-23.41-26.725,233.191,233.191,0,0,1,2.729,37.816c0,29.965-4.318,54.255-9.645,54.255S98.864,188.709,98.864,158.745Z" fill="#326b51"/>
</svg>
